<svg width="392" height="560" viewBox="0 0 392 560" fill="none" xmlns="http://www.w3.org/2000/svg">
<g filter="url(#filter0_d)">
<path d="M68.7107 491.008L10.6912 127.192C6.36202 100.044 22.7536 73.8719 49.0683 65.9159L226.184 12.3719C257.123 3.01856 289.413 22.2466 295.933 53.9026L368.143 404.56C373.7 431.548 358.417 458.481 332.4 467.553L141.093 534.257C108.761 545.531 74.1027 524.821 68.7107 491.008Z" fill="url(#paint0_linear)"/>
</g>
<g filter="url(#filter1_d)">
<path d="M41.3622 450.565L51.9685 108.715C52.7595 83.2052 72.2735 62.2025 97.6562 59.5425L268.495 41.6385C298.336 38.5105 324.423 61.6799 324.842 91.6812L329.471 424.012C329.827 449.589 311.191 471.48 285.884 475.208L99.8109 502.635C68.3629 507.269 40.3762 482.337 41.3622 450.565" fill="white"/>
</g>
<path d="M157.758 131.136C157.758 127.767 159.56 124.646 163.163 121.775L169.755 126.17C166.767 128.045 165.272 130.037 165.272 132.146C165.272 133.025 165.565 133.963 166.151 134.959C166.767 135.926 167.382 136.893 167.997 137.859C168.612 138.826 168.92 139.734 168.92 140.584C168.92 144.041 166.518 146.722 161.713 148.626L159.999 146.297C161.171 145.652 161.977 145.037 162.416 144.451C162.885 143.836 163.119 143.162 163.119 142.43C163.119 141.697 162.841 140.892 162.284 140.013C161.728 139.104 161.112 138.284 160.438 137.552C159.765 136.79 159.149 135.838 158.593 134.695C158.036 133.523 157.758 132.337 157.758 131.136ZM172.919 123.533L191.288 123.05L191.2 125.467L186.146 125.994L183.905 147.132L179.994 147.483L178.148 126.785L173.139 127.269L172.919 123.533ZM210.932 147L196.825 147.308L195.155 123.577L211.063 123.094L210.932 125.511L203.329 126.39L202.406 133.86L210.053 133.772L210.229 137.024L202.099 136.409L201.132 144.451L211.063 143.309L210.932 147ZM217.084 124.324C220.424 123.24 223.822 122.698 227.279 122.698C230.736 122.698 233.373 123.27 235.189 124.412C235.6 125.701 235.819 126.932 235.849 128.104C235.849 130.857 234.706 133.172 232.421 135.047C230.136 136.922 227.206 138.27 223.632 139.09L222.753 147.132L219.149 147.483L217.084 124.324ZM228.905 129.158C228.905 127.312 228.158 125.936 226.664 125.027C226.254 125.027 225.727 125.115 225.082 125.291L223.852 136.629C225.434 135.75 226.664 134.622 227.543 133.245C228.451 131.868 228.905 130.506 228.905 129.158Z" fill="#002294"/>
<g filter="url(#filter2_d)">
<path d="M182.501 233.804C182.326 234.066 182.064 234.415 181.715 234.852C181.453 235.201 181.147 235.551 180.798 235.9C180.536 236.249 180.23 236.555 179.881 236.817C179.619 236.992 179.444 237.035 179.357 236.948C179.182 236.948 179.139 236.773 179.226 236.424C179.401 236.075 179.968 234.808 180.929 232.625C182.064 230.18 182.981 227.385 183.68 224.241C184.466 221.097 185.034 217.909 185.383 214.678C185.732 211.359 185.951 208.128 186.038 204.984C186.213 201.84 186.3 199.002 186.3 196.469C186.3 195.159 186.169 193.587 185.907 191.753C185.732 189.919 185.339 188.129 184.728 186.382C184.204 184.635 183.418 183.151 182.37 181.928C181.409 180.705 180.099 180.094 178.44 180.094C176.344 180.094 174.423 180.662 172.676 181.797C170.929 182.932 169.357 184.199 167.96 185.596C166.65 186.906 165.515 188.172 164.554 189.395C163.681 190.53 163.026 191.142 162.589 191.229C163.2 189.57 164.03 187.867 165.078 186.12C166.126 184.286 167.349 182.67 168.746 181.273C170.231 179.788 171.803 178.609 173.462 177.736C175.209 176.775 177.086 176.295 179.095 176.295C181.802 176.295 183.942 177.168 185.514 178.915C187.173 180.662 188.44 182.758 189.313 185.203C190.186 187.648 190.71 190.225 190.885 192.932C191.147 195.639 191.278 197.954 191.278 199.875C191.278 202.67 191.103 205.552 190.754 208.521C190.492 211.403 190.012 214.241 189.313 217.036C189.051 217.997 188.702 219.176 188.265 220.573C187.828 221.97 187.304 223.455 186.693 225.027C186.082 226.599 185.383 228.171 184.597 229.743C183.898 231.315 183.2 232.669 182.501 233.804ZM180.536 200.137C180.536 199.526 180.492 198.609 180.405 197.386C180.405 196.163 180.274 194.941 180.012 193.718C179.837 192.408 179.532 191.273 179.095 190.312C178.746 189.351 178.222 188.871 177.523 188.871C176.999 188.871 176.344 189.089 175.558 189.526C174.772 189.963 173.986 190.705 173.2 191.753C170.755 194.897 168.79 197.954 167.305 200.923C165.908 203.892 164.772 206.949 163.899 210.093C163.113 213.15 162.458 216.337 161.934 219.656C161.497 222.975 161.061 226.555 160.624 230.398C160.362 230.311 160.144 229.83 159.969 228.957C159.794 227.996 159.62 226.948 159.445 225.813C159.358 224.678 159.27 223.586 159.183 222.538C159.183 221.49 159.183 220.791 159.183 220.442C159.183 216.075 159.707 211.752 160.755 207.473C161.89 203.194 163.462 199.089 165.471 195.159C165.995 194.111 166.737 192.888 167.698 191.491C168.746 190.006 169.838 188.609 170.973 187.299C172.196 185.989 173.506 184.897 174.903 184.024C176.3 183.063 177.654 182.583 178.964 182.583C180.187 182.583 181.147 183.238 181.846 184.548C182.632 185.858 183.2 187.386 183.549 189.133C183.986 190.88 184.248 192.626 184.335 194.373C184.422 196.12 184.466 197.473 184.466 198.434C184.466 203.412 183.942 208.652 182.894 214.154C181.933 219.656 180.449 224.634 178.44 229.088C178.265 229.263 178.091 229.481 177.916 229.743C177.741 229.918 177.654 229.656 177.654 228.957C177.654 226.599 177.785 224.241 178.047 221.883C178.396 219.438 178.746 217.036 179.095 214.678C179.444 212.233 179.75 209.831 180.012 207.473C180.361 205.028 180.536 202.582 180.536 200.137ZM164.03 245.987C164.554 245.987 165.122 245.9 165.733 245.725C166.344 245.463 166.432 245.594 165.995 246.118C165.471 246.817 164.467 247.166 162.982 247.166C160.1 247.166 157.655 245.943 155.646 243.498C153.725 240.965 152.153 238.04 150.93 234.721C149.795 231.315 148.965 227.865 148.441 224.372C147.917 220.791 147.655 217.953 147.655 215.857C147.655 209.307 148.703 202.801 150.799 196.338C152.895 189.788 156.126 184.024 160.493 179.046C161.541 177.823 162.72 176.601 164.03 175.378C165.34 174.155 166.737 173.064 168.222 172.103C169.707 171.142 171.235 170.356 172.807 169.745C174.466 169.134 176.169 168.828 177.916 168.828C181.846 168.828 185.077 169.745 187.61 171.579C190.23 173.326 192.282 175.596 193.767 178.391C195.339 181.098 196.431 184.155 197.042 187.561C197.741 190.88 198.09 194.111 198.09 197.255C198.09 200.312 197.828 203.543 197.304 206.949C196.867 210.355 196.212 213.761 195.339 217.167C194.466 220.486 193.418 223.761 192.195 226.992C190.972 230.136 189.619 233.062 188.134 235.769C185.951 239.699 183.287 242.887 180.143 245.332C176.999 247.777 173.113 249 168.484 249C168.135 249 167.523 249 166.65 249C165.864 248.913 165.34 248.782 165.078 248.607L164.292 248.214C163.943 248.039 164.205 247.952 165.078 247.952C168.309 248.127 171.279 247.428 173.986 245.856C176.693 244.197 179.095 241.97 181.191 239.175C183.287 236.38 185.121 233.193 186.693 229.612C188.265 225.944 189.575 222.189 190.623 218.346C191.671 214.503 192.413 210.704 192.85 206.949C193.374 203.194 193.636 199.788 193.636 196.731C193.636 194.286 193.374 191.666 192.85 188.871C192.413 186.076 191.584 183.5 190.361 181.142C189.226 178.784 187.61 176.819 185.514 175.247C183.505 173.675 180.973 172.889 177.916 172.889C176.344 172.889 174.772 173.238 173.2 173.937C169.445 175.684 166.213 178.216 163.506 181.535C160.799 184.854 158.528 188.565 156.694 192.67C154.947 196.687 153.637 200.879 152.764 205.246C151.891 209.613 151.454 213.674 151.454 217.429C151.454 218.564 151.541 220.049 151.716 221.883C151.891 223.717 152.196 225.726 152.633 227.909C153.07 230.005 153.594 232.145 154.205 234.328C154.904 236.424 155.69 238.345 156.563 240.092C157.524 241.839 158.615 243.28 159.838 244.415C161.061 245.463 162.458 245.987 164.03 245.987ZM155.384 213.63C155.559 213.63 155.69 213.936 155.777 214.547C155.864 215.158 155.908 215.508 155.908 215.595C156.083 216.73 156.17 217.822 156.17 218.87C156.257 219.918 156.388 220.922 156.563 221.883C156.738 222.931 157.043 224.59 157.48 226.861C157.917 229.132 158.528 231.446 159.314 233.804C160.1 236.162 161.017 238.214 162.065 239.961C163.2 241.708 164.467 242.581 165.864 242.581C166.126 242.581 166.344 242.581 166.519 242.581C166.781 242.494 166.912 242.581 166.912 242.843C166.912 243.804 165.82 244.284 163.637 244.284C162.414 244.284 161.323 243.847 160.362 242.974C159.489 242.013 158.703 240.791 158.004 239.306C157.305 237.821 156.694 236.206 156.17 234.459C155.733 232.625 155.384 230.835 155.122 229.088C154.86 227.341 154.642 225.726 154.467 224.241C154.38 222.756 154.336 221.577 154.336 220.704C154.336 220.529 154.336 220.049 154.336 219.263C154.336 218.477 154.38 217.691 154.467 216.905C154.554 216.032 154.642 215.289 154.729 214.678C154.904 213.979 155.122 213.63 155.384 213.63ZM231.263 176.295C231.175 176.819 230.87 177.343 230.346 177.867C229.822 178.391 229.254 178.871 228.643 179.308C228.119 179.745 227.595 180.094 227.071 180.356C226.547 180.618 226.241 180.705 226.154 180.618C226.066 180.531 226.154 180.269 226.416 179.832C226.765 179.308 227.114 178.784 227.464 178.26C227.9 177.649 228.293 176.994 228.643 176.295C228.992 175.596 229.21 174.985 229.298 174.461C229.56 172.976 229.56 171.317 229.298 169.483C229.298 168.872 229.385 168.566 229.56 168.566C229.734 168.566 229.953 168.784 230.215 169.221C230.302 169.483 230.389 169.701 230.477 169.876C230.739 170.575 231.001 171.535 231.263 172.758C231.525 173.893 231.525 175.072 231.263 176.295ZM226.547 174.723C225.062 176.994 223.141 178.828 220.783 180.225C218.512 181.535 216.11 182.758 213.578 183.893C212.093 184.504 210.565 185.247 208.993 186.12C207.508 186.906 206.285 188.172 205.325 189.919C205.237 190.181 205.15 190.312 205.063 190.312C204.888 190.312 204.801 190.006 204.801 189.395C204.539 187.823 204.844 186.382 205.718 185.072C206.591 183.762 207.683 182.627 208.993 181.666C210.303 180.618 211.613 179.745 212.923 179.046C214.32 178.347 215.412 177.78 216.198 177.343C217.682 176.557 219.342 175.902 221.176 175.378C223.01 174.854 224.582 174.33 225.892 173.806C226.59 173.544 226.896 173.588 226.809 173.937C226.721 174.286 226.634 174.548 226.547 174.723ZM223.272 184.024C223.359 184.461 223.184 184.897 222.748 185.334C222.136 185.945 221.263 186.644 220.128 187.43C219.08 188.216 217.944 188.958 216.722 189.657C216.023 190.006 215.15 190.53 214.102 191.229C213.141 191.928 212.18 192.714 211.22 193.587C210.259 194.373 209.429 195.29 208.731 196.338C208.119 197.299 207.857 198.303 207.945 199.351C207.945 199.788 207.814 199.875 207.552 199.613C207.377 199.438 207.202 199.089 207.028 198.565C206.329 196.12 206.329 193.893 207.028 191.884C207.814 189.875 208.818 188.522 210.041 187.823C211.7 186.862 213.578 186.076 215.674 185.465C217.77 184.766 219.822 184.242 221.831 183.893C222.005 183.893 222.267 183.893 222.617 183.893C222.966 183.806 223.184 183.849 223.272 184.024ZM236.765 188.478C237.813 190.399 238.249 192.845 238.075 195.814C237.987 198.696 237.594 201.709 236.896 204.853C236.197 207.91 235.411 210.879 234.538 213.761C233.664 216.643 232.966 218.957 232.442 220.704C231.568 223.935 230.477 227.21 229.167 230.529C227.857 233.848 226.634 236.73 225.499 239.175C225.237 239.874 224.931 240.223 224.582 240.223C224.32 240.223 224.189 240.092 224.189 239.83C224.189 239.481 224.189 239.175 224.189 238.913C224.363 233.673 225.149 228.564 226.547 223.586C228.031 218.608 229.647 213.63 231.394 208.652C232.442 205.595 233.446 202.451 234.407 199.22C235.367 195.989 235.848 192.495 235.848 188.74C235.848 188.478 235.848 188.216 235.848 187.954C235.848 187.692 235.935 187.561 236.11 187.561C236.284 187.561 236.415 187.692 236.503 187.954C236.677 188.216 236.765 188.391 236.765 188.478ZM218.294 218.608C216.896 223.411 216.372 228.564 216.722 234.066C217.158 239.481 218.818 244.415 221.7 248.869C221.874 249.131 221.7 249.175 221.176 249C218.73 246.642 216.896 244.153 215.674 241.533C214.451 238.826 213.665 236.075 213.316 233.28C212.966 230.485 212.966 227.647 213.316 224.765C213.665 221.883 214.189 219.132 214.888 216.512C215.936 212.669 217.115 208.914 218.425 205.246C219.735 201.578 221.001 197.997 222.224 194.504C220.914 195.028 219.56 195.596 218.163 196.207C216.853 196.731 215.586 197.342 214.364 198.041C213.228 198.652 212.224 199.395 211.351 200.268C210.477 201.141 209.866 202.146 209.517 203.281C209.429 203.456 209.298 203.499 209.124 203.412C209.036 203.237 208.993 202.932 208.993 202.495C208.905 200.137 209.386 198.259 210.434 196.862C211.569 195.465 212.923 194.329 214.495 193.456C216.154 192.495 217.944 191.666 219.866 190.967C221.874 190.181 223.665 189.308 225.237 188.347C226.285 187.736 227.289 186.95 228.25 185.989C229.298 184.941 230.171 183.762 230.87 182.452C231.656 181.142 232.18 179.657 232.442 177.998C232.791 176.251 232.791 174.33 232.442 172.234C232.354 171.797 232.398 171.623 232.573 171.71C232.747 171.71 232.878 171.797 232.966 171.972C233.839 174.243 234.276 177.387 234.276 181.404C234.276 185.334 233.839 189.613 232.966 194.242C232.616 196.163 232.092 198.259 231.394 200.53C230.695 202.801 229.909 205.115 229.036 207.473C228.25 209.744 227.376 211.971 226.416 214.154C225.542 216.337 224.669 218.259 223.796 219.918C223.621 220.18 223.403 220.573 223.141 221.097C222.966 221.621 222.791 221.839 222.617 221.752C222.355 221.665 222.224 221.359 222.224 220.835C222.224 220.224 222.224 219.874 222.224 219.787C222.311 218.914 222.442 217.909 222.617 216.774C222.879 215.551 223.141 214.329 223.403 213.106C223.752 211.796 224.101 210.573 224.451 209.438C224.8 208.215 225.149 207.167 225.499 206.294C225.586 205.945 225.804 205.202 226.154 204.067C226.503 202.844 226.852 201.447 227.202 199.875C227.638 198.216 228.031 196.469 228.381 194.635C228.817 192.801 229.167 191.011 229.429 189.264C228.468 190.225 227.376 192.059 226.154 194.766C225.018 197.386 223.927 200.268 222.879 203.412C221.831 206.469 220.87 209.438 219.997 212.32C219.211 215.202 218.643 217.298 218.294 218.608ZM225.892 249.524C225.368 249.524 224.931 249.349 224.582 249C223.359 248.039 222.398 247.122 221.7 246.249C221.088 245.288 220.564 243.804 220.128 241.795C219.953 241.009 219.822 240.048 219.735 238.913C219.647 237.69 219.604 236.555 219.604 235.507C219.604 234.459 219.691 233.586 219.866 232.887C220.04 232.101 220.302 231.708 220.652 231.708C220.739 231.708 220.826 231.883 220.914 232.232C221.088 232.581 221.219 233.018 221.307 233.542C221.481 233.979 221.612 234.415 221.7 234.852C221.787 235.289 221.831 235.594 221.831 235.769C222.005 236.904 222.136 237.952 222.224 238.913C222.311 239.874 222.486 240.834 222.748 241.795C223.534 244.415 224.538 246.773 225.761 248.869C225.848 248.956 225.935 249.087 226.023 249.262C226.11 249.437 226.066 249.524 225.892 249.524Z" fill="#002294"/>
</g>
<g filter="url(#filter3_d)">
<path d="M143.541 304.891C145.557 304.891 147.49 304.539 149.342 303.836L150.326 306.965C148.779 307.457 147.197 307.703 145.58 307.703C143.963 307.703 142.521 307.527 141.256 307.176C140.014 306.824 139.053 306.367 138.373 305.805C138.045 304.188 137.893 302.594 137.916 301.023C137.916 297.812 138.514 294.906 139.709 292.305C140.928 289.68 142.322 287.852 143.893 286.82L149.447 290.336C146.799 292.023 144.689 294.18 143.119 296.805C141.572 299.43 140.799 302.055 140.799 304.68C141.619 304.82 142.533 304.891 143.541 304.891ZM153.807 307.422L152.365 287.348L158.518 286.398L156.654 307.176L153.807 307.422ZM163.967 307.422L162.525 293.148L168.678 292.234L166.814 307.176L163.967 307.422ZM163.404 289.984C162.889 289.445 162.631 288.812 162.631 288.086C162.631 287.336 162.889 286.703 163.404 286.188C163.943 285.672 164.576 285.414 165.303 285.414C166.029 285.414 166.65 285.672 167.166 286.188C167.705 286.703 167.975 287.336 167.975 288.086C167.975 288.812 167.705 289.445 167.166 289.984C166.65 290.5 166.029 290.758 165.303 290.758C164.576 290.758 163.943 290.5 163.404 289.984ZM177.186 305.172C179.014 305.172 180.748 304.867 182.389 304.258L183.268 307.035C181.908 307.48 180.49 307.703 179.014 307.703C177.537 307.703 176.225 307.539 175.076 307.211C173.951 306.906 173.107 306.496 172.545 305.98C172.264 304.598 172.111 303.32 172.088 302.148C172.088 299.758 172.627 297.578 173.705 295.609C174.807 293.641 176.061 292.258 177.467 291.461L182.459 294.73C180.045 296.043 178.135 297.602 176.729 299.406C175.346 301.188 174.654 303.051 174.654 304.996C175.475 305.113 176.318 305.172 177.186 305.172ZM199.018 293.043L194.553 297.719L200.811 307.07L195.326 307.422L191.74 300.707L190.686 301.691L190.193 307.176L187.346 307.422L185.904 287.348L192.057 286.398L190.967 298.809L197.084 291.566L199.018 293.043ZM221.412 295.293C222.959 297.098 223.732 299.148 223.732 301.445C223.732 303.742 223.275 305.359 222.361 306.297C221.447 307.234 219.76 307.703 217.299 307.703C214.838 307.703 212.928 307.141 211.568 306.016C210.631 301.422 211.17 297.695 213.186 294.836C214.451 293.078 215.564 291.953 216.525 291.461C218.354 292.398 219.982 293.676 221.412 295.293ZM219.936 304.574C220.24 303.402 220.393 302.043 220.393 300.496C220.393 298.949 220.006 297.426 219.232 295.926C217.639 296.77 216.314 298.059 215.26 299.793C214.229 301.504 213.713 303.238 213.713 304.996C214.322 305.113 215.201 305.172 216.35 305.172C217.521 305.172 218.717 304.973 219.936 304.574ZM238.463 291.918C238.814 291.918 239.178 291.988 239.553 292.129C240.537 293.301 241.205 295.352 241.557 298.281C241.908 301.211 242.084 304.117 242.084 307L236.916 307.422C236.916 302.992 236.752 298.973 236.424 295.363C233.869 296.301 232.17 300.238 231.326 307.176L228.479 307.422L227.037 293.148L233.189 292.199L232.521 297.262H232.803C233.576 295.598 234.443 294.297 235.404 293.359C236.389 292.398 237.408 291.918 238.463 291.918ZM154.316 410.918C154.645 410.918 154.984 410.988 155.336 411.129C156.039 411.949 156.602 413.191 157.023 414.855C157.469 416.52 157.691 418.383 157.691 420.445C157.691 422.484 157.176 424.043 156.145 425.121C155.137 426.176 153.402 426.703 150.941 426.703C148.504 426.703 146.289 426.199 144.297 425.191L142.961 406.348L149.113 405.398L148.059 416.93H148.305C149.078 415.102 149.992 413.648 151.047 412.57C152.102 411.469 153.191 410.918 154.316 410.918ZM147.355 424.77C147.871 424.816 148.609 424.84 149.57 424.84C150.531 424.84 151.469 424.734 152.383 424.523C152.664 423.047 152.805 421.641 152.805 420.305C152.805 417.305 152.617 415.324 152.242 414.363C149.781 415.348 148.152 418.816 147.355 424.77ZM170.207 422.625C170.91 421.711 171.391 420.715 171.648 419.637C171.93 418.559 172.07 417.621 172.07 416.824C172.07 416.027 171.965 414.469 171.754 412.148L177.906 411.234L176.043 426.176L173.195 426.422L172.633 420.973H172.422C170.992 424.77 168.73 426.668 165.637 426.668C165.168 426.668 164.781 426.586 164.477 426.422C163.492 425.25 162.824 423.234 162.473 420.375C162.121 417.516 161.945 414.668 161.945 411.832L167.676 411.41C167.348 414.762 167.172 417.27 167.148 418.934C167.148 420.598 167.289 422.402 167.57 424.348C168.625 424.113 169.504 423.539 170.207 422.625ZM184.234 426.422L183.004 414.82L180.332 415.172L180.156 412.219L182.688 412.078L182.266 408.07L189.438 407.086L188.84 411.762L191.723 411.621L191.617 413.555L188.559 413.977L187.082 426.176L184.234 426.422ZM196.609 426.422L195.379 414.82L192.707 415.172L192.531 412.219L195.062 412.078L194.641 408.07L201.812 407.086L201.215 411.762L204.098 411.621L203.992 413.555L200.934 413.977L199.457 426.176L196.609 426.422ZM216.367 414.293C217.914 416.098 218.688 418.148 218.688 420.445C218.688 422.742 218.23 424.359 217.316 425.297C216.402 426.234 214.715 426.703 212.254 426.703C209.793 426.703 207.883 426.141 206.523 425.016C205.586 420.422 206.125 416.695 208.141 413.836C209.406 412.078 210.52 410.953 211.48 410.461C213.309 411.398 214.938 412.676 216.367 414.293ZM214.891 423.574C215.195 422.402 215.348 421.043 215.348 419.496C215.348 417.949 214.961 416.426 214.188 414.926C212.594 415.77 211.27 417.059 210.215 418.793C209.184 420.504 208.668 422.238 208.668 423.996C209.277 424.113 210.156 424.172 211.305 424.172C212.477 424.172 213.672 423.973 214.891 423.574ZM233.418 410.918C233.77 410.918 234.133 410.988 234.508 411.129C235.492 412.301 236.16 414.352 236.512 417.281C236.863 420.211 237.039 423.117 237.039 426L231.871 426.422C231.871 421.992 231.707 417.973 231.379 414.363C228.824 415.301 227.125 419.238 226.281 426.176L223.434 426.422L221.992 412.148L228.145 411.199L227.477 416.262H227.758C228.531 414.598 229.398 413.297 230.359 412.359C231.344 411.398 232.363 410.918 233.418 410.918Z" fill="#3B3B3B"/>
<path d="M102.421 354.68L101.241 346.377L105.659 345.958L104.783 354.604L102.421 354.68ZM123.445 369L111.219 369.267L109.772 348.7L123.559 348.281L123.445 350.376L116.856 351.138L116.056 357.612L122.683 357.536L122.835 360.354L115.79 359.821L114.952 366.791L123.559 365.801L123.445 369ZM140.165 352.661C140.545 352.661 140.939 352.737 141.345 352.89C142.412 354.159 143.135 356.381 143.516 359.555C143.897 362.729 144.087 365.877 144.087 369L138.489 369.457C138.489 364.658 138.311 360.304 137.956 356.394C135.188 357.409 133.347 361.675 132.433 369.19L129.348 369.457L127.787 353.994L134.452 352.966L133.728 358.45H134.033C134.871 356.647 135.81 355.238 136.851 354.223C137.917 353.182 139.022 352.661 140.165 352.661ZM158.255 358.717C156.833 358.717 155.754 359.212 155.018 360.202C154.307 361.192 153.774 363.008 153.418 365.648L153 369.19L149.915 369.457L148.353 353.994L155.018 352.966L154.371 357.955H154.599C156.275 354.375 158.395 352.471 160.959 352.242L160.083 358.869C159.322 358.768 158.712 358.717 158.255 358.717ZM173.642 356.317C175.318 358.272 176.156 360.494 176.156 362.982C176.156 365.471 175.661 367.223 174.67 368.238C173.68 369.254 171.852 369.762 169.186 369.762C166.52 369.762 164.451 369.152 162.978 367.934C161.962 362.957 162.546 358.92 164.73 355.822C166.101 353.918 167.307 352.699 168.348 352.166C170.329 353.182 172.093 354.565 173.642 356.317ZM172.042 366.372C172.373 365.103 172.538 363.63 172.538 361.954C172.538 360.278 172.119 358.628 171.281 357.003C169.554 357.917 168.12 359.313 166.977 361.192C165.86 363.046 165.301 364.925 165.301 366.829C165.961 366.956 166.914 367.02 168.158 367.02C169.427 367.02 170.722 366.804 172.042 366.372ZM181.45 369.457L179.888 347.71L186.553 346.682L184.535 369.19L181.45 369.457ZM192.457 369.457L190.895 347.71L197.56 346.682L195.542 369.19L192.457 369.457ZM229.057 348.396L227.686 369L224.906 369.457L214.775 352.737H214.546L214.623 369L211.538 369.152L212.375 348.7L219.917 348.243L225.401 363.82H225.629L225.934 348.548L229.057 348.396ZM243.301 356.317C244.977 358.272 245.815 360.494 245.815 362.982C245.815 365.471 245.32 367.223 244.33 368.238C243.339 369.254 241.511 369.762 238.845 369.762C236.179 369.762 234.11 369.152 232.637 367.934C231.622 362.957 232.206 358.92 234.389 355.822C235.76 353.918 236.966 352.699 238.007 352.166C239.988 353.182 241.752 354.565 243.301 356.317ZM241.702 366.372C242.032 365.103 242.197 363.63 242.197 361.954C242.197 360.278 241.778 358.628 240.94 357.003C239.213 357.917 237.779 359.313 236.636 361.192C235.519 363.046 234.96 364.925 234.96 366.829C235.621 366.956 236.573 367.02 237.817 367.02C239.086 367.02 240.381 366.804 241.702 366.372ZM254.727 353.08L256.631 365.191H256.86L261.125 354.146L263.334 354.794L266.229 365.268H266.458L269.695 353.271L272.247 353.956L267.257 369.076L264.744 369.457L260.211 362.183L257.279 369.076L254.156 369.457L248.291 353.994L254.727 353.08ZM275.56 354.68L274.379 346.377L278.797 345.958L277.921 354.604L275.56 354.68Z" fill="#0016D9"/>
</g>
<defs>
<filter id="filter0_d" x="0" y="3.05176e-05" width="391.279" height="559.35" filterUnits="userSpaceOnUse" color-interpolation-filters="sRGB">
<feFlood flood-opacity="0" result="BackgroundImageFix"/>
<feColorMatrix in="SourceAlpha" type="matrix" values="0 0 0 0 0 0 0 0 0 0 0 0 0 0 0 0 0 0 127 0"/>
<feOffset dx="6" dy="6"/>
<feGaussianBlur stdDeviation="8"/>
<feColorMatrix type="matrix" values="0 0 0 0 0 0 0 0 0 0 0 0 0 0 0 0 0 0 0.25 0"/>
<feBlend mode="normal" in2="BackgroundImageFix" result="effect1_dropShadow"/>
<feBlend mode="normal" in="SourceGraphic" in2="effect1_dropShadow" result="shape"/>
</filter>
<filter id="filter1_d" x="32.3369" y="32.3553" width="318.139" height="491.836" filterUnits="userSpaceOnUse" color-interpolation-filters="sRGB">
<feFlood flood-opacity="0" result="BackgroundImageFix"/>
<feColorMatrix in="SourceAlpha" type="matrix" values="0 0 0 0 0 0 0 0 0 0 0 0 0 0 0 0 0 0 127 0"/>
<feOffset dx="6" dy="6"/>
<feGaussianBlur stdDeviation="7.5"/>
<feColorMatrix type="matrix" values="0 0 0 0 0 0 0 0 0 0 0 0 0 0 0 0 0 0 0.25 0"/>
<feBlend mode="normal" in2="BackgroundImageFix" result="effect1_dropShadow"/>
<feBlend mode="normal" in="SourceGraphic" in2="effect1_dropShadow" result="shape"/>
</filter>
<filter id="filter2_d" x="144.655" y="168.566" width="96.4571" height="88.958" filterUnits="userSpaceOnUse" color-interpolation-filters="sRGB">
<feFlood flood-opacity="0" result="BackgroundImageFix"/>
<feColorMatrix in="SourceAlpha" type="matrix" values="0 0 0 0 0 0 0 0 0 0 0 0 0 0 0 0 0 0 127 0"/>
<feOffset dy="5"/>
<feGaussianBlur stdDeviation="1.5"/>
<feColorMatrix type="matrix" values="0 0 0 0 0 0 0 0 0 0 0 0 0 0 0 0 0 0 0.25 0"/>
<feBlend mode="normal" in2="BackgroundImageFix" result="effect1_dropShadow"/>
<feBlend mode="normal" in="SourceGraphic" in2="effect1_dropShadow" result="shape"/>
</filter>
<filter id="filter3_d" x="95.2407" y="283.414" width="189.557" height="153.289" filterUnits="userSpaceOnUse" color-interpolation-filters="sRGB">
<feFlood flood-opacity="0" result="BackgroundImageFix"/>
<feColorMatrix in="SourceAlpha" type="matrix" values="0 0 0 0 0 0 0 0 0 0 0 0 0 0 0 0 0 0 127 0"/>
<feOffset dy="4"/>
<feGaussianBlur stdDeviation="3"/>
<feColorMatrix type="matrix" values="0 0 0 0 0 0 0 0 0 0 0 0 0 0 0 0 0 0 0.25 0"/>
<feBlend mode="normal" in2="BackgroundImageFix" result="effect1_dropShadow"/>
<feBlend mode="normal" in="SourceGraphic" in2="effect1_dropShadow" result="shape"/>
</filter>
<linearGradient id="paint0_linear" x1="9.99975" y1="273.675" x2="369.278" y2="273.675" gradientUnits="userSpaceOnUse">
<stop stop-color="#FFD600"/>
<stop offset="1" stop-color="#F7CF00"/>
</linearGradient>
</defs>
</svg>
