<svg width="392" height="560" viewBox="0 0 392 560" fill="none" xmlns="http://www.w3.org/2000/svg">
<g filter="url(#filter0_d)">
<path d="M68.7107 491.008L10.6912 127.192C6.36202 100.044 22.7536 73.8719 49.0683 65.9159L226.184 12.3719C257.123 3.01856 289.413 22.2466 295.933 53.9026L368.143 404.56C373.7 431.548 358.417 458.481 332.4 467.553L141.093 534.257C108.761 545.531 74.1027 524.821 68.7107 491.008Z" fill="url(#paint0_linear)"/>
</g>
<g filter="url(#filter1_d)">
<path d="M41.3622 450.565L51.9685 108.715C52.7595 83.2052 72.2735 62.2025 97.6562 59.5425L268.495 41.6385C298.336 38.5105 324.423 61.6799 324.842 91.6812L329.471 424.012C329.827 449.589 311.191 471.48 285.884 475.208L99.8109 502.635C68.3629 507.269 40.3762 482.337 41.3622 450.565" fill="white"/>
</g>
<path d="M157.758 131.136C157.758 127.767 159.56 124.646 163.163 121.775L169.755 126.17C166.767 128.045 165.272 130.037 165.272 132.146C165.272 133.025 165.565 133.963 166.151 134.959C166.767 135.926 167.382 136.893 167.997 137.859C168.612 138.826 168.92 139.734 168.92 140.584C168.92 144.041 166.518 146.722 161.713 148.626L159.999 146.297C161.171 145.652 161.977 145.037 162.416 144.451C162.885 143.836 163.119 143.162 163.119 142.43C163.119 141.697 162.841 140.892 162.284 140.013C161.728 139.104 161.112 138.284 160.438 137.552C159.765 136.79 159.149 135.838 158.593 134.695C158.036 133.523 157.758 132.337 157.758 131.136ZM172.919 123.533L191.288 123.05L191.2 125.467L186.146 125.994L183.905 147.132L179.994 147.483L178.148 126.785L173.139 127.269L172.919 123.533ZM210.932 147L196.825 147.308L195.155 123.577L211.063 123.094L210.932 125.511L203.329 126.39L202.406 133.86L210.053 133.772L210.229 137.024L202.099 136.409L201.132 144.451L211.063 143.309L210.932 147ZM217.084 124.324C220.424 123.24 223.822 122.698 227.279 122.698C230.736 122.698 233.373 123.27 235.189 124.412C235.6 125.701 235.819 126.932 235.849 128.104C235.849 130.857 234.706 133.172 232.421 135.047C230.136 136.922 227.206 138.27 223.632 139.09L222.753 147.132L219.149 147.483L217.084 124.324ZM228.905 129.158C228.905 127.312 228.158 125.936 226.664 125.027C226.254 125.027 225.727 125.115 225.082 125.291L223.852 136.629C225.434 135.75 226.664 134.622 227.543 133.245C228.451 131.868 228.905 130.506 228.905 129.158Z" fill="#002294"/>
<g filter="url(#filter2_d)">
<path d="M176.604 233.616C176.439 233.864 176.191 234.195 175.86 234.608C175.612 234.939 175.323 235.269 174.992 235.6C174.744 235.931 174.455 236.22 174.124 236.468C173.876 236.633 173.711 236.675 173.628 236.592C173.463 236.592 173.421 236.427 173.504 236.096C173.669 235.765 174.207 234.567 175.116 232.5C176.191 230.185 177.059 227.54 177.72 224.564C178.464 221.588 179.001 218.571 179.332 215.512C179.663 212.371 179.869 209.312 179.952 206.336C180.117 203.36 180.2 200.673 180.2 198.276C180.2 197.036 180.076 195.548 179.828 193.812C179.663 192.076 179.291 190.381 178.712 188.728C178.216 187.075 177.472 185.669 176.48 184.512C175.571 183.355 174.331 182.776 172.76 182.776C170.776 182.776 168.957 183.313 167.304 184.388C165.651 185.463 164.163 186.661 162.84 187.984C161.6 189.224 160.525 190.423 159.616 191.58C158.789 192.655 158.169 193.233 157.756 193.316C158.335 191.745 159.12 190.133 160.112 188.48C161.104 186.744 162.261 185.215 163.584 183.892C164.989 182.487 166.477 181.371 168.048 180.544C169.701 179.635 171.479 179.18 173.38 179.18C175.943 179.18 177.968 180.007 179.456 181.66C181.027 183.313 182.225 185.297 183.052 187.612C183.879 189.927 184.375 192.365 184.54 194.928C184.788 197.491 184.912 199.681 184.912 201.5C184.912 204.145 184.747 206.873 184.416 209.684C184.168 212.412 183.713 215.099 183.052 217.744C182.804 218.653 182.473 219.769 182.06 221.092C181.647 222.415 181.151 223.82 180.572 225.308C179.993 226.796 179.332 228.284 178.588 229.772C177.927 231.26 177.265 232.541 176.604 233.616ZM174.744 201.748C174.744 201.169 174.703 200.301 174.62 199.144C174.62 197.987 174.496 196.829 174.248 195.672C174.083 194.432 173.793 193.357 173.38 192.448C173.049 191.539 172.553 191.084 171.892 191.084C171.396 191.084 170.776 191.291 170.032 191.704C169.288 192.117 168.544 192.82 167.8 193.812C165.485 196.788 163.625 199.681 162.22 202.492C160.897 205.303 159.823 208.196 158.996 211.172C158.252 214.065 157.632 217.083 157.136 220.224C156.723 223.365 156.309 226.755 155.896 230.392C155.648 230.309 155.441 229.855 155.276 229.028C155.111 228.119 154.945 227.127 154.78 226.052C154.697 224.977 154.615 223.944 154.532 222.952C154.532 221.96 154.532 221.299 154.532 220.968C154.532 216.835 155.028 212.743 156.02 208.692C157.095 204.641 158.583 200.756 160.484 197.036C160.98 196.044 161.683 194.887 162.592 193.564C163.584 192.159 164.617 190.836 165.692 189.596C166.849 188.356 168.089 187.323 169.412 186.496C170.735 185.587 172.016 185.132 173.256 185.132C174.413 185.132 175.323 185.752 175.984 186.992C176.728 188.232 177.265 189.679 177.596 191.332C178.009 192.985 178.257 194.639 178.34 196.292C178.423 197.945 178.464 199.227 178.464 200.136C178.464 204.848 177.968 209.808 176.976 215.016C176.067 220.224 174.661 224.936 172.76 229.152C172.595 229.317 172.429 229.524 172.264 229.772C172.099 229.937 172.016 229.689 172.016 229.028C172.016 226.796 172.14 224.564 172.388 222.332C172.719 220.017 173.049 217.744 173.38 215.512C173.711 213.197 174 210.924 174.248 208.692C174.579 206.377 174.744 204.063 174.744 201.748ZM159.12 245.148C159.616 245.148 160.153 245.065 160.732 244.9C161.311 244.652 161.393 244.776 160.98 245.272C160.484 245.933 159.533 246.264 158.128 246.264C155.4 246.264 153.085 245.107 151.184 242.792C149.365 240.395 147.877 237.625 146.72 234.484C145.645 231.26 144.86 227.995 144.364 224.688C143.868 221.299 143.62 218.612 143.62 216.628C143.62 210.428 144.612 204.269 146.596 198.152C148.58 191.952 151.639 186.496 155.772 181.784C156.764 180.627 157.88 179.469 159.12 178.312C160.36 177.155 161.683 176.121 163.088 175.212C164.493 174.303 165.94 173.559 167.428 172.98C168.999 172.401 170.611 172.112 172.264 172.112C175.984 172.112 179.043 172.98 181.44 174.716C183.92 176.369 185.863 178.519 187.268 181.164C188.756 183.727 189.789 186.62 190.368 189.844C191.029 192.985 191.36 196.044 191.36 199.02C191.36 201.913 191.112 204.972 190.616 208.196C190.203 211.42 189.583 214.644 188.756 217.868C187.929 221.009 186.937 224.109 185.78 227.168C184.623 230.144 183.341 232.913 181.936 235.476C179.869 239.196 177.348 242.213 174.372 244.528C171.396 246.843 167.717 248 163.336 248C163.005 248 162.427 248 161.6 248C160.856 247.917 160.36 247.793 160.112 247.628L159.368 247.256C159.037 247.091 159.285 247.008 160.112 247.008C163.171 247.173 165.981 246.512 168.544 245.024C171.107 243.453 173.38 241.345 175.364 238.7C177.348 236.055 179.084 233.037 180.572 229.648C182.06 226.176 183.3 222.621 184.292 218.984C185.284 215.347 185.987 211.751 186.4 208.196C186.896 204.641 187.144 201.417 187.144 198.524C187.144 196.209 186.896 193.729 186.4 191.084C185.987 188.439 185.201 186 184.044 183.768C182.969 181.536 181.44 179.676 179.456 178.188C177.555 176.7 175.157 175.956 172.264 175.956C170.776 175.956 169.288 176.287 167.8 176.948C164.245 178.601 161.187 180.999 158.624 184.14C156.061 187.281 153.912 190.795 152.176 194.68C150.523 198.483 149.283 202.451 148.456 206.584C147.629 210.717 147.216 214.561 147.216 218.116C147.216 219.191 147.299 220.596 147.464 222.332C147.629 224.068 147.919 225.969 148.332 228.036C148.745 230.02 149.241 232.045 149.82 234.112C150.481 236.096 151.225 237.915 152.052 239.568C152.961 241.221 153.995 242.585 155.152 243.66C156.309 244.652 157.632 245.148 159.12 245.148ZM150.936 214.52C151.101 214.52 151.225 214.809 151.308 215.388C151.391 215.967 151.432 216.297 151.432 216.38C151.597 217.455 151.68 218.488 151.68 219.48C151.763 220.472 151.887 221.423 152.052 222.332C152.217 223.324 152.507 224.895 152.92 227.044C153.333 229.193 153.912 231.384 154.656 233.616C155.4 235.848 156.268 237.791 157.26 239.444C158.335 241.097 159.533 241.924 160.856 241.924C161.104 241.924 161.311 241.924 161.476 241.924C161.724 241.841 161.848 241.924 161.848 242.172C161.848 243.081 160.815 243.536 158.748 243.536C157.591 243.536 156.557 243.123 155.648 242.296C154.821 241.387 154.077 240.229 153.416 238.824C152.755 237.419 152.176 235.889 151.68 234.236C151.267 232.5 150.936 230.805 150.688 229.152C150.44 227.499 150.233 225.969 150.068 224.564C149.985 223.159 149.944 222.043 149.944 221.216C149.944 221.051 149.944 220.596 149.944 219.852C149.944 219.108 149.985 218.364 150.068 217.62C150.151 216.793 150.233 216.091 150.316 215.512C150.481 214.851 150.688 214.52 150.936 214.52ZM234.664 196.416C233.755 199.805 232.391 202.699 230.572 205.096C228.753 207.411 226.852 209.477 224.868 211.296C224.62 211.461 224.165 211.792 223.504 212.288C222.925 212.784 222.553 212.949 222.388 212.784C222.14 212.619 222.223 212.247 222.636 211.668C223.132 211.007 223.504 210.552 223.752 210.304C224.496 209.312 225.281 208.072 226.108 206.584C226.935 205.096 227.679 203.525 228.34 201.872C229.084 200.219 229.663 198.607 230.076 197.036C230.489 195.465 230.696 194.06 230.696 192.82C230.696 191.745 230.489 190.588 230.076 189.348C229.663 188.108 229.001 186.951 228.092 185.876C227.183 184.801 225.901 183.975 224.248 183.396C222.677 182.735 220.735 182.487 218.42 182.652C216.188 182.817 214.163 183.396 212.344 184.388C210.608 185.297 209.12 186.413 207.88 187.736C206.64 188.976 205.648 190.257 204.904 191.58C204.16 192.82 203.747 193.853 203.664 194.68C203.581 195.176 203.54 195.465 203.54 195.548C203.54 195.548 203.457 195.589 203.292 195.672C203.209 195.672 203.085 195.548 202.92 195.3C202.837 195.052 202.796 194.845 202.796 194.68C202.465 192.944 202.672 190.919 203.416 188.604C204.243 186.289 205.813 184.099 208.128 182.032C210.277 180.131 212.923 178.891 216.064 178.312C219.205 177.733 222.099 177.857 224.744 178.684C226.48 179.18 228.051 180.089 229.456 181.412C230.944 182.652 232.143 184.099 233.052 185.752C233.961 187.323 234.581 189.059 234.912 190.96C235.243 192.861 235.16 194.68 234.664 196.416ZM234.292 237.46C233.631 238.204 232.928 238.989 232.184 239.816C231.44 240.643 230.489 241.345 229.332 241.924C228.836 242.172 228.257 242.42 227.596 242.668C226.935 242.833 226.315 242.957 225.736 243.04C225.157 243.123 224.661 243.164 224.248 243.164C223.835 243.081 223.669 242.875 223.752 242.544C223.752 242.379 224 242.172 224.496 241.924C225.075 241.676 225.447 241.511 225.612 241.428C226.356 241.015 227.017 240.684 227.596 240.436C228.257 240.105 228.877 239.733 229.456 239.32C231.027 238.328 232.639 237.253 234.292 236.096C234.871 235.683 235.077 235.724 234.912 236.22C234.747 236.716 234.54 237.129 234.292 237.46ZM228.712 237.832C228.629 237.997 228.257 238.163 227.596 238.328C224.62 238.741 221.685 238.7 218.792 238.204C215.981 237.708 213.129 237.088 210.236 236.344C208.252 235.765 206.185 235.435 204.036 235.352C201.969 235.269 199.861 235.807 197.712 236.964C197.381 237.129 197.216 237.088 197.216 236.84C197.216 236.675 197.257 236.509 197.34 236.344C197.423 236.096 197.505 235.889 197.588 235.724C200.151 230.433 203.375 225.019 207.26 219.48C211.228 213.941 215.196 208.775 219.164 203.98C222.14 200.343 223.835 197.201 224.248 194.556C224.744 191.828 223.711 189.927 221.148 188.852C219.577 188.191 217.965 188.067 216.312 188.48C214.741 188.811 213.212 189.513 211.724 190.588C210.319 191.58 209.079 192.82 208.004 194.308C207.012 195.796 206.309 197.367 205.896 199.02C205.813 199.433 205.648 199.64 205.4 199.64C205.152 199.64 205.028 199.516 205.028 199.268V198.896C204.863 196.829 205.276 194.804 206.268 192.82C207.26 190.753 208.583 189.017 210.236 187.612C211.972 186.124 213.956 185.132 216.188 184.636C218.42 184.057 220.693 184.264 223.008 185.256C225.323 186.248 226.811 187.653 227.472 189.472C228.133 191.291 228.175 193.316 227.596 195.548C227.1 197.697 226.149 199.888 224.744 202.12C223.339 204.352 221.768 206.377 220.032 208.196C218.379 209.932 216.684 211.875 214.948 214.024C213.295 216.091 211.683 218.24 210.112 220.472C208.624 222.704 207.219 224.895 205.896 227.044C204.573 229.111 203.499 231.012 202.672 232.748C203.003 232.583 203.623 232.5 204.532 232.5C205.441 232.417 206.061 232.376 206.392 232.376C206.971 231.384 207.591 230.433 208.252 229.524C208.913 228.532 209.533 227.664 210.112 226.92C210.773 226.176 211.311 225.597 211.724 225.184C212.22 224.771 212.592 224.605 212.84 224.688C212.923 224.771 212.881 225.06 212.716 225.556C212.551 225.969 212.303 226.465 211.972 227.044C211.724 227.623 211.435 228.201 211.104 228.78C210.856 229.276 210.691 229.607 210.608 229.772L209.244 232.376C209.657 232.459 210.071 232.5 210.484 232.5C210.98 232.5 211.435 232.583 211.848 232.748C213.749 229.855 215.775 227.127 217.924 224.564C220.156 222.001 222.429 219.397 224.744 216.752C225.901 215.429 227.141 213.983 228.464 212.412C229.869 210.841 231.151 209.188 232.308 207.452C233.465 205.633 234.457 203.649 235.284 201.5C236.193 199.351 236.772 196.953 237.02 194.308C237.103 192.737 236.896 191.125 236.4 189.472C235.987 187.736 235.284 186.083 234.292 184.512C233.383 182.941 232.225 181.536 230.82 180.296C229.497 179.056 227.968 178.105 226.232 177.444C222.76 176.121 219.247 175.832 215.692 176.576C212.22 177.237 209.161 178.601 206.516 180.668C206.103 181.081 205.813 181.329 205.648 181.412C205.565 181.412 205.483 181.371 205.4 181.288C205.317 181.205 205.317 181.04 205.4 180.792C205.565 180.544 205.731 180.296 205.896 180.048C206.805 178.643 208.335 177.32 210.484 176.08C212.633 174.84 215.196 174.013 218.172 173.6C219.577 173.352 221.148 173.352 222.884 173.6C224.703 173.765 226.48 174.179 228.216 174.84C230.035 175.501 231.729 176.411 233.3 177.568C234.953 178.725 236.4 180.213 237.64 182.032C238.88 183.933 239.748 185.876 240.244 187.86C240.823 189.761 241.112 191.663 241.112 193.564C241.195 195.465 241.029 197.284 240.616 199.02C240.285 200.673 239.872 202.12 239.376 203.36C238.301 206.005 237.103 208.279 235.78 210.18C234.54 211.999 233.424 213.487 232.432 214.644C229.539 218.116 226.439 221.423 223.132 224.564C219.908 227.623 216.891 230.433 214.08 232.996C214.576 232.996 215.031 233.037 215.444 233.12C215.857 233.203 216.229 233.285 216.56 233.368C218.544 233.781 220.528 234.319 222.512 234.98C224.579 235.641 226.397 236.344 227.968 237.088C228.547 237.419 228.795 237.667 228.712 237.832ZM234.044 240.808C232.391 242.957 230.779 244.652 229.208 245.892C227.637 247.049 226.067 247.917 224.496 248.496C223.008 249.075 221.52 249.364 220.032 249.364C218.544 249.447 217.056 249.405 215.568 249.24C213.584 248.992 211.559 248.661 209.492 248.248C207.425 247.835 205.441 247.545 203.54 247.38C201.639 247.132 199.861 247.091 198.208 247.256C196.555 247.339 195.149 247.752 193.992 248.496C193.744 248.744 193.579 248.744 193.496 248.496C193.496 248.331 193.537 248.165 193.62 248C194.695 246.181 196.1 245.024 197.836 244.528C199.655 244.032 201.597 243.908 203.664 244.156C205.813 244.321 208.004 244.693 210.236 245.272C212.468 245.851 214.576 246.305 216.56 246.636C219.123 247.049 221.892 246.801 224.868 245.892C227.844 244.983 230.82 242.957 233.796 239.816C234.127 239.485 234.292 239.527 234.292 239.94C234.292 240.271 234.209 240.56 234.044 240.808ZM217.924 242.42C217.924 242.668 217.759 242.833 217.428 242.916C217.097 242.916 216.891 242.916 216.808 242.916C215.651 243.081 214.121 243.081 212.22 242.916C210.401 242.751 208.955 242.585 207.88 242.42C207.136 242.337 206.103 242.296 204.78 242.296C203.457 242.296 202.093 242.379 200.688 242.544C199.365 242.709 198.084 242.999 196.844 243.412C195.687 243.825 194.901 244.445 194.488 245.272C194.075 246.016 193.827 246.181 193.744 245.768C193.744 245.272 193.785 244.9 193.868 244.652C194.116 243.412 194.653 242.337 195.48 241.428C196.307 240.519 197.257 239.775 198.332 239.196C199.407 238.617 200.481 238.204 201.556 237.956C202.631 237.708 203.581 237.584 204.408 237.584C206.64 237.749 208.707 238.121 210.608 238.7C212.592 239.196 214.576 240.023 216.56 241.18C216.725 241.263 216.973 241.428 217.304 241.676C217.717 241.924 217.924 242.172 217.924 242.42Z" fill="#002294"/>
</g>
<g filter="url(#filter3_d)">
<path d="M134.871 327.078C134.515 327.205 134.223 327.269 133.995 327.269L133.157 335.114L130.034 335.419L128.244 315.348C129.335 314.992 130.795 314.675 132.624 314.396C134.452 314.091 136.204 313.938 137.879 313.938C140.545 313.938 142.678 314.434 144.278 315.424C144.633 316.541 144.811 317.569 144.811 318.509C144.811 321.124 143.313 323.295 140.317 325.021L145.535 334.962L143.364 336.181L134.871 327.078ZM138.793 319.385C138.793 317.912 138.146 316.77 136.851 315.957C136.343 315.957 135.785 316.071 135.175 316.3L134.223 325.288C135.67 324.628 136.788 323.752 137.575 322.66C138.387 321.568 138.793 320.477 138.793 319.385ZM154.447 318.166C159.474 320.172 161.988 322.686 161.988 325.707C161.988 327.281 161.543 328.411 160.655 329.097C159.766 329.782 158.344 330.125 156.389 330.125C154.459 330.125 153 330.011 152.009 329.782C151.628 330.747 151.425 331.763 151.4 332.829C152.339 332.956 153.647 333.02 155.323 333.02C156.999 333.02 158.801 332.689 160.731 332.029L161.645 335.038C160.122 335.521 158.42 335.762 156.542 335.762C153.165 335.762 150.689 335.14 149.115 333.896C148.785 332.423 148.62 331.039 148.62 329.744C148.62 327.129 149.191 324.768 150.333 322.66C151.501 320.527 152.873 319.029 154.447 318.166ZM152.619 328.335C152.873 328.36 153.545 328.373 154.637 328.373C155.754 328.373 157.024 328.221 158.446 327.916C158.497 327.535 158.535 327.142 158.56 326.735C158.56 325.491 158.205 324.298 157.494 323.155C155.412 324.526 153.787 326.253 152.619 328.335ZM173.947 321.365C173.185 321.365 172.525 321.518 171.966 321.822C171.687 323.244 171.547 324.717 171.547 326.24C171.547 329.465 171.763 331.572 172.195 332.562C173.185 332.385 174.239 331.712 175.356 330.544C175.965 329.909 176.46 329.008 176.841 327.84C177.248 326.672 177.451 325.326 177.451 323.803C177.451 323.549 177.425 323.092 177.375 322.432C176.41 321.721 175.267 321.365 173.947 321.365ZM176.232 341.855C174.15 341.855 172.017 341.132 169.833 339.685L170.671 338.123C172.525 338.936 174.061 339.342 175.28 339.342C176.499 339.342 177.387 339.012 177.946 338.352C178.53 337.717 178.822 336.866 178.822 335.8C178.822 335.47 178.606 333.159 178.174 328.868H177.908C176.359 333.007 173.744 335.076 170.062 335.076C169.554 335.076 169.135 335 168.805 334.848C168.043 334.086 167.421 332.969 166.939 331.496C166.482 329.998 166.253 328.183 166.253 326.05C166.253 323.917 166.736 322.305 167.701 321.213C168.666 320.096 170.341 319.537 172.728 319.537C174.48 319.537 175.991 319.943 177.26 320.756L177.946 319.842L183.963 318.966L181.792 336.409C181.589 338.085 181.005 339.405 180.041 340.37C179.076 341.36 177.806 341.855 176.232 341.855ZM189.867 335.457L188.305 319.994L194.97 319.004L192.952 335.19L189.867 335.457ZM189.257 316.566C188.699 315.982 188.419 315.297 188.419 314.51C188.419 313.697 188.699 313.012 189.257 312.453C189.841 311.895 190.527 311.615 191.314 311.615C192.101 311.615 192.774 311.895 193.333 312.453C193.917 313.012 194.208 313.697 194.208 314.51C194.208 315.297 193.917 315.982 193.333 316.566C192.774 317.125 192.101 317.404 191.314 317.404C190.527 317.404 189.841 317.125 189.257 316.566ZM198.969 324.717C198.969 322.051 200.378 319.613 203.197 317.404L208.3 320.87C205.99 322.343 204.834 323.892 204.834 325.517C204.834 326.38 205.304 327.497 206.244 328.868C207.208 330.239 207.691 331.306 207.691 332.067C207.691 334.784 205.812 336.892 202.054 338.39L200.683 336.523C202.333 335.635 203.159 334.67 203.159 333.629C203.159 332.562 202.46 331.255 201.064 329.706C200.531 329.122 200.048 328.386 199.617 327.497C199.185 326.583 198.969 325.656 198.969 324.717ZM214.889 335.457L213.556 322.889L210.662 323.27L210.471 320.07L213.213 319.918L212.756 315.576L220.526 314.51L219.878 319.575L223.001 319.423L222.887 321.518L219.574 321.975L217.974 335.19L214.889 335.457ZM230.961 318.166C235.989 320.172 238.502 322.686 238.502 325.707C238.502 327.281 238.058 328.411 237.169 329.097C236.281 329.782 234.859 330.125 232.904 330.125C230.974 330.125 229.514 330.011 228.524 329.782C228.143 330.747 227.94 331.763 227.915 332.829C228.854 332.956 230.162 333.02 231.837 333.02C233.513 333.02 235.316 332.689 237.246 332.029L238.16 335.038C236.636 335.521 234.935 335.762 233.056 335.762C229.679 335.762 227.204 335.14 225.629 333.896C225.299 332.423 225.134 331.039 225.134 329.744C225.134 327.129 225.706 324.768 226.848 322.66C228.016 320.527 229.387 319.029 230.961 318.166ZM229.133 328.335C229.387 328.36 230.06 328.373 231.152 328.373C232.269 328.373 233.539 328.221 234.96 327.916C235.011 327.535 235.049 327.142 235.075 326.735C235.075 325.491 234.719 324.298 234.008 323.155C231.926 324.526 230.301 326.253 229.133 328.335ZM252.137 324.717C250.715 324.717 249.636 325.212 248.9 326.202C248.189 327.192 247.656 329.008 247.3 331.648L246.881 335.19L243.796 335.457L242.235 319.994L248.9 318.966L248.252 323.955H248.481C250.157 320.375 252.277 318.471 254.841 318.242L253.965 324.869C253.204 324.768 252.594 324.717 252.137 324.717ZM134.966 376.243L137.479 387.555H137.784L142.24 376.357L144.792 377.043L139.422 389.649L138.241 397.114L135.118 397.419L134.166 390.487L127.958 377.119L134.966 376.243ZM157.932 384.317C159.607 386.272 160.445 388.494 160.445 390.982C160.445 393.471 159.95 395.223 158.96 396.238C157.97 397.254 156.142 397.762 153.476 397.762C150.81 397.762 148.74 397.152 147.268 395.934C146.252 390.957 146.836 386.92 149.02 383.822C150.391 381.918 151.597 380.699 152.638 380.166C154.618 381.182 156.383 382.565 157.932 384.317ZM156.332 394.372C156.662 393.103 156.827 391.63 156.827 389.954C156.827 388.278 156.408 386.628 155.57 385.003C153.844 385.917 152.409 387.313 151.267 389.192C150.149 391.046 149.591 392.925 149.591 394.829C150.251 394.956 151.203 395.02 152.447 395.02C153.717 395.02 155.012 394.804 156.332 394.372ZM172.976 393.344C173.737 392.354 174.258 391.274 174.537 390.106C174.842 388.938 174.994 387.923 174.994 387.06C174.994 386.196 174.88 384.508 174.651 381.994L181.316 381.004L179.298 397.19L176.213 397.457L175.604 391.554H175.375C173.826 395.667 171.376 397.724 168.024 397.724C167.517 397.724 167.098 397.635 166.768 397.457C165.701 396.188 164.978 394.004 164.597 390.906C164.216 387.809 164.025 384.724 164.025 381.651L170.233 381.194C169.878 384.825 169.688 387.542 169.662 389.345C169.662 391.147 169.814 393.103 170.119 395.21C171.262 394.956 172.214 394.334 172.976 393.344ZM195.408 386.717C193.986 386.717 192.907 387.212 192.171 388.202C191.46 389.192 190.927 391.008 190.571 393.648L190.152 397.19L187.067 397.457L185.506 381.994L192.171 380.966L191.523 385.955H191.752C193.428 382.375 195.548 380.471 198.112 380.242L197.236 386.869C196.475 386.768 195.865 386.717 195.408 386.717ZM199.94 386.717C199.94 384.051 201.35 381.613 204.168 379.404L209.271 382.87C206.961 384.343 205.806 385.892 205.806 387.517C205.806 388.38 206.275 389.497 207.215 390.868C208.18 392.239 208.662 393.306 208.662 394.067C208.662 396.784 206.783 398.892 203.025 400.39L201.654 398.523C203.305 397.635 204.13 396.67 204.13 395.629C204.13 394.562 203.432 393.255 202.035 391.706C201.502 391.122 201.02 390.386 200.588 389.497C200.156 388.583 199.94 387.656 199.94 386.717ZM218.526 380.166C223.554 382.172 226.067 384.686 226.067 387.707C226.067 389.281 225.623 390.411 224.734 391.097C223.846 391.782 222.424 392.125 220.469 392.125C218.539 392.125 217.079 392.011 216.089 391.782C215.708 392.747 215.505 393.763 215.479 394.829C216.419 394.956 217.727 395.02 219.402 395.02C221.078 395.02 222.881 394.689 224.811 394.029L225.725 397.038C224.201 397.521 222.5 397.762 220.621 397.762C217.244 397.762 214.769 397.14 213.194 395.896C212.864 394.423 212.699 393.039 212.699 391.744C212.699 389.129 213.271 386.768 214.413 384.66C215.581 382.527 216.952 381.029 218.526 380.166ZM216.698 390.335C216.952 390.36 217.625 390.373 218.717 390.373C219.834 390.373 221.104 390.221 222.525 389.916C222.576 389.535 222.614 389.142 222.64 388.735C222.64 387.491 222.284 386.298 221.573 385.155C219.491 386.526 217.866 388.253 216.698 390.335ZM231.514 397.457L229.952 375.71L236.617 374.682L234.599 397.19L231.514 397.457ZM249.033 373.615L250.176 378.947C248.271 379.607 246.926 380.737 246.139 382.337L251.28 382.07L251.166 384.127L248.081 384.584L246.558 397.19L243.473 397.457L242.216 385.498L239.588 385.879L239.359 382.68L242.178 382.565C242.33 379.772 243.066 377.64 244.387 376.167C245.707 374.669 247.256 373.818 249.033 373.615Z" fill="#3B3B3B"/>
</g>
<defs>
<filter id="filter0_d" x="0" y="3.05176e-05" width="391.279" height="559.35" filterUnits="userSpaceOnUse" color-interpolation-filters="sRGB">
<feFlood flood-opacity="0" result="BackgroundImageFix"/>
<feColorMatrix in="SourceAlpha" type="matrix" values="0 0 0 0 0 0 0 0 0 0 0 0 0 0 0 0 0 0 127 0"/>
<feOffset dx="6" dy="6"/>
<feGaussianBlur stdDeviation="8"/>
<feColorMatrix type="matrix" values="0 0 0 0 0 0 0 0 0 0 0 0 0 0 0 0 0 0 0.25 0"/>
<feBlend mode="normal" in2="BackgroundImageFix" result="effect1_dropShadow"/>
<feBlend mode="normal" in="SourceGraphic" in2="effect1_dropShadow" result="shape"/>
</filter>
<filter id="filter1_d" x="32.3369" y="32.3553" width="318.139" height="491.836" filterUnits="userSpaceOnUse" color-interpolation-filters="sRGB">
<feFlood flood-opacity="0" result="BackgroundImageFix"/>
<feColorMatrix in="SourceAlpha" type="matrix" values="0 0 0 0 0 0 0 0 0 0 0 0 0 0 0 0 0 0 127 0"/>
<feOffset dx="6" dy="6"/>
<feGaussianBlur stdDeviation="7.5"/>
<feColorMatrix type="matrix" values="0 0 0 0 0 0 0 0 0 0 0 0 0 0 0 0 0 0 0.25 0"/>
<feBlend mode="normal" in2="BackgroundImageFix" result="effect1_dropShadow"/>
<feBlend mode="normal" in="SourceGraphic" in2="effect1_dropShadow" result="shape"/>
</filter>
<filter id="filter2_d" x="140.62" y="172.112" width="103.513" height="85.2933" filterUnits="userSpaceOnUse" color-interpolation-filters="sRGB">
<feFlood flood-opacity="0" result="BackgroundImageFix"/>
<feColorMatrix in="SourceAlpha" type="matrix" values="0 0 0 0 0 0 0 0 0 0 0 0 0 0 0 0 0 0 127 0"/>
<feOffset dy="5"/>
<feGaussianBlur stdDeviation="1.5"/>
<feColorMatrix type="matrix" values="0 0 0 0 0 0 0 0 0 0 0 0 0 0 0 0 0 0 0.25 0"/>
<feBlend mode="normal" in2="BackgroundImageFix" result="effect1_dropShadow"/>
<feBlend mode="normal" in="SourceGraphic" in2="effect1_dropShadow" result="shape"/>
</filter>
<filter id="filter3_d" x="121.958" y="309.615" width="138.883" height="100.774" filterUnits="userSpaceOnUse" color-interpolation-filters="sRGB">
<feFlood flood-opacity="0" result="BackgroundImageFix"/>
<feColorMatrix in="SourceAlpha" type="matrix" values="0 0 0 0 0 0 0 0 0 0 0 0 0 0 0 0 0 0 127 0"/>
<feOffset dy="4"/>
<feGaussianBlur stdDeviation="3"/>
<feColorMatrix type="matrix" values="0 0 0 0 0 0 0 0 0 0 0 0 0 0 0 0 0 0 0.25 0"/>
<feBlend mode="normal" in2="BackgroundImageFix" result="effect1_dropShadow"/>
<feBlend mode="normal" in="SourceGraphic" in2="effect1_dropShadow" result="shape"/>
</filter>
<linearGradient id="paint0_linear" x1="9.99975" y1="273.675" x2="369.278" y2="273.675" gradientUnits="userSpaceOnUse">
<stop stop-color="#FFD600"/>
<stop offset="1" stop-color="#F7CF00"/>
</linearGradient>
</defs>
</svg>
