<svg width="392" height="560" viewBox="0 0 392 560" fill="none" xmlns="http://www.w3.org/2000/svg">
<g filter="url(#filter0_d)">
<path d="M68.7107 491.008L10.6912 127.192C6.36202 100.044 22.7536 73.8719 49.0683 65.9159L226.184 12.3719C257.123 3.01856 289.413 22.2466 295.933 53.9026L368.143 404.56C373.7 431.548 358.417 458.481 332.4 467.553L141.093 534.257C108.761 545.531 74.1027 524.821 68.7107 491.008Z" fill="url(#paint0_linear)"/>
</g>
<g filter="url(#filter1_d)">
<path d="M41.3622 450.565L51.9685 108.715C52.7595 83.2052 72.2735 62.2025 97.6562 59.5425L268.495 41.6385C298.336 38.5105 324.423 61.6799 324.842 91.6812L329.471 424.012C329.827 449.589 311.191 471.48 285.884 475.208L99.8109 502.635C68.3629 507.269 40.3762 482.337 41.3622 450.565" fill="white"/>
</g>
<path d="M157.758 131.136C157.758 127.767 159.56 124.646 163.163 121.775L169.755 126.17C166.767 128.045 165.272 130.037 165.272 132.146C165.272 133.025 165.565 133.963 166.151 134.959C166.767 135.926 167.382 136.893 167.997 137.859C168.612 138.826 168.92 139.734 168.92 140.584C168.92 144.041 166.518 146.722 161.713 148.626L159.999 146.297C161.171 145.652 161.977 145.037 162.416 144.451C162.885 143.836 163.119 143.162 163.119 142.43C163.119 141.697 162.841 140.892 162.284 140.013C161.728 139.104 161.112 138.284 160.438 137.552C159.765 136.79 159.149 135.838 158.593 134.695C158.036 133.523 157.758 132.337 157.758 131.136ZM172.919 123.533L191.288 123.05L191.2 125.467L186.146 125.994L183.905 147.132L179.994 147.483L178.148 126.785L173.139 127.269L172.919 123.533ZM210.932 147L196.825 147.308L195.155 123.577L211.063 123.094L210.932 125.511L203.329 126.39L202.406 133.86L210.053 133.772L210.229 137.024L202.099 136.409L201.132 144.451L211.063 143.309L210.932 147ZM217.084 124.324C220.424 123.24 223.822 122.698 227.279 122.698C230.736 122.698 233.373 123.27 235.189 124.412C235.6 125.701 235.819 126.932 235.849 128.104C235.849 130.857 234.706 133.172 232.421 135.047C230.136 136.922 227.206 138.27 223.632 139.09L222.753 147.132L219.149 147.483L217.084 124.324ZM228.905 129.158C228.905 127.312 228.158 125.936 226.664 125.027C226.254 125.027 225.727 125.115 225.082 125.291L223.852 136.629C225.434 135.75 226.664 134.622 227.543 133.245C228.451 131.868 228.905 130.506 228.905 129.158Z" fill="#002294"/>
<g filter="url(#filter2_d)">
<path d="M182.333 231.732C182.169 231.978 181.923 232.306 181.595 232.716C181.349 233.044 181.062 233.372 180.734 233.7C180.488 234.028 180.201 234.315 179.873 234.561C179.627 234.725 179.463 234.766 179.381 234.684C179.217 234.684 179.176 234.52 179.258 234.192C179.422 233.864 179.955 232.675 180.857 230.625C181.923 228.329 182.784 225.705 183.44 222.753C184.178 219.801 184.711 216.808 185.039 213.774C185.367 210.658 185.572 207.624 185.654 204.672C185.818 201.72 185.9 199.055 185.9 196.677C185.9 195.447 185.777 193.971 185.531 192.249C185.367 190.527 184.998 188.846 184.424 187.206C183.932 185.566 183.194 184.172 182.21 183.024C181.308 181.876 180.078 181.302 178.52 181.302C176.552 181.302 174.748 181.835 173.108 182.901C171.468 183.967 169.992 185.156 168.68 186.468C167.45 187.698 166.384 188.887 165.482 190.035C164.662 191.101 164.047 191.675 163.637 191.757C164.211 190.199 164.99 188.6 165.974 186.96C166.958 185.238 168.106 183.721 169.418 182.409C170.812 181.015 172.288 179.908 173.846 179.088C175.486 178.186 177.249 177.735 179.135 177.735C181.677 177.735 183.686 178.555 185.162 180.195C186.72 181.835 187.909 183.803 188.729 186.099C189.549 188.395 190.041 190.814 190.205 193.356C190.451 195.898 190.574 198.071 190.574 199.875C190.574 202.499 190.41 205.205 190.082 207.993C189.836 210.699 189.385 213.364 188.729 215.988C188.483 216.89 188.155 217.997 187.745 219.309C187.335 220.621 186.843 222.015 186.269 223.491C185.695 224.967 185.039 226.443 184.301 227.919C183.645 229.395 182.989 230.666 182.333 231.732ZM180.488 200.121C180.488 199.547 180.447 198.686 180.365 197.538C180.365 196.39 180.242 195.242 179.996 194.094C179.832 192.864 179.545 191.798 179.135 190.896C178.807 189.994 178.315 189.543 177.659 189.543C177.167 189.543 176.552 189.748 175.814 190.158C175.076 190.568 174.338 191.265 173.6 192.249C171.304 195.201 169.459 198.071 168.065 200.859C166.753 203.647 165.687 206.517 164.867 209.469C164.129 212.339 163.514 215.332 163.022 218.448C162.612 221.564 162.202 224.926 161.792 228.534C161.546 228.452 161.341 228.001 161.177 227.181C161.013 226.279 160.849 225.295 160.685 224.229C160.603 223.163 160.521 222.138 160.439 221.154C160.439 220.17 160.439 219.514 160.439 219.186C160.439 215.086 160.931 211.027 161.915 207.009C162.981 202.991 164.457 199.137 166.343 195.447C166.835 194.463 167.532 193.315 168.434 192.003C169.418 190.609 170.443 189.297 171.509 188.067C172.657 186.837 173.887 185.812 175.199 184.992C176.511 184.09 177.782 183.639 179.012 183.639C180.16 183.639 181.062 184.254 181.718 185.484C182.456 186.714 182.989 188.149 183.317 189.789C183.727 191.429 183.973 193.069 184.055 194.709C184.137 196.349 184.178 197.62 184.178 198.522C184.178 203.196 183.686 208.116 182.702 213.282C181.8 218.448 180.406 223.122 178.52 227.304C178.356 227.468 178.192 227.673 178.028 227.919C177.864 228.083 177.782 227.837 177.782 227.181C177.782 224.967 177.905 222.753 178.151 220.539C178.479 218.243 178.807 215.988 179.135 213.774C179.463 211.478 179.75 209.223 179.996 207.009C180.324 204.713 180.488 202.417 180.488 200.121ZM164.99 243.171C165.482 243.171 166.015 243.089 166.589 242.925C167.163 242.679 167.245 242.802 166.835 243.294C166.343 243.95 165.4 244.278 164.006 244.278C161.3 244.278 159.004 243.13 157.118 240.834C155.314 238.456 153.838 235.709 152.69 232.593C151.624 229.395 150.845 226.156 150.353 222.876C149.861 219.514 149.615 216.849 149.615 214.881C149.615 208.731 150.599 202.622 152.567 196.554C154.535 190.404 157.569 184.992 161.669 180.318C162.653 179.17 163.76 178.022 164.99 176.874C166.22 175.726 167.532 174.701 168.926 173.799C170.32 172.897 171.755 172.159 173.231 171.585C174.789 171.011 176.388 170.724 178.028 170.724C181.718 170.724 184.752 171.585 187.13 173.307C189.59 174.947 191.517 177.079 192.911 179.703C194.387 182.245 195.412 185.115 195.986 188.313C196.642 191.429 196.97 194.463 196.97 197.415C196.97 200.285 196.724 203.319 196.232 206.517C195.822 209.715 195.207 212.913 194.387 216.111C193.567 219.227 192.583 222.302 191.435 225.336C190.287 228.288 189.016 231.035 187.622 233.577C185.572 237.267 183.071 240.26 180.119 242.556C177.167 244.852 173.518 246 169.172 246C168.844 246 168.27 246 167.45 246C166.712 245.918 166.22 245.795 165.974 245.631L165.236 245.262C164.908 245.098 165.154 245.016 165.974 245.016C169.008 245.18 171.796 244.524 174.338 243.048C176.88 241.49 179.135 239.399 181.103 236.775C183.071 234.151 184.793 231.158 186.269 227.796C187.745 224.352 188.975 220.826 189.959 217.218C190.943 213.61 191.64 210.043 192.05 206.517C192.542 202.991 192.788 199.793 192.788 196.923C192.788 194.627 192.542 192.167 192.05 189.543C191.64 186.919 190.861 184.5 189.713 182.286C188.647 180.072 187.13 178.227 185.162 176.751C183.276 175.275 180.898 174.537 178.028 174.537C176.552 174.537 175.076 174.865 173.6 175.521C170.074 177.161 167.04 179.539 164.498 182.655C161.956 185.771 159.824 189.256 158.102 193.11C156.462 196.882 155.232 200.818 154.412 204.918C153.592 209.018 153.182 212.831 153.182 216.357C153.182 217.423 153.264 218.817 153.428 220.539C153.592 222.261 153.879 224.147 154.289 226.197C154.699 228.165 155.191 230.174 155.765 232.224C156.421 234.192 157.159 235.996 157.979 237.636C158.881 239.276 159.906 240.629 161.054 241.695C162.202 242.679 163.514 243.171 164.99 243.171ZM156.872 212.79C157.036 212.79 157.159 213.077 157.241 213.651C157.323 214.225 157.364 214.553 157.364 214.635C157.528 215.701 157.61 216.726 157.61 217.71C157.692 218.694 157.815 219.637 157.979 220.539C158.143 221.523 158.43 223.081 158.84 225.213C159.25 227.345 159.824 229.518 160.562 231.732C161.3 233.946 162.161 235.873 163.145 237.513C164.211 239.153 165.4 239.973 166.712 239.973C166.958 239.973 167.163 239.973 167.327 239.973C167.573 239.891 167.696 239.973 167.696 240.219C167.696 241.121 166.671 241.572 164.621 241.572C163.473 241.572 162.448 241.162 161.546 240.342C160.726 239.44 159.988 238.292 159.332 236.898C158.676 235.504 158.102 233.987 157.61 232.347C157.2 230.625 156.872 228.944 156.626 227.304C156.38 225.664 156.175 224.147 156.011 222.753C155.929 221.359 155.888 220.252 155.888 219.432C155.888 219.268 155.888 218.817 155.888 218.079C155.888 217.341 155.929 216.603 156.011 215.865C156.093 215.045 156.175 214.348 156.257 213.774C156.421 213.118 156.626 212.79 156.872 212.79ZM226.887 194.832C226.805 194.914 226.6 195.119 226.272 195.447C225.944 195.693 225.657 195.734 225.411 195.57C225.247 195.406 225.206 195.16 225.288 194.832C225.37 194.422 225.452 194.176 225.534 194.094C226.19 192.782 226.682 191.183 227.01 189.297C227.338 187.329 227.297 185.771 226.887 184.623C226.395 183.065 225.37 182.04 223.812 181.548C222.336 180.974 220.655 180.851 218.769 181.179C216.965 181.425 215.243 182.081 213.603 183.147C211.963 184.213 210.774 185.607 210.036 187.329C209.954 187.493 209.831 187.616 209.667 187.698C209.585 187.78 209.503 187.739 209.421 187.575C209.257 187.411 209.175 187.165 209.175 186.837C209.175 185.443 209.544 184.09 210.282 182.778C211.102 181.466 212.127 180.318 213.357 179.334C214.587 178.268 215.981 177.489 217.539 176.997C219.097 176.423 220.696 176.177 222.336 176.259C224.878 176.505 226.805 177.325 228.117 178.719C229.511 180.113 230.372 181.753 230.7 183.639C231.028 185.525 230.864 187.493 230.208 189.543C229.552 191.593 228.445 193.356 226.887 194.832ZM222.828 192.864C221.598 194.996 220.204 197.251 218.646 199.629C217.088 201.925 215.612 204.672 214.218 207.87C213.89 208.116 213.603 208.321 213.357 208.485C213.193 208.649 212.988 208.854 212.742 209.1C213.89 205.492 215.202 202.171 216.678 199.137C218.236 196.103 219.466 193.561 220.368 191.511C221.434 189.215 221.598 187.821 220.86 187.329C220.204 186.837 219.179 186.837 217.785 187.329C216.473 187.739 215.079 188.395 213.603 189.297C212.209 190.199 211.266 190.896 210.774 191.388C210.446 191.716 210.2 191.757 210.036 191.511V190.896C210.856 188.272 212.455 186.222 214.833 184.746C217.211 183.27 219.548 182.737 221.844 183.147C222.992 183.393 223.771 183.844 224.181 184.5C224.673 185.156 224.919 185.976 224.919 186.96C224.919 187.862 224.714 188.846 224.304 189.912C223.894 190.896 223.402 191.88 222.828 192.864ZM239.187 219.924C239.433 222.548 239.31 225.008 238.818 227.304C238.408 229.6 237.793 231.691 236.973 233.577C236.153 235.381 235.251 236.98 234.267 238.374C233.365 239.686 232.545 240.711 231.807 241.449C230.085 243.171 227.994 244.524 225.534 245.508C223.156 246.41 220.696 246.984 218.154 247.23C215.612 247.476 213.193 247.476 210.897 247.23C208.683 246.984 206.879 246.574 205.485 246C204.419 245.59 203.968 245.139 204.132 244.647C204.214 244.401 204.46 244.36 204.87 244.524C205.28 244.606 205.649 244.688 205.977 244.77C209.093 245.18 212.168 245.098 215.202 244.524C218.318 243.868 221.147 242.761 223.689 241.203C226.313 239.645 228.609 237.677 230.577 235.299C232.627 232.921 234.144 230.133 235.128 226.935C235.702 225.049 235.825 222.712 235.497 219.924C235.251 217.136 234.39 214.594 232.914 212.298C231.52 209.92 229.429 208.157 226.641 207.009C223.853 205.779 220.286 205.861 215.94 207.255C216.268 206.681 216.678 206.066 217.17 205.41C217.662 204.672 218.113 204.057 218.523 203.565C219.015 202.991 219.425 202.54 219.753 202.212C220.163 201.884 220.45 201.761 220.614 201.843C220.778 202.007 220.778 202.376 220.614 202.95C220.45 203.524 220.245 204.016 219.999 204.426C220.573 204.262 221.229 204.18 221.967 204.18C222.787 204.18 223.402 204.18 223.812 204.18C224.96 202.95 226.108 201.679 227.256 200.367C228.404 199.055 229.429 197.62 230.331 196.062C231.315 194.422 232.053 192.659 232.545 190.773C233.037 188.805 233.242 186.55 233.16 184.008C233.078 182.45 232.668 181.097 231.93 179.949C231.274 178.801 230.413 177.858 229.347 177.12C228.363 176.382 227.256 175.808 226.026 175.398C224.878 174.988 223.771 174.742 222.705 174.66C220.573 174.496 218.687 174.66 217.047 175.152C215.407 175.644 213.849 176.341 212.373 177.243C211.963 177.571 211.717 177.694 211.635 177.612C211.553 177.448 211.553 177.284 211.635 177.12C211.799 176.956 211.922 176.792 212.004 176.628C212.414 175.89 213.234 175.111 214.464 174.291C215.776 173.389 217.293 172.733 219.015 172.323C220.819 171.831 222.787 171.667 224.919 171.831C227.051 171.995 229.183 172.733 231.315 174.045C234.103 175.767 235.907 178.022 236.727 180.81C237.547 183.598 237.67 186.509 237.096 189.543C236.522 192.495 235.374 195.406 233.652 198.276C232.012 201.064 230.085 203.319 227.871 205.041C230.577 205.943 233.037 207.706 235.251 210.33C237.547 212.954 238.859 216.152 239.187 219.924ZM231.807 213.651C233.119 216.029 233.734 218.448 233.652 220.908C233.652 223.368 233.201 225.664 232.299 227.796C231.479 229.928 230.331 231.855 228.855 233.577C227.461 235.217 225.985 236.447 224.427 237.267C224.263 237.431 223.894 237.595 223.32 237.759C222.746 237.923 222.418 237.923 222.336 237.759C222.254 237.595 222.336 237.308 222.582 236.898C222.91 236.488 223.156 236.201 223.32 236.037C223.812 235.463 224.345 234.725 224.919 233.823C225.575 232.921 226.19 231.937 226.764 230.871C227.338 229.805 227.83 228.739 228.24 227.673C228.65 226.607 228.937 225.623 229.101 224.721C229.183 224.475 229.224 223.942 229.224 223.122C229.224 222.302 229.142 221.359 228.978 220.293C228.814 219.227 228.445 218.12 227.871 216.972C227.379 215.824 226.6 214.799 225.534 213.897C224.386 212.995 223.156 212.421 221.844 212.175C220.532 211.847 219.302 211.724 218.154 211.806C217.006 211.888 215.94 212.134 214.956 212.544C214.054 212.872 213.439 213.241 213.111 213.651C212.701 214.061 212.496 214.102 212.496 213.774C212.496 213.446 212.537 213.159 212.619 212.913C213.111 211.683 214.095 210.576 215.571 209.592C217.129 208.526 218.974 207.911 221.106 207.747C223.238 207.665 225.329 208.239 227.379 209.469C229.429 210.699 230.905 212.093 231.807 213.651ZM226.026 217.341C226.764 218.981 227.01 220.785 226.764 222.753C226.6 224.639 226.026 226.566 225.042 228.534C224.058 230.42 222.746 232.183 221.106 233.823C219.466 235.463 217.58 236.775 215.448 237.759C213.398 238.743 211.143 239.317 208.683 239.481C206.223 239.563 203.722 239.03 201.18 237.882C200.688 237.636 200.483 237.226 200.565 236.652C200.647 236.078 201.016 235.955 201.672 236.283C204.214 237.431 206.838 237.513 209.544 236.529C212.332 235.545 214.792 234.069 216.924 232.101C219.138 230.133 220.778 227.96 221.844 225.582C222.992 223.122 223.197 220.99 222.459 219.186C221.803 217.628 220.409 216.644 218.277 216.234C216.227 215.824 214.3 216.398 212.496 217.956C212.086 218.284 211.881 218.325 211.881 218.079C211.963 217.833 212.086 217.587 212.25 217.341C212.988 216.029 213.972 215.045 215.202 214.389C216.514 213.733 217.867 213.405 219.261 213.405C220.655 213.323 221.967 213.61 223.197 214.266C224.427 214.922 225.37 215.947 226.026 217.341ZM214.587 241.572C214.587 241.982 214.013 242.392 212.865 242.802C211.717 243.13 210.774 243.335 210.036 243.417C207.658 243.581 205.772 243.458 204.378 243.048C202.984 242.556 201.508 241.736 199.95 240.588C199.376 240.096 199.048 239.768 198.966 239.604C198.884 239.44 198.925 239.358 199.089 239.358C199.253 239.276 199.458 239.276 199.704 239.358C200.032 239.44 200.319 239.522 200.565 239.604C201.877 240.26 203.353 240.711 204.993 240.957C206.633 241.121 208.15 241.244 209.544 241.326C210.938 241.326 212.127 241.326 213.111 241.326C214.095 241.326 214.587 241.408 214.587 241.572Z" fill="#002294"/>
</g>
<g filter="url(#filter3_d)">
<path d="M93.1797 294.309C93.1797 291.613 94.6211 289.117 97.5039 286.82L102.777 290.336C100.387 291.836 99.1914 293.43 99.1914 295.117C99.1914 295.82 99.4258 296.57 99.8945 297.367C100.387 298.141 100.879 298.914 101.371 299.688C101.863 300.461 102.109 301.188 102.109 301.867C102.109 304.633 100.188 306.777 96.3438 308.301L94.9727 306.438C95.9102 305.922 96.5547 305.43 96.9062 304.961C97.2812 304.469 97.4688 303.93 97.4688 303.344C97.4688 302.758 97.2461 302.113 96.8008 301.41C96.3555 300.684 95.8633 300.027 95.3242 299.441C94.7852 298.832 94.293 298.07 93.8477 297.156C93.4023 296.219 93.1797 295.27 93.1797 294.309ZM114.309 303.625C115.012 302.711 115.492 301.715 115.75 300.637C116.031 299.559 116.172 298.621 116.172 297.824C116.172 297.027 116.066 295.469 115.855 293.148L122.008 292.234L120.145 307.176L117.297 307.422L116.734 301.973H116.523C115.094 305.77 112.832 307.668 109.738 307.668C109.27 307.668 108.883 307.586 108.578 307.422C107.594 306.25 106.926 304.234 106.574 301.375C106.223 298.516 106.047 295.668 106.047 292.832L111.777 292.41C111.449 295.762 111.273 298.27 111.25 299.934C111.25 301.598 111.391 303.402 111.672 305.348C112.727 305.113 113.605 304.539 114.309 303.625ZM137.371 291.918C137.699 291.918 138.039 291.988 138.391 292.129C139.094 292.949 139.656 294.191 140.078 295.855C140.523 297.52 140.746 299.383 140.746 301.445C140.746 303.484 140.23 305.043 139.199 306.121C138.191 307.176 136.457 307.703 133.996 307.703C131.559 307.703 129.344 307.199 127.352 306.191L126.016 287.348L132.168 286.398L131.113 297.93H131.359C132.133 296.102 133.047 294.648 134.102 293.57C135.156 292.469 136.246 291.918 137.371 291.918ZM130.41 305.77C130.926 305.816 131.664 305.84 132.625 305.84C133.586 305.84 134.523 305.734 135.438 305.523C135.719 304.047 135.859 302.641 135.859 301.305C135.859 298.305 135.672 296.324 135.297 295.363C132.836 296.348 131.207 299.816 130.41 305.77ZM144.824 297.508C144.824 295.047 146.125 292.797 148.727 290.758L153.438 293.957C151.305 295.316 150.238 296.746 150.238 298.246C150.238 299.043 150.672 300.074 151.539 301.34C152.43 302.605 152.875 303.59 152.875 304.293C152.875 306.801 151.141 308.746 147.672 310.129L146.406 308.406C147.93 307.586 148.691 306.695 148.691 305.734C148.691 304.75 148.047 303.543 146.758 302.113C146.266 301.574 145.82 300.895 145.422 300.074C145.023 299.23 144.824 298.375 144.824 297.508ZM161.699 305.172C163.527 305.172 165.262 304.867 166.902 304.258L167.781 307.035C166.422 307.48 165.004 307.703 163.527 307.703C162.051 307.703 160.738 307.539 159.59 307.211C158.465 306.906 157.621 306.496 157.059 305.98C156.777 304.598 156.625 303.32 156.602 302.148C156.602 299.758 157.141 297.578 158.219 295.609C159.32 293.641 160.574 292.258 161.98 291.461L166.973 294.73C164.559 296.043 162.648 297.602 161.242 299.406C159.859 301.188 159.168 303.051 159.168 304.996C159.988 305.113 160.832 305.172 161.699 305.172ZM179.418 297.508C178.105 297.508 177.109 297.965 176.43 298.879C175.773 299.793 175.281 301.469 174.953 303.906L174.566 307.176L171.719 307.422L170.277 293.148L176.43 292.199L175.832 296.805H176.043C177.59 293.5 179.547 291.742 181.914 291.531L181.105 297.648C180.402 297.555 179.84 297.508 179.418 297.508ZM185.359 307.422L183.918 293.148L190.07 292.234L188.207 307.176L185.359 307.422ZM184.797 289.984C184.281 289.445 184.023 288.812 184.023 288.086C184.023 287.336 184.281 286.703 184.797 286.188C185.336 285.672 185.969 285.414 186.695 285.414C187.422 285.414 188.043 285.672 188.559 286.188C189.098 286.703 189.367 287.336 189.367 288.086C189.367 288.812 189.098 289.445 188.559 289.984C188.043 290.5 187.422 290.758 186.695 290.758C185.969 290.758 185.336 290.5 184.797 289.984ZM205.434 291.918C205.762 291.918 206.102 291.988 206.453 292.129C207.156 292.949 207.719 294.191 208.141 295.855C208.586 297.52 208.809 299.383 208.809 301.445C208.809 303.484 208.293 305.043 207.262 306.121C206.254 307.176 204.52 307.703 202.059 307.703C199.621 307.703 197.406 307.199 195.414 306.191L194.078 287.348L200.23 286.398L199.176 297.93H199.422C200.195 296.102 201.109 294.648 202.164 293.57C203.219 292.469 204.309 291.918 205.434 291.918ZM198.473 305.77C198.988 305.816 199.727 305.84 200.688 305.84C201.648 305.84 202.586 305.734 203.5 305.523C203.781 304.047 203.922 302.641 203.922 301.305C203.922 298.305 203.734 296.324 203.359 295.363C200.898 296.348 199.27 299.816 198.473 305.77ZM217.984 291.461C222.625 293.312 224.945 295.633 224.945 298.422C224.945 299.875 224.535 300.918 223.715 301.551C222.895 302.184 221.582 302.5 219.777 302.5C217.996 302.5 216.648 302.395 215.734 302.184C215.383 303.074 215.195 304.012 215.172 304.996C216.039 305.113 217.246 305.172 218.793 305.172C220.34 305.172 222.004 304.867 223.785 304.258L224.629 307.035C223.223 307.48 221.652 307.703 219.918 307.703C216.801 307.703 214.516 307.129 213.062 305.98C212.758 304.621 212.605 303.344 212.605 302.148C212.605 299.734 213.133 297.555 214.188 295.609C215.266 293.641 216.531 292.258 217.984 291.461ZM216.297 300.848C216.531 300.871 217.152 300.883 218.16 300.883C219.191 300.883 220.363 300.742 221.676 300.461C221.723 300.109 221.758 299.746 221.781 299.371C221.781 298.223 221.453 297.121 220.797 296.066C218.875 297.332 217.375 298.926 216.297 300.848ZM239.465 307.422L238.234 295.82L235.562 296.172L235.387 293.219L237.918 293.078L237.496 289.07L244.668 288.086L244.07 292.762L246.953 292.621L246.848 294.555L243.789 294.977L242.312 307.176L239.465 307.422ZM259.223 295.293C260.77 297.098 261.543 299.148 261.543 301.445C261.543 303.742 261.086 305.359 260.172 306.297C259.258 307.234 257.57 307.703 255.109 307.703C252.648 307.703 250.738 307.141 249.379 306.016C248.441 301.422 248.98 297.695 250.996 294.836C252.262 293.078 253.375 291.953 254.336 291.461C256.164 292.398 257.793 293.676 259.223 295.293ZM257.746 304.574C258.051 303.402 258.203 302.043 258.203 300.496C258.203 298.949 257.816 297.426 257.043 295.926C255.449 296.77 254.125 298.059 253.07 299.793C252.039 301.504 251.523 303.238 251.523 304.996C252.133 305.113 253.012 305.172 254.16 305.172C255.332 305.172 256.527 304.973 257.746 304.574ZM275.43 307.668C275.102 307.668 274.867 307.656 274.727 307.633C274.07 307.188 273.543 306.531 273.145 305.664C272.77 304.797 272.582 303.824 272.582 302.746C272.582 301.645 273.039 300.824 273.953 300.285C274.891 299.723 276.602 299.441 279.086 299.441C280 299.441 280.973 299.5 282.004 299.617L281.934 298.984C281.863 298.211 281.5 297.602 280.844 297.156C280.188 296.711 279.344 296.488 278.312 296.488C277.305 296.488 276.297 296.805 275.289 297.438L274.023 293.289C275.664 292.609 277.539 292.27 279.648 292.27C281.758 292.27 283.422 292.75 284.641 293.711C285.883 294.648 286.504 296.125 286.504 298.141C286.504 298.609 286.48 298.973 286.434 299.23L285.66 307.176L282.777 307.422L282.355 303.273H282.145C281.488 304.656 280.574 305.734 279.402 306.508C278.254 307.281 276.93 307.668 275.43 307.668ZM282.109 300.848L280.598 300.812C279.332 300.812 278.289 300.883 277.469 301.023C277.211 301.562 277.082 302.043 277.082 302.465C277.082 302.887 277.129 303.297 277.223 303.695C277.34 304.07 277.469 304.316 277.609 304.434C279.906 304.082 281.406 302.887 282.109 300.848ZM142.697 427.652C142.018 429.316 141.314 430.477 140.588 431.133C139.861 431.789 138.9 432.117 137.705 432.117C136.533 432.117 135.42 431.684 134.365 430.816L135.209 429.34C135.842 429.574 136.533 429.691 137.283 429.691C138.057 429.691 138.748 429.434 139.357 428.918C139.99 428.426 140.389 427.676 140.553 426.668L134.576 412.148L140.729 411.234L142.662 422.273H142.873L146.6 411.305L148.92 411.938L142.697 427.652ZM161.506 414.293C163.053 416.098 163.826 418.148 163.826 420.445C163.826 422.742 163.369 424.359 162.455 425.297C161.541 426.234 159.854 426.703 157.393 426.703C154.932 426.703 153.021 426.141 151.662 425.016C150.725 420.422 151.264 416.695 153.279 413.836C154.545 412.078 155.658 410.953 156.619 410.461C158.447 411.398 160.076 412.676 161.506 414.293ZM160.029 423.574C160.334 422.402 160.486 421.043 160.486 419.496C160.486 417.949 160.1 416.426 159.326 414.926C157.732 415.77 156.408 417.059 155.354 418.793C154.322 420.504 153.807 422.238 153.807 423.996C154.416 424.113 155.295 424.172 156.443 424.172C157.615 424.172 158.811 423.973 160.029 423.574ZM175.393 422.625C176.096 421.711 176.576 420.715 176.834 419.637C177.115 418.559 177.256 417.621 177.256 416.824C177.256 416.027 177.15 414.469 176.939 412.148L183.092 411.234L181.229 426.176L178.381 426.422L177.818 420.973H177.607C176.178 424.77 173.916 426.668 170.822 426.668C170.354 426.668 169.967 426.586 169.662 426.422C168.678 425.25 168.01 423.234 167.658 420.375C167.307 417.516 167.131 414.668 167.131 411.832L172.861 411.41C172.533 414.762 172.357 417.27 172.334 418.934C172.334 420.598 172.475 422.402 172.756 424.348C173.811 424.113 174.689 423.539 175.393 422.625ZM197.154 426.422L195.713 406.348L201.865 405.398L200.002 426.176L197.154 426.422ZM207.314 426.422L205.873 412.148L212.025 411.234L210.162 426.176L207.314 426.422ZM206.752 408.984C206.236 408.445 205.979 407.812 205.979 407.086C205.979 406.336 206.236 405.703 206.752 405.188C207.291 404.672 207.924 404.414 208.65 404.414C209.377 404.414 209.998 404.672 210.514 405.188C211.053 405.703 211.322 406.336 211.322 407.086C211.322 407.812 211.053 408.445 210.514 408.984C209.998 409.5 209.377 409.758 208.65 409.758C207.924 409.758 207.291 409.5 206.752 408.984ZM229.146 412.043L224.682 416.719L230.939 426.07L225.455 426.422L221.869 419.707L220.814 420.691L220.322 426.176L217.475 426.422L216.033 406.348L222.186 405.398L221.096 417.809L227.213 410.566L229.146 412.043ZM238.006 410.461C242.646 412.312 244.967 414.633 244.967 417.422C244.967 418.875 244.557 419.918 243.736 420.551C242.916 421.184 241.604 421.5 239.799 421.5C238.018 421.5 236.67 421.395 235.756 421.184C235.404 422.074 235.217 423.012 235.193 423.996C236.061 424.113 237.268 424.172 238.814 424.172C240.361 424.172 242.025 423.867 243.807 423.258L244.65 426.035C243.244 426.48 241.674 426.703 239.939 426.703C236.822 426.703 234.537 426.129 233.084 424.98C232.779 423.621 232.627 422.344 232.627 421.148C232.627 418.734 233.154 416.555 234.209 414.609C235.287 412.641 236.553 411.258 238.006 410.461ZM236.318 419.848C236.553 419.871 237.174 419.883 238.182 419.883C239.213 419.883 240.385 419.742 241.697 419.461C241.744 419.109 241.779 418.746 241.803 418.371C241.803 417.223 241.475 416.121 240.818 415.066C238.896 416.332 237.396 417.926 236.318 419.848Z" fill="#3B3B3B"/>
<path d="M132.145 354.68L130.964 346.377L135.382 345.958L134.506 354.604L132.145 354.68ZM144.903 366.715C147.087 366.715 149.182 366.334 151.188 365.572L152.254 368.962C150.578 369.495 148.864 369.762 147.112 369.762C145.36 369.762 143.799 369.571 142.428 369.19C141.082 368.81 140.041 368.314 139.305 367.705C138.949 365.953 138.784 364.227 138.81 362.525C138.81 359.047 139.457 355.898 140.752 353.08C142.072 350.236 143.583 348.256 145.284 347.139L151.302 350.947C148.433 352.775 146.147 355.111 144.446 357.955C142.771 360.799 141.933 363.643 141.933 366.486C142.821 366.639 143.812 366.715 144.903 366.715ZM164.975 356.317C166.65 358.272 167.488 360.494 167.488 362.982C167.488 365.471 166.993 367.223 166.003 368.238C165.013 369.254 163.185 369.762 160.519 369.762C157.853 369.762 155.783 369.152 154.311 367.934C153.295 362.957 153.879 358.92 156.062 355.822C157.434 353.918 158.64 352.699 159.681 352.166C161.661 353.182 163.426 354.565 164.975 356.317ZM163.375 366.372C163.705 365.103 163.87 363.63 163.87 361.954C163.87 360.278 163.451 358.628 162.613 357.003C160.887 357.917 159.452 359.313 158.31 361.192C157.192 363.046 156.634 364.925 156.634 366.829C157.294 366.956 158.246 367.02 159.49 367.02C160.76 367.02 162.055 366.804 163.375 366.372ZM180.019 365.344C180.78 364.354 181.301 363.274 181.58 362.106C181.885 360.938 182.037 359.923 182.037 359.06C182.037 358.196 181.923 356.508 181.694 353.994L188.359 353.004L186.341 369.19L183.256 369.457L182.646 363.554H182.418C180.869 367.667 178.419 369.724 175.067 369.724C174.56 369.724 174.141 369.635 173.811 369.457C172.744 368.188 172.021 366.004 171.64 362.906C171.259 359.809 171.068 356.724 171.068 353.651L177.276 353.194C176.921 356.825 176.73 359.542 176.705 361.345C176.705 363.147 176.857 365.103 177.162 367.21C178.305 366.956 179.257 366.334 180.019 365.344ZM202.451 358.717C201.029 358.717 199.95 359.212 199.214 360.202C198.503 361.192 197.97 363.008 197.614 365.648L197.195 369.19L194.11 369.457L192.549 353.994L199.214 352.966L198.566 357.955H198.795C200.471 354.375 202.591 352.471 205.155 352.242L204.279 358.869C203.518 358.768 202.908 358.717 202.451 358.717ZM206.983 358.717C206.983 356.051 208.393 353.613 211.211 351.404L216.314 354.87C214.004 356.343 212.849 357.892 212.849 359.517C212.849 360.38 213.318 361.497 214.258 362.868C215.223 364.239 215.705 365.306 215.705 366.067C215.705 368.784 213.826 370.892 210.068 372.39L208.697 370.523C210.348 369.635 211.173 368.67 211.173 367.629C211.173 366.562 210.475 365.255 209.078 363.706C208.545 363.122 208.062 362.386 207.631 361.497C207.199 360.583 206.983 359.656 206.983 358.717ZM225.569 352.166C230.597 354.172 233.11 356.686 233.11 359.707C233.11 361.281 232.666 362.411 231.777 363.097C230.889 363.782 229.467 364.125 227.512 364.125C225.582 364.125 224.122 364.011 223.132 363.782C222.751 364.747 222.548 365.763 222.522 366.829C223.462 366.956 224.77 367.02 226.445 367.02C228.121 367.02 229.924 366.689 231.854 366.029L232.768 369.038C231.244 369.521 229.543 369.762 227.664 369.762C224.287 369.762 221.812 369.14 220.237 367.896C219.907 366.423 219.742 365.039 219.742 363.744C219.742 361.129 220.313 358.768 221.456 356.66C222.624 354.527 223.995 353.029 225.569 352.166ZM223.741 362.335C223.995 362.36 224.668 362.373 225.76 362.373C226.877 362.373 228.146 362.221 229.568 361.916C229.619 361.535 229.657 361.142 229.683 360.735C229.683 359.491 229.327 358.298 228.616 357.155C226.534 358.526 224.909 360.253 223.741 362.335ZM237.224 354.68L236.043 346.377L240.461 345.958L239.585 354.604L237.224 354.68Z" fill="#0016D9"/>
</g>
<defs>
<filter id="filter0_d" x="0" y="3.05176e-05" width="391.279" height="559.35" filterUnits="userSpaceOnUse" color-interpolation-filters="sRGB">
<feFlood flood-opacity="0" result="BackgroundImageFix"/>
<feColorMatrix in="SourceAlpha" type="matrix" values="0 0 0 0 0 0 0 0 0 0 0 0 0 0 0 0 0 0 127 0"/>
<feOffset dx="6" dy="6"/>
<feGaussianBlur stdDeviation="8"/>
<feColorMatrix type="matrix" values="0 0 0 0 0 0 0 0 0 0 0 0 0 0 0 0 0 0 0.25 0"/>
<feBlend mode="normal" in2="BackgroundImageFix" result="effect1_dropShadow"/>
<feBlend mode="normal" in="SourceGraphic" in2="effect1_dropShadow" result="shape"/>
</filter>
<filter id="filter1_d" x="32.3369" y="32.3553" width="318.139" height="491.836" filterUnits="userSpaceOnUse" color-interpolation-filters="sRGB">
<feFlood flood-opacity="0" result="BackgroundImageFix"/>
<feColorMatrix in="SourceAlpha" type="matrix" values="0 0 0 0 0 0 0 0 0 0 0 0 0 0 0 0 0 0 127 0"/>
<feOffset dx="6" dy="6"/>
<feGaussianBlur stdDeviation="7.5"/>
<feColorMatrix type="matrix" values="0 0 0 0 0 0 0 0 0 0 0 0 0 0 0 0 0 0 0.25 0"/>
<feBlend mode="normal" in2="BackgroundImageFix" result="effect1_dropShadow"/>
<feBlend mode="normal" in="SourceGraphic" in2="effect1_dropShadow" result="shape"/>
</filter>
<filter id="filter2_d" x="146.615" y="170.724" width="95.6949" height="84.6905" filterUnits="userSpaceOnUse" color-interpolation-filters="sRGB">
<feFlood flood-opacity="0" result="BackgroundImageFix"/>
<feColorMatrix in="SourceAlpha" type="matrix" values="0 0 0 0 0 0 0 0 0 0 0 0 0 0 0 0 0 0 127 0"/>
<feOffset dy="5"/>
<feGaussianBlur stdDeviation="1.5"/>
<feColorMatrix type="matrix" values="0 0 0 0 0 0 0 0 0 0 0 0 0 0 0 0 0 0 0.25 0"/>
<feBlend mode="normal" in2="BackgroundImageFix" result="effect1_dropShadow"/>
<feBlend mode="normal" in="SourceGraphic" in2="effect1_dropShadow" result="shape"/>
</filter>
<filter id="filter3_d" x="87.1797" y="283.414" width="205.324" height="158.703" filterUnits="userSpaceOnUse" color-interpolation-filters="sRGB">
<feFlood flood-opacity="0" result="BackgroundImageFix"/>
<feColorMatrix in="SourceAlpha" type="matrix" values="0 0 0 0 0 0 0 0 0 0 0 0 0 0 0 0 0 0 127 0"/>
<feOffset dy="4"/>
<feGaussianBlur stdDeviation="3"/>
<feColorMatrix type="matrix" values="0 0 0 0 0 0 0 0 0 0 0 0 0 0 0 0 0 0 0.25 0"/>
<feBlend mode="normal" in2="BackgroundImageFix" result="effect1_dropShadow"/>
<feBlend mode="normal" in="SourceGraphic" in2="effect1_dropShadow" result="shape"/>
</filter>
<linearGradient id="paint0_linear" x1="9.99975" y1="273.675" x2="369.278" y2="273.675" gradientUnits="userSpaceOnUse">
<stop stop-color="#FFD600"/>
<stop offset="1" stop-color="#F7CF00"/>
</linearGradient>
</defs>
</svg>
