<svg width="392" height="560" viewBox="0 0 392 560" fill="none" xmlns="http://www.w3.org/2000/svg">
<g filter="url(#filter0_d)">
<path d="M68.7107 491.008L10.6912 127.192C6.36202 100.044 22.7536 73.8719 49.0683 65.9159L226.184 12.3719C257.123 3.01856 289.413 22.2466 295.933 53.9026L368.143 404.56C373.7 431.548 358.417 458.481 332.4 467.553L141.093 534.257C108.761 545.531 74.1027 524.821 68.7107 491.008Z" fill="url(#paint0_linear)"/>
</g>
<g filter="url(#filter1_d)">
<path d="M41.3622 450.565L51.9685 108.715C52.7595 83.2052 72.2735 62.2025 97.6562 59.5425L268.495 41.6385C298.336 38.5105 324.423 61.6799 324.842 91.6812L329.471 424.012C329.827 449.589 311.191 471.48 285.884 475.208L99.8109 502.635C68.3629 507.269 40.3762 482.337 41.3622 450.565" fill="white"/>
</g>
<path d="M157.758 131.136C157.758 127.767 159.56 124.646 163.163 121.775L169.755 126.17C166.767 128.045 165.272 130.037 165.272 132.146C165.272 133.025 165.565 133.963 166.151 134.959C166.767 135.926 167.382 136.893 167.997 137.859C168.612 138.826 168.92 139.734 168.92 140.584C168.92 144.041 166.518 146.722 161.713 148.626L159.999 146.297C161.171 145.652 161.977 145.037 162.416 144.451C162.885 143.836 163.119 143.162 163.119 142.43C163.119 141.697 162.841 140.892 162.284 140.013C161.728 139.104 161.112 138.284 160.438 137.552C159.765 136.79 159.149 135.838 158.593 134.695C158.036 133.523 157.758 132.337 157.758 131.136ZM172.919 123.533L191.288 123.05L191.2 125.467L186.146 125.994L183.905 147.132L179.994 147.483L178.148 126.785L173.139 127.269L172.919 123.533ZM210.932 147L196.825 147.308L195.155 123.577L211.063 123.094L210.932 125.511L203.329 126.39L202.406 133.86L210.053 133.772L210.229 137.024L202.099 136.409L201.132 144.451L211.063 143.309L210.932 147ZM217.084 124.324C220.424 123.24 223.822 122.698 227.279 122.698C230.736 122.698 233.373 123.27 235.189 124.412C235.6 125.701 235.819 126.932 235.849 128.104C235.849 130.857 234.706 133.172 232.421 135.047C230.136 136.922 227.206 138.27 223.632 139.09L222.753 147.132L219.149 147.483L217.084 124.324ZM228.905 129.158C228.905 127.312 228.158 125.936 226.664 125.027C226.254 125.027 225.727 125.115 225.082 125.291L223.852 136.629C225.434 135.75 226.664 134.622 227.543 133.245C228.451 131.868 228.905 130.506 228.905 129.158Z" fill="#002294"/>
<g filter="url(#filter2_d)">
<path d="M182.501 233.804C182.326 234.066 182.064 234.415 181.715 234.852C181.453 235.201 181.147 235.551 180.798 235.9C180.536 236.249 180.23 236.555 179.881 236.817C179.619 236.992 179.444 237.035 179.357 236.948C179.182 236.948 179.139 236.773 179.226 236.424C179.401 236.075 179.968 234.808 180.929 232.625C182.064 230.18 182.981 227.385 183.68 224.241C184.466 221.097 185.034 217.909 185.383 214.678C185.732 211.359 185.951 208.128 186.038 204.984C186.213 201.84 186.3 199.002 186.3 196.469C186.3 195.159 186.169 193.587 185.907 191.753C185.732 189.919 185.339 188.129 184.728 186.382C184.204 184.635 183.418 183.151 182.37 181.928C181.409 180.705 180.099 180.094 178.44 180.094C176.344 180.094 174.423 180.662 172.676 181.797C170.929 182.932 169.357 184.199 167.96 185.596C166.65 186.906 165.515 188.172 164.554 189.395C163.681 190.53 163.026 191.142 162.589 191.229C163.2 189.57 164.03 187.867 165.078 186.12C166.126 184.286 167.349 182.67 168.746 181.273C170.231 179.788 171.803 178.609 173.462 177.736C175.209 176.775 177.086 176.295 179.095 176.295C181.802 176.295 183.942 177.168 185.514 178.915C187.173 180.662 188.44 182.758 189.313 185.203C190.186 187.648 190.71 190.225 190.885 192.932C191.147 195.639 191.278 197.954 191.278 199.875C191.278 202.67 191.103 205.552 190.754 208.521C190.492 211.403 190.012 214.241 189.313 217.036C189.051 217.997 188.702 219.176 188.265 220.573C187.828 221.97 187.304 223.455 186.693 225.027C186.082 226.599 185.383 228.171 184.597 229.743C183.898 231.315 183.2 232.669 182.501 233.804ZM180.536 200.137C180.536 199.526 180.492 198.609 180.405 197.386C180.405 196.163 180.274 194.941 180.012 193.718C179.837 192.408 179.532 191.273 179.095 190.312C178.746 189.351 178.222 188.871 177.523 188.871C176.999 188.871 176.344 189.089 175.558 189.526C174.772 189.963 173.986 190.705 173.2 191.753C170.755 194.897 168.79 197.954 167.305 200.923C165.908 203.892 164.772 206.949 163.899 210.093C163.113 213.15 162.458 216.337 161.934 219.656C161.497 222.975 161.061 226.555 160.624 230.398C160.362 230.311 160.144 229.83 159.969 228.957C159.794 227.996 159.62 226.948 159.445 225.813C159.358 224.678 159.27 223.586 159.183 222.538C159.183 221.49 159.183 220.791 159.183 220.442C159.183 216.075 159.707 211.752 160.755 207.473C161.89 203.194 163.462 199.089 165.471 195.159C165.995 194.111 166.737 192.888 167.698 191.491C168.746 190.006 169.838 188.609 170.973 187.299C172.196 185.989 173.506 184.897 174.903 184.024C176.3 183.063 177.654 182.583 178.964 182.583C180.187 182.583 181.147 183.238 181.846 184.548C182.632 185.858 183.2 187.386 183.549 189.133C183.986 190.88 184.248 192.626 184.335 194.373C184.422 196.12 184.466 197.473 184.466 198.434C184.466 203.412 183.942 208.652 182.894 214.154C181.933 219.656 180.449 224.634 178.44 229.088C178.265 229.263 178.091 229.481 177.916 229.743C177.741 229.918 177.654 229.656 177.654 228.957C177.654 226.599 177.785 224.241 178.047 221.883C178.396 219.438 178.746 217.036 179.095 214.678C179.444 212.233 179.75 209.831 180.012 207.473C180.361 205.028 180.536 202.582 180.536 200.137ZM164.03 245.987C164.554 245.987 165.122 245.9 165.733 245.725C166.344 245.463 166.432 245.594 165.995 246.118C165.471 246.817 164.467 247.166 162.982 247.166C160.1 247.166 157.655 245.943 155.646 243.498C153.725 240.965 152.153 238.04 150.93 234.721C149.795 231.315 148.965 227.865 148.441 224.372C147.917 220.791 147.655 217.953 147.655 215.857C147.655 209.307 148.703 202.801 150.799 196.338C152.895 189.788 156.126 184.024 160.493 179.046C161.541 177.823 162.72 176.601 164.03 175.378C165.34 174.155 166.737 173.064 168.222 172.103C169.707 171.142 171.235 170.356 172.807 169.745C174.466 169.134 176.169 168.828 177.916 168.828C181.846 168.828 185.077 169.745 187.61 171.579C190.23 173.326 192.282 175.596 193.767 178.391C195.339 181.098 196.431 184.155 197.042 187.561C197.741 190.88 198.09 194.111 198.09 197.255C198.09 200.312 197.828 203.543 197.304 206.949C196.867 210.355 196.212 213.761 195.339 217.167C194.466 220.486 193.418 223.761 192.195 226.992C190.972 230.136 189.619 233.062 188.134 235.769C185.951 239.699 183.287 242.887 180.143 245.332C176.999 247.777 173.113 249 168.484 249C168.135 249 167.523 249 166.65 249C165.864 248.913 165.34 248.782 165.078 248.607L164.292 248.214C163.943 248.039 164.205 247.952 165.078 247.952C168.309 248.127 171.279 247.428 173.986 245.856C176.693 244.197 179.095 241.97 181.191 239.175C183.287 236.38 185.121 233.193 186.693 229.612C188.265 225.944 189.575 222.189 190.623 218.346C191.671 214.503 192.413 210.704 192.85 206.949C193.374 203.194 193.636 199.788 193.636 196.731C193.636 194.286 193.374 191.666 192.85 188.871C192.413 186.076 191.584 183.5 190.361 181.142C189.226 178.784 187.61 176.819 185.514 175.247C183.505 173.675 180.973 172.889 177.916 172.889C176.344 172.889 174.772 173.238 173.2 173.937C169.445 175.684 166.213 178.216 163.506 181.535C160.799 184.854 158.528 188.565 156.694 192.67C154.947 196.687 153.637 200.879 152.764 205.246C151.891 209.613 151.454 213.674 151.454 217.429C151.454 218.564 151.541 220.049 151.716 221.883C151.891 223.717 152.196 225.726 152.633 227.909C153.07 230.005 153.594 232.145 154.205 234.328C154.904 236.424 155.69 238.345 156.563 240.092C157.524 241.839 158.615 243.28 159.838 244.415C161.061 245.463 162.458 245.987 164.03 245.987ZM155.384 213.63C155.559 213.63 155.69 213.936 155.777 214.547C155.864 215.158 155.908 215.508 155.908 215.595C156.083 216.73 156.17 217.822 156.17 218.87C156.257 219.918 156.388 220.922 156.563 221.883C156.738 222.931 157.043 224.59 157.48 226.861C157.917 229.132 158.528 231.446 159.314 233.804C160.1 236.162 161.017 238.214 162.065 239.961C163.2 241.708 164.467 242.581 165.864 242.581C166.126 242.581 166.344 242.581 166.519 242.581C166.781 242.494 166.912 242.581 166.912 242.843C166.912 243.804 165.82 244.284 163.637 244.284C162.414 244.284 161.323 243.847 160.362 242.974C159.489 242.013 158.703 240.791 158.004 239.306C157.305 237.821 156.694 236.206 156.17 234.459C155.733 232.625 155.384 230.835 155.122 229.088C154.86 227.341 154.642 225.726 154.467 224.241C154.38 222.756 154.336 221.577 154.336 220.704C154.336 220.529 154.336 220.049 154.336 219.263C154.336 218.477 154.38 217.691 154.467 216.905C154.554 216.032 154.642 215.289 154.729 214.678C154.904 213.979 155.122 213.63 155.384 213.63ZM231.525 172.365C232.136 173.588 232.529 174.985 232.704 176.557C232.878 178.129 232.835 179.701 232.573 181.273C232.311 182.845 231.874 184.373 231.263 185.858C230.739 187.255 230.127 188.434 229.429 189.395C227.42 192.19 225.193 194.984 222.748 197.779C220.39 200.486 217.988 203.063 215.543 205.508C215.455 205.683 215.15 205.945 214.626 206.294C214.189 206.556 213.84 206.6 213.578 206.425C213.403 206.338 213.403 206.076 213.578 205.639C213.752 205.202 213.927 204.897 214.102 204.722C214.364 204.023 214.713 203.194 215.15 202.233C215.674 201.272 216.198 200.312 216.722 199.351C217.333 198.303 217.901 197.342 218.425 196.469C219.036 195.508 219.604 194.722 220.128 194.111C220.564 193.674 221.35 192.539 222.486 190.705C223.708 188.784 224.931 186.688 226.154 184.417C227.464 182.146 228.555 179.876 229.429 177.605C230.302 175.334 230.651 173.588 230.477 172.365C230.389 172.103 230.389 171.885 230.477 171.71C230.564 171.448 230.695 171.361 230.87 171.448C231.132 171.448 231.35 171.754 231.525 172.365ZM243.053 218.608C242.965 219.045 242.791 219.481 242.529 219.918C242.354 220.267 241.917 220.573 241.219 220.835C238.162 222.058 235.105 222.582 232.049 222.407C229.079 222.145 225.935 221.752 222.617 221.228C219.735 220.791 216.896 220.791 214.102 221.228C211.394 221.577 208.905 222.756 206.635 224.765C206.635 223.892 206.722 222.844 206.897 221.621C207.159 220.311 207.421 219.132 207.683 218.084C208.032 216.949 208.338 216.032 208.6 215.333C208.949 214.634 209.255 214.372 209.517 214.547C209.691 214.547 209.779 215.027 209.779 215.988C209.866 216.861 209.91 217.56 209.91 218.084L209.517 221.228C209.866 220.617 210.346 220.093 210.958 219.656C211.656 219.132 212.18 218.739 212.53 218.477C213.927 214.809 215.761 211.316 218.032 207.997C220.302 204.678 222.704 201.36 225.237 198.041C226.983 195.683 228.73 193.238 230.477 190.705C232.311 188.172 233.621 185.29 234.407 182.059C234.669 181.797 234.931 181.666 235.193 181.666C235.28 181.841 235.28 181.972 235.193 182.059C235.193 182.146 235.193 182.277 235.193 182.452C235.804 184.286 235.673 186.426 234.8 188.871C233.926 191.316 232.791 193.762 231.394 196.207C229.996 198.652 228.512 200.967 226.94 203.15C225.368 205.333 224.145 207.08 223.272 208.39C222.311 209.875 221.263 211.359 220.128 212.844C218.992 214.329 217.901 215.726 216.853 217.036C218.337 216.861 219.866 216.818 221.438 216.905C223.01 216.905 224.538 216.949 226.023 217.036C227.769 213.892 229.21 210.835 230.346 207.866C231.568 204.897 232.049 201.927 231.787 198.958V198.827C231.787 198.652 231.83 198.565 231.918 198.565C232.092 198.565 232.267 198.652 232.442 198.827C232.529 198.914 232.573 199.045 232.573 199.22C233.271 200.705 233.664 202.189 233.752 203.674C233.926 205.159 233.883 206.687 233.621 208.259C233.359 209.744 232.922 211.272 232.311 212.844C231.787 214.329 231.175 215.857 230.477 217.429C230.913 217.429 231.263 217.429 231.525 217.429C231.874 217.429 232.267 217.473 232.704 217.56C233.14 216.25 233.577 214.853 234.014 213.368C234.538 211.883 234.974 210.399 235.324 208.914C235.673 207.429 235.891 206.076 235.979 204.853C236.153 203.63 236.066 202.626 235.717 201.84C235.455 201.316 235.28 201.01 235.193 200.923C235.193 200.836 235.28 200.748 235.455 200.661C235.542 200.661 235.673 200.748 235.848 200.923C236.11 201.01 236.328 201.141 236.503 201.316C237.551 202.364 238.293 203.63 238.73 205.115C239.254 206.512 239.559 207.953 239.647 209.438C239.821 210.923 239.778 212.364 239.516 213.761C239.254 215.158 238.861 216.337 238.337 217.298L237.682 218.477C238.38 218.477 239.079 218.608 239.778 218.87C240.389 217.385 240.869 215.944 241.219 214.547C241.568 213.062 241.83 211.447 242.005 209.7C242.005 209.351 242.048 209.176 242.136 209.176C242.31 209.263 242.398 209.394 242.398 209.569C242.485 209.656 242.572 209.744 242.66 209.831C242.834 210.268 243.053 211.359 243.315 213.106C243.664 214.765 243.577 216.599 243.053 218.608ZM247.507 217.56C247.245 218.521 246.895 219.569 246.459 220.704C246.022 221.839 245.192 222.887 243.97 223.848C243.533 224.197 242.965 224.59 242.267 225.027C241.655 225.376 241 225.682 240.302 225.944C239.69 226.119 239.123 226.25 238.599 226.337C238.162 226.337 237.987 226.162 238.075 225.813C237.9 225.551 238.118 225.202 238.73 224.765C239.341 224.241 239.778 223.892 240.04 223.717C240.651 223.28 241.175 222.931 241.612 222.669C242.048 222.32 242.529 221.927 243.053 221.49C243.751 220.879 244.45 220.224 245.149 219.525C245.935 218.826 246.546 217.997 246.983 217.036C247.245 216.512 247.419 216.381 247.507 216.643C247.681 216.818 247.681 217.123 247.507 217.56ZM228.512 168.828C229.036 172.059 228.73 175.116 227.595 177.998C226.547 180.793 225.062 183.587 223.141 186.382C221.219 189.089 219.123 191.797 216.853 194.504C214.582 197.124 212.53 199.875 210.696 202.757C208.687 205.988 207.115 209.613 205.98 213.63C204.844 217.56 204.757 221.621 205.718 225.813C205.456 226.075 205.15 226.643 204.801 227.516C202.53 222.451 201.831 217.56 202.705 212.844C203.665 208.128 205.412 203.805 207.945 199.875C209.779 196.993 211.744 194.242 213.84 191.622C216.023 189.002 218.032 186.426 219.866 183.893C221.787 181.36 223.446 178.828 224.844 176.295C226.328 173.762 227.333 171.186 227.857 168.566C227.857 168.217 227.9 168.042 227.988 168.042C228.162 168.042 228.25 168.173 228.25 168.435C228.337 168.697 228.424 168.828 228.512 168.828ZM231.525 226.599C231.525 226.861 231.35 227.036 231.001 227.123C230.739 227.21 230.52 227.254 230.346 227.254C229.385 227.429 227.813 227.56 225.63 227.647C223.534 227.734 221.7 227.734 220.128 227.647C217.071 227.472 214.145 227.516 211.351 227.778C208.643 227.953 206.46 228.826 204.801 230.398C204.364 230.835 204.189 230.835 204.277 230.398C204.451 229.874 204.582 229.481 204.67 229.219C205.281 227.996 206.067 226.948 207.028 226.075C208.076 225.202 209.167 224.503 210.303 223.979C211.525 223.455 212.661 223.062 213.709 222.8C214.844 222.538 215.761 222.407 216.46 222.407C219.254 222.407 221.7 222.8 223.796 223.586C225.979 224.285 228.206 224.983 230.477 225.682C230.651 225.769 230.87 225.9 231.132 226.075C231.394 226.25 231.525 226.424 231.525 226.599ZM248.293 220.835C247.07 224.59 245.454 227.516 243.446 229.612C241.524 231.621 239.472 233.105 237.289 234.066C236.852 235.201 236.284 236.468 235.586 237.865C234.887 239.175 234.101 240.485 233.228 241.795C232.442 243.105 231.612 244.415 230.739 245.725C229.953 246.948 229.254 248.039 228.643 249C228.468 249.175 228.293 249.306 228.119 249.393C228.031 249.568 227.9 249.611 227.726 249.524C227.638 249.437 227.595 249.218 227.595 248.869C227.769 246.511 228.162 244.24 228.774 242.057C229.472 239.874 230.302 237.69 231.263 235.507H229.56C228.25 235.507 226.94 235.463 225.63 235.376C224.407 235.201 223.141 235.027 221.831 234.852C220.783 238.083 220.302 241.489 220.39 245.07C220.477 248.651 221.7 251.882 224.058 254.764C224.407 255.201 224.451 255.375 224.189 255.288C224.014 255.288 223.839 255.201 223.665 255.026C220.084 252.057 217.988 248.738 217.377 245.07C216.765 241.315 216.94 237.647 217.901 234.066C215.368 233.629 212.923 233.367 210.565 233.28C208.294 233.105 206.023 233.542 203.753 234.59C203.316 234.939 203.054 234.983 202.967 234.721C202.967 234.459 203.185 234.153 203.622 233.804C205.281 231.621 207.159 230.311 209.255 229.874C211.351 229.35 213.578 229.219 215.936 229.481C218.294 229.656 220.695 230.005 223.141 230.529C225.586 231.053 227.988 231.271 230.346 231.184C231.83 231.271 233.359 231.184 234.931 230.922C236.59 230.573 238.206 229.961 239.778 229.088C241.35 228.215 242.791 227.079 244.101 225.682C245.498 224.285 246.721 222.538 247.769 220.442C247.943 220.005 248.074 219.918 248.162 220.18C248.336 220.355 248.38 220.573 248.293 220.835ZM227.988 256.205C227.813 256.205 227.638 256.161 227.464 256.074C227.289 255.987 227.114 255.899 226.94 255.812C226.765 255.725 226.59 255.594 226.416 255.419C225.455 254.458 224.713 253.585 224.189 252.799C223.665 252.013 223.184 250.747 222.748 249C222.573 248.476 222.486 247.821 222.486 247.035C222.573 246.249 222.704 245.507 222.879 244.808C223.053 244.109 223.228 243.542 223.403 243.105C223.665 242.668 223.927 242.494 224.189 242.581C224.363 242.581 224.538 243.061 224.713 244.022C224.975 244.895 225.149 245.55 225.237 245.987C225.411 247.472 225.673 249.044 226.023 250.703C226.372 252.362 227.027 253.978 227.988 255.55C228.162 255.987 228.162 256.205 227.988 256.205Z" fill="#002294"/>
</g>
<g filter="url(#filter3_d)">
<path d="M131.879 316.316C131.363 316.363 130.602 316.387 129.594 316.387C128.609 316.387 127.484 316.223 126.219 315.895C124.977 315.543 124.016 315.086 123.336 314.523C123.008 312.977 122.855 311.383 122.879 309.742C122.879 306.906 123.359 304.258 124.32 301.797C125.305 299.312 126.816 297.32 128.855 295.82L134.41 299.336C131.762 301.023 129.652 303.18 128.082 305.805C126.535 308.43 125.762 311.055 125.762 313.68C126.816 313.891 127.859 313.996 128.891 313.996C129.922 313.996 130.848 313.902 131.668 313.715L131.105 307.422L136.555 307.07L134.832 317.195L132.02 317.441L131.879 316.316ZM144.219 300.461C148.859 302.312 151.18 304.633 151.18 307.422C151.18 308.875 150.77 309.918 149.949 310.551C149.129 311.184 147.816 311.5 146.012 311.5C144.23 311.5 142.883 311.395 141.969 311.184C141.617 312.074 141.43 313.012 141.406 313.996C142.273 314.113 143.48 314.172 145.027 314.172C146.574 314.172 148.238 313.867 150.02 313.258L150.863 316.035C149.457 316.48 147.887 316.703 146.152 316.703C143.035 316.703 140.75 316.129 139.297 314.98C138.992 313.621 138.84 312.344 138.84 311.148C138.84 308.734 139.367 306.555 140.422 304.609C141.5 302.641 142.766 301.258 144.219 300.461ZM142.531 309.848C142.766 309.871 143.387 309.883 144.395 309.883C145.426 309.883 146.598 309.742 147.91 309.461C147.957 309.109 147.992 308.746 148.016 308.371C148.016 307.223 147.688 306.121 147.031 305.066C145.109 306.332 143.609 307.926 142.531 309.848ZM157.086 316.422L155.855 304.82L153.184 305.172L153.008 302.219L155.539 302.078L155.117 298.07L162.289 297.086L161.691 301.762L164.574 301.621L164.469 303.555L161.41 303.977L159.934 316.176L157.086 316.422ZM175.438 306.508C175.438 304.047 176.738 301.797 179.34 299.758L184.051 302.957C181.918 304.316 180.852 305.746 180.852 307.246C180.852 308.043 181.285 309.074 182.152 310.34C183.043 311.605 183.488 312.59 183.488 313.293C183.488 315.801 181.754 317.746 178.285 319.129L177.02 317.406C178.543 316.586 179.305 315.695 179.305 314.734C179.305 313.75 178.66 312.543 177.371 311.113C176.879 310.574 176.434 309.895 176.035 309.074C175.637 308.23 175.438 307.375 175.438 306.508ZM190.133 316.422L188.902 304.82L186.23 305.172L186.055 302.219L188.586 302.078L188.164 298.07L195.336 297.086L194.738 301.762L197.621 301.621L197.516 303.555L194.457 303.977L192.98 316.176L190.133 316.422ZM202.016 316.668C201.688 316.668 201.453 316.656 201.312 316.633C200.656 316.188 200.129 315.531 199.73 314.664C199.355 313.797 199.168 312.824 199.168 311.746C199.168 310.645 199.625 309.824 200.539 309.285C201.477 308.723 203.188 308.441 205.672 308.441C206.586 308.441 207.559 308.5 208.59 308.617L208.52 307.984C208.449 307.211 208.086 306.602 207.43 306.156C206.773 305.711 205.93 305.488 204.898 305.488C203.891 305.488 202.883 305.805 201.875 306.438L200.609 302.289C202.25 301.609 204.125 301.27 206.234 301.27C208.344 301.27 210.008 301.75 211.227 302.711C212.469 303.648 213.09 305.125 213.09 307.141C213.09 307.609 213.066 307.973 213.02 308.23L212.246 316.176L209.363 316.422L208.941 312.273H208.73C208.074 313.656 207.16 314.734 205.988 315.508C204.84 316.281 203.516 316.668 202.016 316.668ZM208.695 309.848L207.184 309.812C205.918 309.812 204.875 309.883 204.055 310.023C203.797 310.562 203.668 311.043 203.668 311.465C203.668 311.887 203.715 312.297 203.809 312.695C203.926 313.07 204.055 313.316 204.195 313.434C206.492 313.082 207.992 311.887 208.695 309.848ZM225.852 306.508C224.539 306.508 223.543 306.965 222.863 307.879C222.207 308.793 221.715 310.469 221.387 312.906L221 316.176L218.152 316.422L216.711 302.148L222.863 301.199L222.266 305.805H222.477C224.023 302.5 225.98 300.742 228.348 300.531L227.539 306.648C226.836 306.555 226.273 306.508 225.852 306.508ZM232.672 316.422L231.441 304.82L228.77 305.172L228.594 302.219L231.125 302.078L230.703 298.07L237.875 297.086L237.277 301.762L240.16 301.621L240.055 303.555L236.996 303.977L235.52 316.176L232.672 316.422ZM247.508 300.461C252.148 302.312 254.469 304.633 254.469 307.422C254.469 308.875 254.059 309.918 253.238 310.551C252.418 311.184 251.105 311.5 249.301 311.5C247.52 311.5 246.172 311.395 245.258 311.184C244.906 312.074 244.719 313.012 244.695 313.996C245.562 314.113 246.77 314.172 248.316 314.172C249.863 314.172 251.527 313.867 253.309 313.258L254.152 316.035C252.746 316.48 251.176 316.703 249.441 316.703C246.324 316.703 244.039 316.129 242.586 314.98C242.281 313.621 242.129 312.344 242.129 311.148C242.129 308.734 242.656 306.555 243.711 304.609C244.789 302.641 246.055 301.258 247.508 300.461ZM245.82 309.848C246.055 309.871 246.676 309.883 247.684 309.883C248.715 309.883 249.887 309.742 251.199 309.461C251.246 309.109 251.281 308.746 251.305 308.371C251.305 307.223 250.977 306.121 250.32 305.066C248.398 306.332 246.898 307.926 245.82 309.848ZM261.922 316.668C261.453 316.668 261.066 316.586 260.762 316.422C260.059 315.695 259.484 314.617 259.039 313.188C258.617 311.734 258.406 310 258.406 307.984C258.406 305.945 258.852 304.398 259.742 303.344C260.633 302.266 262.18 301.727 264.383 301.727C265.742 301.727 267.102 301.996 268.461 302.535L268.039 296.348L274.191 295.398L272.363 316.176L269.48 316.422L269.129 311.465H268.883C267.406 314.934 265.086 316.668 261.922 316.668ZM265.508 303.449C264.805 303.449 264.195 303.578 263.68 303.836C263.422 305.219 263.293 307.047 263.293 309.32C263.293 311.594 263.492 313.27 263.891 314.348C264.828 314.207 265.812 313.539 266.844 312.344C267.383 311.734 267.828 310.867 268.18 309.742C268.555 308.594 268.742 307.293 268.742 305.84C268.742 305.559 268.719 305.102 268.672 304.469C267.805 303.789 266.75 303.449 265.508 303.449ZM135.746 358.305L137.504 369.484H137.715L141.652 359.289L143.691 359.887L146.363 369.555H146.574L149.562 358.48L151.918 359.113L147.312 373.07L144.992 373.422L140.809 366.707L138.102 373.07L135.219 373.422L129.805 359.148L135.746 358.305ZM156.207 373.422L154.766 359.148L160.918 358.234L159.055 373.176L156.207 373.422ZM155.645 355.984C155.129 355.445 154.871 354.812 154.871 354.086C154.871 353.336 155.129 352.703 155.645 352.188C156.184 351.672 156.816 351.414 157.543 351.414C158.27 351.414 158.891 351.672 159.406 352.188C159.945 352.703 160.215 353.336 160.215 354.086C160.215 354.812 159.945 355.445 159.406 355.984C158.891 356.5 158.27 356.758 157.543 356.758C156.816 356.758 156.184 356.5 155.645 355.984ZM167.246 373.422L166.016 361.82L163.344 362.172L163.168 359.219L165.699 359.078L165.277 355.07L172.449 354.086L171.852 358.762L174.734 358.621L174.629 360.555L171.57 360.977L170.094 373.176L167.246 373.422ZM188.762 357.918C189.09 357.918 189.441 357.988 189.816 358.129C190.801 359.301 191.469 361.352 191.82 364.281C192.172 367.211 192.348 370.117 192.348 373L187.18 373.422C187.18 368.992 187.027 364.973 186.723 361.363C184.168 362.301 182.457 366.238 181.59 373.176L178.742 373.422L177.301 353.348L183.453 352.398L182.363 364.246H182.645C183.441 362.324 184.367 360.789 185.422 359.641C186.477 358.492 187.59 357.918 188.762 357.918ZM212.211 374.652C211.531 376.316 210.828 377.477 210.102 378.133C209.375 378.789 208.414 379.117 207.219 379.117C206.047 379.117 204.934 378.684 203.879 377.816L204.723 376.34C205.355 376.574 206.047 376.691 206.797 376.691C207.57 376.691 208.262 376.434 208.871 375.918C209.504 375.426 209.902 374.676 210.066 373.668L204.09 359.148L210.242 358.234L212.176 369.273H212.387L216.113 358.305L218.434 358.938L212.211 374.652ZM231.02 361.293C232.566 363.098 233.34 365.148 233.34 367.445C233.34 369.742 232.883 371.359 231.969 372.297C231.055 373.234 229.367 373.703 226.906 373.703C224.445 373.703 222.535 373.141 221.176 372.016C220.238 367.422 220.777 363.695 222.793 360.836C224.059 359.078 225.172 357.953 226.133 357.461C227.961 358.398 229.59 359.676 231.02 361.293ZM229.543 370.574C229.848 369.402 230 368.043 230 366.496C230 364.949 229.613 363.426 228.84 361.926C227.246 362.77 225.922 364.059 224.867 365.793C223.836 367.504 223.32 369.238 223.32 370.996C223.93 371.113 224.809 371.172 225.957 371.172C227.129 371.172 228.324 370.973 229.543 370.574ZM244.906 369.625C245.609 368.711 246.09 367.715 246.348 366.637C246.629 365.559 246.77 364.621 246.77 363.824C246.77 363.027 246.664 361.469 246.453 359.148L252.605 358.234L250.742 373.176L247.895 373.422L247.332 367.973H247.121C245.691 371.77 243.43 373.668 240.336 373.668C239.867 373.668 239.48 373.586 239.176 373.422C238.191 372.25 237.523 370.234 237.172 367.375C236.82 364.516 236.645 361.668 236.645 358.832L242.375 358.41C242.047 361.762 241.871 364.27 241.848 365.934C241.848 367.598 241.988 369.402 242.27 371.348C243.324 371.113 244.203 370.539 244.906 369.625ZM265.613 363.508C264.301 363.508 263.305 363.965 262.625 364.879C261.969 365.793 261.477 367.469 261.148 369.906L260.762 373.176L257.914 373.422L256.473 359.148L262.625 358.199L262.027 362.805H262.238C263.785 359.5 265.742 357.742 268.109 357.531L267.301 363.648C266.598 363.555 266.035 363.508 265.613 363.508ZM160.338 428.172C162.166 428.172 163.9 427.867 165.541 427.258L166.42 430.035C165.061 430.48 163.643 430.703 162.166 430.703C160.689 430.703 159.377 430.539 158.229 430.211C157.104 429.906 156.26 429.496 155.697 428.98C155.416 427.598 155.264 426.32 155.24 425.148C155.24 422.758 155.779 420.578 156.857 418.609C157.959 416.641 159.213 415.258 160.619 414.461L165.611 417.73C163.197 419.043 161.287 420.602 159.881 422.406C158.498 424.188 157.807 426.051 157.807 427.996C158.627 428.113 159.471 428.172 160.338 428.172ZM178.76 418.293C180.307 420.098 181.08 422.148 181.08 424.445C181.08 426.742 180.623 428.359 179.709 429.297C178.795 430.234 177.107 430.703 174.646 430.703C172.186 430.703 170.275 430.141 168.916 429.016C167.979 424.422 168.518 420.695 170.533 417.836C171.799 416.078 172.912 414.953 173.873 414.461C175.701 415.398 177.33 416.676 178.76 418.293ZM177.283 427.574C177.588 426.402 177.74 425.043 177.74 423.496C177.74 421.949 177.354 420.426 176.58 418.926C174.986 419.77 173.662 421.059 172.607 422.793C171.576 424.504 171.061 426.238 171.061 427.996C171.67 428.113 172.549 428.172 173.697 428.172C174.869 428.172 176.064 427.973 177.283 427.574ZM192.646 426.625C193.35 425.711 193.83 424.715 194.088 423.637C194.369 422.559 194.51 421.621 194.51 420.824C194.51 420.027 194.404 418.469 194.193 416.148L200.346 415.234L198.482 430.176L195.635 430.422L195.072 424.973H194.861C193.432 428.77 191.17 430.668 188.076 430.668C187.607 430.668 187.221 430.586 186.916 430.422C185.932 429.25 185.264 427.234 184.912 424.375C184.561 421.516 184.385 418.668 184.385 415.832L190.115 415.41C189.787 418.762 189.611 421.27 189.588 422.934C189.588 424.598 189.729 426.402 190.01 428.348C191.064 428.113 191.943 427.539 192.646 426.625ZM213.354 420.508C212.041 420.508 211.045 420.965 210.365 421.879C209.709 422.793 209.217 424.469 208.889 426.906L208.502 430.176L205.654 430.422L204.213 416.148L210.365 415.199L209.768 419.805H209.979C211.525 416.5 213.482 414.742 215.85 414.531L215.041 420.648C214.338 420.555 213.775 420.508 213.354 420.508ZM217.537 420.508C217.537 418.047 218.838 415.797 221.439 413.758L226.15 416.957C224.018 418.316 222.951 419.746 222.951 421.246C222.951 422.043 223.385 423.074 224.252 424.34C225.143 425.605 225.588 426.59 225.588 427.293C225.588 429.801 223.854 431.746 220.385 433.129L219.119 431.406C220.643 430.586 221.404 429.695 221.404 428.734C221.404 427.75 220.76 426.543 219.471 425.113C218.979 424.574 218.533 423.895 218.135 423.074C217.736 422.23 217.537 421.375 217.537 420.508ZM234.693 414.461C239.334 416.312 241.654 418.633 241.654 421.422C241.654 422.875 241.244 423.918 240.424 424.551C239.604 425.184 238.291 425.5 236.486 425.5C234.705 425.5 233.357 425.395 232.443 425.184C232.092 426.074 231.904 427.012 231.881 427.996C232.748 428.113 233.955 428.172 235.502 428.172C237.049 428.172 238.713 427.867 240.494 427.258L241.338 430.035C239.932 430.48 238.361 430.703 236.627 430.703C233.51 430.703 231.225 430.129 229.771 428.98C229.467 427.621 229.314 426.344 229.314 425.148C229.314 422.734 229.842 420.555 230.896 418.609C231.975 416.641 233.24 415.258 234.693 414.461ZM233.006 423.848C233.24 423.871 233.861 423.883 234.869 423.883C235.9 423.883 237.072 423.742 238.385 423.461C238.432 423.109 238.467 422.746 238.49 422.371C238.49 421.223 238.162 420.121 237.506 419.066C235.584 420.332 234.084 421.926 233.006 423.848Z" fill="#3B3B3B"/>
</g>
<defs>
<filter id="filter0_d" x="0" y="3.05176e-05" width="391.279" height="559.35" filterUnits="userSpaceOnUse" color-interpolation-filters="sRGB">
<feFlood flood-opacity="0" result="BackgroundImageFix"/>
<feColorMatrix in="SourceAlpha" type="matrix" values="0 0 0 0 0 0 0 0 0 0 0 0 0 0 0 0 0 0 127 0"/>
<feOffset dx="6" dy="6"/>
<feGaussianBlur stdDeviation="8"/>
<feColorMatrix type="matrix" values="0 0 0 0 0 0 0 0 0 0 0 0 0 0 0 0 0 0 0.25 0"/>
<feBlend mode="normal" in2="BackgroundImageFix" result="effect1_dropShadow"/>
<feBlend mode="normal" in="SourceGraphic" in2="effect1_dropShadow" result="shape"/>
</filter>
<filter id="filter1_d" x="32.3369" y="32.3553" width="318.139" height="491.836" filterUnits="userSpaceOnUse" color-interpolation-filters="sRGB">
<feFlood flood-opacity="0" result="BackgroundImageFix"/>
<feColorMatrix in="SourceAlpha" type="matrix" values="0 0 0 0 0 0 0 0 0 0 0 0 0 0 0 0 0 0 127 0"/>
<feOffset dx="6" dy="6"/>
<feGaussianBlur stdDeviation="7.5"/>
<feColorMatrix type="matrix" values="0 0 0 0 0 0 0 0 0 0 0 0 0 0 0 0 0 0 0.25 0"/>
<feBlend mode="normal" in2="BackgroundImageFix" result="effect1_dropShadow"/>
<feBlend mode="normal" in="SourceGraphic" in2="effect1_dropShadow" result="shape"/>
</filter>
<filter id="filter2_d" x="144.655" y="168.042" width="106.681" height="96.163" filterUnits="userSpaceOnUse" color-interpolation-filters="sRGB">
<feFlood flood-opacity="0" result="BackgroundImageFix"/>
<feColorMatrix in="SourceAlpha" type="matrix" values="0 0 0 0 0 0 0 0 0 0 0 0 0 0 0 0 0 0 127 0"/>
<feOffset dy="5"/>
<feGaussianBlur stdDeviation="1.5"/>
<feColorMatrix type="matrix" values="0 0 0 0 0 0 0 0 0 0 0 0 0 0 0 0 0 0 0.25 0"/>
<feBlend mode="normal" in2="BackgroundImageFix" result="effect1_dropShadow"/>
<feBlend mode="normal" in="SourceGraphic" in2="effect1_dropShadow" result="shape"/>
</filter>
<filter id="filter3_d" x="116.876" y="293.398" width="163.315" height="149.73" filterUnits="userSpaceOnUse" color-interpolation-filters="sRGB">
<feFlood flood-opacity="0" result="BackgroundImageFix"/>
<feColorMatrix in="SourceAlpha" type="matrix" values="0 0 0 0 0 0 0 0 0 0 0 0 0 0 0 0 0 0 127 0"/>
<feOffset dy="4"/>
<feGaussianBlur stdDeviation="3"/>
<feColorMatrix type="matrix" values="0 0 0 0 0 0 0 0 0 0 0 0 0 0 0 0 0 0 0.25 0"/>
<feBlend mode="normal" in2="BackgroundImageFix" result="effect1_dropShadow"/>
<feBlend mode="normal" in="SourceGraphic" in2="effect1_dropShadow" result="shape"/>
</filter>
<linearGradient id="paint0_linear" x1="9.99975" y1="273.675" x2="369.278" y2="273.675" gradientUnits="userSpaceOnUse">
<stop stop-color="#FFD600"/>
<stop offset="1" stop-color="#F7CF00"/>
</linearGradient>
</defs>
</svg>
