<svg width="552" height="556" viewBox="0 0 552 556" fill="none" xmlns="http://www.w3.org/2000/svg">
<path d="M418.299 510.76C426.191 505.947 435.404 497.049 443.503 489.808C460.332 474.772 475.755 457.431 488.919 439.084C498.361 425.929 506.948 408.749 508.341 392.323C509.009 384.431 507.887 372.261 500.777 367.203C483.475 354.889 457.764 390.648 451.12 402.369C433.093 434.176 421.315 474.023 418.299 510.76Z" fill="#6BCCB1"/>
<path d="M417.717 512.445C417.359 506.248 426.711 491.133 429.452 484.335C438.457 461.989 446.473 439.856 453.179 416.656C463.957 379.356 471.895 330.679 459.159 292.924C454.451 278.971 442.037 256.764 424.06 260.9C410.625 263.992 404.367 281.447 401.139 293.304C392.653 324.475 393.973 357.596 396.029 389.515C398.389 426.2 404.215 462.901 409.769 499.363L417.717 512.445Z" fill="#6BCCB1"/>
<path d="M108.809 530.186C100 526.016 89.3466 517.71 80.0478 511.019C60.726 497.121 42.624 480.651 26.777 462.876C15.4114 450.131 4.49691 433.068 1.20784 415.997C-0.370292 407.796 -0.546425 394.909 6.34638 388.813C23.1202 373.975 54.062 408.616 62.3333 420.168C84.776 451.519 101.56 491.995 108.809 530.186Z" fill="#6BCCB1"/>
<path d="M61.8677 496.895C61.2943 496.72 60.9984 496.646 60.9823 496.643L61.0807 496.234C61.3421 496.455 61.6052 496.676 61.8677 496.895ZM32.2282 468.844C31.897 468.784 31.7208 468.76 31.7063 468.757L31.7604 468.343C31.9156 468.509 32.0724 468.677 32.2282 468.844ZM7.23495 433.901C7.04322 433.857 6.93802 433.835 6.92549 433.832L7.01095 433.423C7.08495 433.581 7.15989 433.741 7.23495 433.901ZM0.30682 406.632L0.304688 406.531C0.305221 406.531 0.306286 406.531 0.30682 406.531C0.30682 406.565 0.30682 406.599 0.30682 406.632ZM31.4104 390.408C31.2886 390.333 31.1667 390.261 31.0448 390.188C31.073 390.155 31.0896 390.136 31.0932 390.132L31.4104 390.408ZM6.02549 389.107C5.99735 389.053 5.97975 389.02 5.97295 389.007L6.35109 388.809C6.34895 388.812 6.34842 388.812 6.34642 388.813C6.23749 388.909 6.13069 389.008 6.02549 389.107Z" fill="#A4A6A5"/>
<path d="M98.9441 521.076C95.3107 517.344 91.7294 513.486 88.2121 509.54C73.4194 500.8 64.5667 497.717 61.8678 496.895C61.6053 496.676 61.3422 496.455 61.0807 496.234L61.1798 495.824C61.2694 495.847 69.8418 497.972 86.4401 507.532C79.6725 499.839 73.1506 491.836 66.948 483.78L66.9355 483.772C47.5313 472.072 34.8845 469.321 32.2282 468.844C32.0725 468.677 31.9157 468.509 31.7605 468.343L31.8151 467.925C31.9449 467.944 44.6761 469.712 65.5798 481.993C57.6418 471.593 50.2433 461.14 43.5474 451.192L43.5032 451.159C25.4428 438.461 9.62088 434.455 7.23502 433.901C7.15995 433.741 7.08502 433.581 7.01102 433.423L7.09648 433.009C7.25995 433.045 23.3563 436.453 42.2807 449.297C33.5085 436.169 25.9949 423.995 20.1173 414.071C9.05689 407.488 0.891285 407.371 0.351152 407.371C0.335018 407.371 0.325552 407.371 0.323018 407.371L0.306885 406.632C0.306885 406.599 0.306885 406.565 0.306885 406.531C0.323551 406.531 0.35582 406.531 0.403153 406.531C1.38395 406.531 8.84902 406.753 19.2547 412.611C11.3365 399.173 6.58702 390.179 6.02555 389.107C6.13075 389.008 6.23755 388.909 6.34648 388.813C6.34848 388.812 6.34902 388.812 6.35115 388.809L6.71888 388.619C6.86568 388.903 11.7304 398.201 20.1178 412.423C21.8225 401.343 30.323 391.047 31.0449 390.188C31.1667 390.261 31.2886 390.333 31.4105 390.408L31.7271 390.684C31.6308 390.795 22.1178 401.936 20.8094 413.589C26.698 423.533 34.234 435.748 43.0323 448.915C42.4703 443.201 44.4855 436.607 47.1585 430.68C47.2985 431.087 47.4408 431.495 47.584 431.904C44.8694 438.128 42.9746 444.961 44.1241 450.541C50.9214 460.649 58.4449 471.28 66.5266 481.849C66.2511 479.427 66.2146 477.045 66.3621 474.733C66.6152 475.197 66.8725 475.667 67.1293 476.131C67.0585 478.428 67.1793 480.786 67.5449 483.18C73.8995 491.436 80.5921 499.637 87.5374 507.509C87.4227 507.036 87.3227 506.559 87.2347 506.076C87.6134 506.537 87.9987 507 88.3841 507.456C88.5094 507.96 88.6507 508.457 88.8094 508.947C92.1334 512.679 95.5147 516.329 98.9441 519.871V521.076Z" fill="#4CA889"/>
<path d="M51.4532 407.245C47.1793 402.751 42.1695 398.049 36.9351 394.148C42.9132 398.127 50.3747 406.081 51.4532 407.245Z" fill="#AAACAB"/>
<path d="M98.944 518.759C95.2267 515.192 91.7107 511.407 88.384 507.456C87.1894 502.669 87.4481 497.336 88.2747 492.455C90.2107 496.208 92.1774 499.96 94.1734 503.714C95.2441 505.725 96.996 508.431 98.944 511.414V518.759ZM87.2347 506.076C79.5194 496.708 72.8531 486.477 67.1292 476.131C67.3418 469.276 69.2626 462.965 71.4673 457.889C76.5803 469.149 81.9827 480.212 87.648 491.239C86.7587 495.979 86.348 501.231 87.2347 506.076ZM66.3621 474.733C58.2782 459.889 52.1241 444.883 47.5839 431.904C49.9886 426.388 53.0361 421.351 55.1798 418.08C57.2943 424.064 59.5104 429.851 61.7636 435.38C64.3964 441.84 67.1246 448.208 69.9422 454.507L69.7 455.075C69.9074 455.163 70.111 455.251 70.3151 455.339C70.5454 455.851 70.7751 456.36 71.0058 456.872C68.7927 461.808 66.7922 467.981 66.3621 474.733ZM47.1584 430.68C39.8646 409.568 36.9084 394.131 36.9084 394.131C36.9172 394.136 36.9261 394.143 36.935 394.148C42.1694 398.049 47.1792 402.751 51.4531 407.245C51.5344 407.332 51.5793 407.381 51.585 407.388C52.6277 410.659 53.7105 413.889 54.8225 417.064C52.7422 420.167 49.662 425.131 47.1584 430.68Z" fill="#5EB19C"/>
<path d="M88.384 507.456C87.9987 507 87.6134 506.537 87.2347 506.076C86.348 501.231 86.7587 495.979 87.648 491.239C87.856 491.644 88.0654 492.049 88.2747 492.455C87.4481 497.336 87.1894 502.669 88.384 507.456ZM67.1292 476.131C66.8724 475.667 66.6151 475.197 66.3621 474.733C66.7922 467.981 68.7927 461.808 71.0058 456.872C71.1594 457.212 71.3131 457.551 71.4673 457.889C69.2626 462.965 67.3418 469.276 67.1292 476.131ZM47.5839 431.904C47.4407 431.495 47.2984 431.087 47.1584 430.68C49.662 425.131 52.7422 420.167 54.8225 417.064C54.9413 417.403 55.0605 417.741 55.1798 418.08C53.0361 421.351 49.9886 426.388 47.5839 431.904Z" fill="#429078"/>
<path d="M109.607 531.889C109.293 525.352 97.804 510.538 94.1733 503.714C82.2453 481.283 71.375 458.964 61.7635 435.38C46.3119 397.463 32.5724 347.297 41.7297 306.288C45.1145 291.132 55.6609 266.461 74.9745 268.8C89.408 270.548 97.9119 288.156 102.616 300.233C114.983 331.977 117.281 366.859 118.677 400.559C120.283 439.295 118.256 478.429 116.487 517.286L109.607 531.889Z" fill="#6BCCB1"/>
<path d="M70.315 455.339C70.1109 455.251 69.9073 455.163 69.7 455.075L69.9421 454.507C70.0666 454.784 70.1906 455.061 70.315 455.339Z" fill="#377963"/>
<path d="M51.1308 405.952C50.9902 405.905 50.8496 405.859 50.7085 405.811L50.9028 405.224C50.9782 405.465 51.0548 405.711 51.1308 405.952Z" fill="#A4A6A5"/>
<path d="M39.3344 348.497C39.2495 348.468 39.1631 348.437 39.0781 348.408L39.2823 347.821C39.2995 348.048 39.3161 348.271 39.3344 348.497ZM43.3464 300.201C43.338 300.199 43.3303 300.196 43.3213 300.193L43.5161 299.655C43.4588 299.837 43.4021 300.02 43.3464 300.201ZM92.7693 281.091C92.6467 280.92 92.524 280.751 92.3987 280.583L92.8067 281.057C92.8027 281.06 92.7907 281.071 92.7693 281.091ZM68.6833 269.004C68.6828 268.948 68.6828 268.912 68.6828 268.897H69.2781C69.0781 268.931 68.8812 268.965 68.6833 269.004Z" fill="#D6D8D5"/>
<path d="M98.944 476.434C98.904 476.269 98.8653 476.107 98.8253 475.941C97.608 472.769 92.4186 464.889 70.315 455.339C70.1906 455.061 70.0666 454.784 69.9421 454.507L70.1869 453.932C87.0733 461.148 94.536 467.493 97.836 471.777C94.628 458.211 91.768 445.152 89.2266 432.673L89.2173 432.652C89.1293 432.483 80.124 415.679 51.1306 405.952C51.0546 405.711 50.9781 405.465 50.9026 405.224L51.0984 404.633C73.903 412.177 84.7013 424.112 88.5706 429.405C85.0706 411.977 82.1866 395.689 79.8093 380.683L79.7625 380.58C79.662 380.365 69.4245 359.077 39.3344 348.497C39.3161 348.271 39.2994 348.048 39.2822 347.821L39.4869 347.236C63.6448 355.649 75.303 370.908 79.2625 377.209C76.3562 358.473 74.2489 341.816 72.7197 327.513C72.2604 326.855 57.139 305.231 43.3464 300.201C43.4021 300.02 43.4588 299.837 43.5161 299.655L43.7448 299.025C55.815 303.411 68.4188 319.517 72.4552 325.012C68.886 290.764 68.6921 270.679 68.6833 269.004C68.8812 268.965 69.0781 268.931 69.2781 268.897H69.925C69.9245 269.335 70.0046 288.336 73.3568 321.645C77.901 292.549 91.8466 280.244 91.9973 280.115L92.3986 280.583C92.524 280.751 92.6466 280.92 92.7693 281.091C91.924 281.851 77.3469 295.432 73.9041 326.932C75.4344 341.304 77.5489 358.073 80.4786 376.959C85.4986 356.247 92.9613 341.576 98.944 332.288V334.592C92.9333 344.288 85.688 359.272 80.9893 380.203C83.3933 395.405 86.3186 411.931 89.88 429.628C92.8453 418.98 95.9453 410.152 98.944 402.887V406.275C96.092 413.484 93.18 422.101 90.4226 432.328C92.94 444.696 95.7706 457.631 98.944 471.072V476.434Z" fill="#4CA889"/>
<path d="M427.803 531.319C435.393 529.617 445.144 525.019 453.557 521.437C471.039 514.005 488.023 504.356 503.477 493.293C514.563 485.363 526.052 473.991 531.607 461.276C534.275 455.167 536.671 445.164 532.372 439.208C521.915 424.715 491.747 446.26 483.281 453.807C460.311 474.28 440.144 502.853 427.803 531.319Z" fill="#6BCCB1"/>
<path d="M470.189 513.629C470.432 513.504 470.677 513.377 470.919 513.252L470.924 513.588C470.924 513.588 470.924 513.588 470.923 513.588C470.9 513.588 470.657 513.593 470.189 513.629ZM498.608 497.009C498.596 497.008 498.455 496.996 498.187 496.984C498.337 496.881 498.488 496.779 498.639 496.676L498.608 497.009ZM524.027 474.16C524.02 474.16 523.975 474.16 523.893 474.16C523.86 474.16 523.82 474.16 523.775 474.16C523.861 474.048 523.947 473.937 524.033 473.825L524.027 474.16ZM533.953 454.133C533.959 454.111 533.963 454.087 533.968 454.064C533.969 454.064 533.969 454.064 533.971 454.064L533.953 454.133ZM532.572 439.495C532.507 439.397 532.44 439.303 532.372 439.208L532.631 439.425C532.623 439.435 532.603 439.457 532.572 439.495ZM512.581 436.053L512.873 435.897C512.876 435.901 512.885 435.919 512.901 435.949C512.795 435.984 512.688 436.019 512.581 436.053Z" fill="#A4A6A5"/>
<path d="M444.092 521.233C443.796 521.169 443.495 521.104 443.195 521.04C444.501 520.136 445.803 519.219 447.1 518.289C447.309 517.934 447.507 517.573 447.693 517.203C448.072 516.915 448.453 516.622 448.829 516.331C448.677 516.689 448.515 517.044 448.343 517.392C455.131 512.48 461.779 507.269 468.175 501.955C468.879 500.156 469.387 498.34 469.735 496.539C470.016 496.222 470.297 495.903 470.576 495.585C470.285 497.412 469.84 499.259 469.2 501.096C477.348 494.285 485.069 487.327 492.135 480.648C494.008 476.505 493.731 470.852 492.708 465.529C492.892 465.236 493.073 464.943 493.255 464.652C494.296 469.735 494.709 475.221 493.269 479.572C502.429 470.863 510.439 462.675 516.767 455.965C517.792 446.661 512.339 436.317 512.283 436.215L512.581 436.053C512.688 436.019 512.795 435.984 512.901 435.949C513.309 436.736 518.125 446.248 517.509 455.179C526.533 445.575 531.952 439.188 532.117 438.992L532.372 439.208C532.44 439.303 532.507 439.397 532.572 439.495C531.948 440.227 526.673 446.397 518.149 455.475C522.955 454.035 526.852 453.667 529.576 453.667C532.279 453.667 533.829 454.028 533.968 454.064C533.963 454.087 533.959 454.111 533.953 454.133L533.808 454.715C533.777 454.707 532.257 454.349 529.563 454.349C526.671 454.349 522.428 454.761 517.221 456.46C510.905 463.157 502.919 471.319 493.788 480.003C509.956 473.643 522.629 473.489 523.929 473.489C523.996 473.489 524.032 473.489 524.039 473.489L524.033 473.825C523.947 473.937 523.861 474.048 523.775 474.16C521.82 474.172 508.799 474.517 492.509 481.239L492.469 481.255C485.511 487.828 477.916 494.669 469.913 501.375C484.14 496.822 493.477 496.295 497.044 496.295C498.097 496.295 498.647 496.34 498.671 496.343L498.639 496.676C498.488 496.779 498.337 496.881 498.187 496.984C497.919 496.973 497.525 496.961 497.008 496.961C493.363 496.961 483.573 497.524 468.545 502.522L468.533 502.527C462.292 507.712 455.811 512.798 449.192 517.603C463.793 513.071 470.84 512.917 470.915 512.917L470.919 513.252C470.677 513.377 470.432 513.504 470.189 513.629C467.941 513.796 460.511 514.645 447.461 518.856C446.341 519.657 445.217 520.449 444.092 521.233Z" fill="#4CA889"/>
<path d="M494.068 445.617C495.269 444.795 502.344 440.019 507.621 437.999C502.879 440.111 498.173 442.877 494.068 445.617Z" fill="#AAACAB"/>
<path d="M442.549 520.904C440.871 520.551 439.125 520.205 437.3 519.865C439.909 517.325 442.373 514.979 443.84 513.273C446.053 510.7 448.243 508.124 450.408 505.541C450.196 509.486 449.461 513.685 447.693 517.203C446.009 518.481 444.296 519.716 442.549 520.904ZM448.829 516.331C450.369 512.712 450.971 508.551 451.109 504.704C455.761 499.136 460.305 493.532 464.747 487.833C466.635 487.296 468.444 486.569 470.151 485.677C470.487 489.056 470.461 492.767 469.735 496.539C463.463 503.592 456.48 510.388 448.829 516.331ZM470.576 495.585C471.145 492.016 471.12 488.524 470.784 485.336C479.653 480.417 485.656 470.96 485.656 460.1V458.965C486.849 457.156 488.037 455.311 489.217 453.433C490.313 456.356 491.803 460.813 492.708 465.529C486.897 474.839 479.473 485.445 470.576 495.585ZM493.255 464.652C492.277 459.891 490.749 455.485 489.675 452.705C491.096 450.428 492.505 448.105 493.891 445.74H493.892C493.892 445.74 493.953 445.697 494.068 445.617C498.173 442.877 502.879 440.111 507.621 437.999C507.628 437.996 507.637 437.992 507.644 437.989C507.644 437.989 502.636 449.491 493.255 464.652Z" fill="#5EB19C"/>
<path d="M447.693 517.203C449.461 513.685 450.196 509.486 450.408 505.541C450.641 505.263 450.876 504.983 451.109 504.704C450.971 508.551 450.369 512.712 448.829 516.331C448.453 516.622 448.072 516.915 447.693 517.203ZM469.735 496.539C470.461 492.767 470.487 489.056 470.151 485.677C470.364 485.567 470.575 485.452 470.784 485.336C471.12 488.524 471.145 492.016 470.576 495.585C470.297 495.903 470.016 496.222 469.735 496.539ZM492.708 465.529C491.803 460.813 490.313 456.356 489.217 453.433C489.369 453.192 489.523 452.948 489.675 452.705C490.749 455.485 492.277 459.891 493.255 464.652C493.073 464.943 492.892 465.236 492.708 465.529Z" fill="#429078"/>
<path d="M426.883 532.505C428.273 527.471 439.816 517.952 443.84 513.273C457.063 497.9 469.439 482.427 481.057 465.751C499.739 438.935 519.232 402.285 519.293 368.747C519.315 356.353 515.428 335.296 499.98 333.729C488.436 332.559 478.728 344.779 472.947 353.357C457.751 375.907 449.845 402.661 442.849 428.657C434.805 458.536 429.523 489.364 424.085 519.928L426.883 532.505Z" fill="#6BCCB1"/>
<path d="M494.497 444.701C494.599 444.525 494.701 444.349 494.803 444.173L494.851 444.665C494.732 444.677 494.615 444.689 494.497 444.701Z" fill="#A4A6A5"/>
<path d="M513.757 402.032C513.811 401.86 513.863 401.689 513.916 401.516L513.971 402.008C513.9 402.016 513.828 402.024 513.757 402.032Z" fill="#A4A6A5"/>
<path d="M519.101 363.725C519.089 363.576 519.077 363.427 519.065 363.276L519.123 363.723C519.115 363.724 519.108 363.724 519.101 363.725ZM504.843 334.992C504.697 334.927 504.548 334.865 504.399 334.805L504.861 334.909C504.86 334.92 504.853 334.948 504.843 334.992Z" fill="#D6D8D5"/>
<path d="M431.136 518.191V516.067C435.509 507.755 439.643 499.629 443.552 491.707C443.603 490.772 443.644 489.851 443.676 488.937H444.667C444.66 489.119 444.655 489.3 444.647 489.481C444.736 489.3 444.825 489.119 444.913 488.937H446.779C445.952 489.683 445.423 490.331 445.088 490.833C440.727 499.701 436.081 508.831 431.136 518.191ZM485.656 446.103V445.091C488.441 444.488 491.471 444.003 494.753 443.68L494.803 444.173C494.701 444.349 494.599 444.525 494.497 444.701C491.305 445.028 488.363 445.511 485.656 446.103ZM485.656 412.107V410.924C491.904 406.824 501.228 402.465 513.86 401.024L513.916 401.516C513.863 401.689 513.811 401.86 513.757 402.032C501.039 403.523 491.756 408.003 485.656 412.107ZM485.656 396.247V393.345C487.461 388.344 489.113 383.617 490.62 379.181C492.745 360.395 488.271 348.315 485.656 343.103V341.012C487.867 344.865 493.229 356.331 491.973 375.16C500.424 349.812 503.819 335.031 503.896 334.692L504.399 334.805C504.548 334.865 504.697 334.927 504.843 334.992C504.544 336.292 500.871 351.896 492.085 377.939C496.193 374.368 508.829 364.036 518.997 362.74L519.065 363.276C519.077 363.427 519.089 363.576 519.101 363.725C507.48 365.221 491.913 379.408 491.441 379.84C489.707 384.937 487.783 390.415 485.656 396.247Z" fill="#4CA889"/>
<path d="M274.168 555.86C167.04 555.86 80.1938 545.404 80.1938 532.505C80.1938 529.137 86.1214 525.934 96.7828 523.041C97.5054 523.532 98.2281 524.015 98.9441 524.485V532.26H100.525H426.828L426.883 532.505C426.905 532.425 426.929 532.343 426.957 532.26H431.136V530.436C437.148 528.631 444.071 525.544 450.491 522.759C461.824 525.724 468.143 529.025 468.143 532.505C468.143 545.404 381.299 555.86 274.168 555.86Z" fill="#ACAEAD"/>
<path d="M98.944 524.485C98.228 524.015 97.5054 523.532 96.7827 523.041C97.4827 522.852 98.204 522.663 98.944 522.476V524.485Z" fill="#5FB49E"/>
<path d="M431.136 530.436V529.71C435.481 527.055 439.808 524.212 444.092 521.233C446.373 521.731 448.508 522.239 450.491 522.759C444.071 525.544 437.148 528.631 431.136 530.436ZM431.136 528.924V526.171C432.605 524.525 434.303 522.808 435.999 521.139L435.997 521.14L436.116 524.968C438.305 523.689 440.449 522.332 442.549 520.904C442.765 520.949 442.981 520.995 443.195 521.04C439.205 523.803 435.179 526.444 431.136 528.924Z" fill="#5FB49E"/>
<path d="M431.136 529.71V528.924C435.179 526.444 439.205 523.803 443.195 521.04C443.495 521.104 443.796 521.169 444.092 521.233C439.808 524.212 435.481 527.055 431.136 529.71Z" fill="#449379"/>
<path d="M436.116 524.968L435.997 521.14L435.999 521.139C436.433 520.71 436.869 520.285 437.3 519.865C439.125 520.205 440.871 520.551 442.549 520.904C440.449 522.332 438.305 523.689 436.116 524.968Z" fill="#539A8A"/>
<path d="M426.883 532.505L426.828 532.26H426.957C426.929 532.343 426.905 532.425 426.883 532.505ZM431.136 526.171V518.783C433.273 519.136 435.328 519.497 437.3 519.865C436.869 520.285 436.433 520.71 435.999 521.139C434.303 522.808 432.605 524.525 431.136 526.171Z" fill="#5FB49E"/>
<path d="M419.439 60.6093H109.059C103.473 60.6093 98.9441 65.1386 98.9441 70.7253V532.26H429.555V70.7253C429.555 65.1386 425.027 60.6093 419.439 60.6093Z" fill="#0F1828"/>
<path d="M397.259 80.1427C397.259 83.0974 394.863 85.4933 391.909 85.4933C388.953 85.4933 386.557 83.0974 386.557 80.1427C386.557 77.188 388.953 74.792 391.909 74.792C394.863 74.792 397.259 77.188 397.259 80.1427Z" fill="#F4CC52"/>
<path d="M412.857 80.1427C412.857 83.0974 410.461 85.4933 407.505 85.4933C404.551 85.4933 402.155 83.0974 402.155 80.1427C402.155 77.188 404.551 74.792 407.505 74.792C410.461 74.792 412.857 77.188 412.857 80.1427Z" fill="#F47153"/>
<path d="M376.504 74.792C373.549 74.792 371.153 77.188 371.153 80.1427C371.153 83.0974 373.549 85.4933 376.504 85.4933C379.46 85.4933 381.856 83.0974 381.856 80.1427C381.856 77.188 379.46 74.792 376.504 74.792ZM376.504 76.1253C378.719 76.1253 380.523 77.928 380.523 80.1427C380.523 82.3587 378.719 84.16 376.504 84.16C374.289 84.16 372.487 82.3587 372.487 80.1427C372.487 77.928 374.289 76.1253 376.504 76.1253Z" fill="white"/>
<path d="M399.616 93.1707H98.9441V68.5827C98.9441 64.1787 102.513 60.6093 106.917 60.6093H109.059H419.439H421.581C425.495 60.6093 428.749 63.428 429.425 67.1453C427.187 63.24 422.977 60.6093 418.155 60.6093L409.027 76.6427L405.861 73.476C405.731 73.3467 405.56 73.2813 405.389 73.2813C405.219 73.2813 405.048 73.3467 404.917 73.476C404.657 73.7373 404.657 74.1586 404.917 74.4186L408.224 77.7253L404.917 81.032C404.657 81.2933 404.657 81.7147 404.917 81.976C405.048 82.1053 405.219 82.1707 405.389 82.1707C405.56 82.1707 405.731 82.1053 405.861 81.976L406.161 81.6747L399.616 93.1707ZM134.707 75.5133V83.9133H185.341V75.5133H134.707ZM115.876 69.9973V83.9133H129.792V69.9973H115.876Z" fill="url(#paint0_linear)"/>
<path d="M397.671 77.5053H397.004C397 79.4133 395.457 80.956 393.548 80.96C391.64 80.956 390.097 79.4133 390.093 77.5053C390.097 75.5973 391.641 74.0534 393.548 74.0494C395.457 74.0534 397 75.5973 397.004 77.5053H397.671H398.337C398.337 74.8613 396.193 72.7174 393.548 72.716C390.904 72.7174 388.761 74.8613 388.76 77.5053C388.761 80.1493 390.904 82.292 393.548 82.2933C396.193 82.292 398.337 80.1493 398.337 77.5053H397.671Z" fill="white"/>
<path d="M404.917 74.4187L412.473 81.976C412.735 82.236 413.156 82.236 413.417 81.976C413.677 81.7147 413.677 81.2933 413.417 81.032L405.861 73.476C405.6 73.216 405.179 73.216 404.917 73.476C404.657 73.7374 404.657 74.1587 404.917 74.4187Z" fill="white"/>
<path d="M412.473 73.476L404.917 81.032C404.657 81.2933 404.657 81.7147 404.917 81.976C405.179 82.236 405.6 82.236 405.861 81.976L413.417 74.4187C413.677 74.1587 413.677 73.7374 413.417 73.476C413.156 73.216 412.735 73.216 412.473 73.476Z" fill="white"/>
<path d="M374.16 82.2933H382.157C382.525 82.2933 382.824 81.9947 382.824 81.6267C382.824 81.2587 382.525 80.96 382.157 80.96H374.16C373.792 80.96 373.493 81.2587 373.493 81.6267C373.493 81.9947 373.792 82.2933 374.16 82.2933Z" fill="white"/>
<path d="M115.876 83.9133H129.792V69.9972H115.876V83.9133Z" fill="url(#paint1_linear)"/>
<path d="M134.707 83.9133H185.341V75.5133H134.707V83.9133Z" fill="url(#paint2_linear)"/>
<path d="M395.496 100.407H98.9441V93.1707H399.616L395.496 100.407Z" fill="#050607"/>
<path d="M231.797 133.473H134.24C133.207 133.473 132.368 132.635 132.368 131.601V124.612C132.368 123.577 133.207 122.739 134.24 122.739H231.797C232.832 122.739 233.669 123.577 233.669 124.612V131.601C233.669 132.635 232.832 133.473 231.797 133.473Z" fill="#D4D8D9"/>
<path d="M214.989 149.329H160.991C159.957 149.329 159.119 148.492 159.119 147.457V140.468C159.119 139.433 159.957 138.596 160.991 138.596H214.989C216.024 138.596 216.863 139.433 216.863 140.468V147.457C216.863 148.492 216.024 149.329 214.989 149.329Z" fill="#B9BFC4"/>
<path d="M299.312 149.329H224.14C223.107 149.329 222.268 148.492 222.268 147.457V140.468C222.268 139.433 223.107 138.596 224.14 138.596H304.725C302.223 141.708 300.353 145.351 299.312 149.329Z" fill="#798490"/>
<path d="M243.861 165.187H189.863C188.829 165.187 187.991 164.348 187.991 163.313V156.324C187.991 155.291 188.829 154.452 189.863 154.452H243.861C244.895 154.452 245.733 155.291 245.733 156.324V163.313C245.733 164.348 244.895 165.187 243.861 165.187Z" fill="#B9BFC4"/>
<path d="M298.373 165.187H253.012C251.977 165.187 251.14 164.348 251.14 163.313V156.324C251.14 155.291 251.977 154.452 253.012 154.452H298.456C298.401 155.179 298.373 155.912 298.373 156.652V165.187Z" fill="#798490"/>
<path d="M224.637 181.043H189.863C188.829 181.043 187.991 180.204 187.991 179.169V172.181C187.991 171.147 188.829 170.308 189.863 170.308H224.637C225.671 170.308 226.509 171.147 226.509 172.181V179.169C226.509 180.204 225.671 181.043 224.637 181.043Z" fill="#B9BFC4"/>
<path d="M245.249 270.553H189.863C188.829 270.553 187.991 269.716 187.991 268.681V261.692C187.991 260.657 188.829 259.82 189.863 259.82H245.249C246.283 259.82 247.121 260.657 247.121 261.692V268.681C247.121 269.716 246.283 270.553 245.249 270.553Z" fill="#B9BFC4"/>
<path d="M298.373 270.553H254.256C253.221 270.553 252.384 269.716 252.384 268.681V261.692C252.384 260.657 253.221 259.82 254.256 259.82H298.373V270.553Z" fill="#798490"/>
<path d="M257.983 286.591H223.208C222.175 286.591 221.336 285.752 221.336 284.719V277.729C221.336 276.695 222.175 275.857 223.208 275.857H257.983C259.017 275.857 259.856 276.695 259.856 277.729V284.719C259.856 285.752 259.017 286.591 257.983 286.591Z" fill="#B9BFC4"/>
<path d="M270.181 286.591H267.703C266.669 286.591 265.831 285.752 265.831 284.719V277.729C265.831 276.695 266.669 275.857 267.703 275.857H295.607L295.344 276.317L270.181 286.591Z" fill="#798490"/>
<path d="M230.904 302.628H223.208C222.175 302.628 221.336 301.789 221.336 300.755V293.765C221.336 292.732 222.175 291.893 223.208 291.893H257.195L230.904 302.628Z" fill="#B9BFC4"/>
<path d="M279.291 133.473H240.421C239.388 133.473 238.549 132.635 238.549 131.601V124.612C238.549 123.577 239.388 122.739 240.421 122.739H279.291C280.324 122.739 281.163 123.577 281.163 124.612V131.601C281.163 132.635 280.324 133.473 279.291 133.473Z" fill="#798490"/>
<path d="M310.052 133.473H287.125C286.091 133.473 285.252 132.635 285.252 131.601V124.612C285.252 123.577 286.091 122.739 287.125 122.739H360.2C361.235 122.739 362.073 123.577 362.073 124.612V127.816H327.209C320.783 127.816 314.847 129.919 310.052 133.473Z" fill="#798490"/>
<path d="M231.797 223.232H134.24C133.207 223.232 132.368 222.393 132.368 221.36V214.371C132.368 213.336 133.207 212.499 134.24 212.499H231.797C232.832 212.499 233.669 213.336 233.669 214.371V221.36C233.669 222.393 232.832 223.232 231.797 223.232Z" fill="#D4D8D9"/>
<path d="M214.989 239.088H160.991C159.957 239.088 159.119 238.251 159.119 237.216V230.227C159.119 229.193 159.957 228.355 160.991 228.355H214.989C216.024 228.355 216.863 229.193 216.863 230.227V237.216C216.863 238.251 216.024 239.088 214.989 239.088Z" fill="#B9BFC4"/>
<path d="M298.373 239.088H224.14C223.107 239.088 222.268 238.251 222.268 237.216V230.227C222.268 229.193 223.107 228.355 224.14 228.355H298.373V239.088Z" fill="#798490"/>
<path d="M245.249 254.837H160.991C159.957 254.837 159.119 254 159.119 252.965V245.976C159.119 244.941 159.957 244.104 160.991 244.104H245.249C246.283 244.104 247.121 244.941 247.121 245.976V252.965C247.121 254 246.283 254.837 245.249 254.837Z" fill="#B9BFC4"/>
<path d="M298.373 254.837H254.256C253.221 254.837 252.384 254 252.384 252.965V245.976C252.384 244.941 253.221 244.104 254.256 244.104H298.373V254.837Z" fill="#798490"/>
<path d="M279.291 223.232H240.421C239.388 223.232 238.549 222.393 238.549 221.36V214.371C238.549 213.336 239.388 212.499 240.421 212.499H279.291C280.324 212.499 281.163 213.336 281.163 214.371V221.36C281.163 222.393 280.324 223.232 279.291 223.232Z" fill="#798490"/>
<path d="M298.373 223.232H287.125C286.091 223.232 285.252 222.393 285.252 221.36V214.371C285.252 213.336 286.091 212.499 287.125 212.499H298.373V223.232Z" fill="#798490"/>
<path d="M100.525 532.26H98.9441V100.407H110.732V351.692L100.525 355.86V532.26Z" fill="#1E2D41"/>
<path d="M431.136 127.816H429.555V68.5827C429.555 68.092 429.511 67.612 429.425 67.1453C430.515 69.0453 431.136 71.2453 431.136 73.592V127.816Z" fill="#B8BAB8"/>
<path d="M429.555 489.453V488.937H429.651C429.619 489.109 429.587 489.283 429.555 489.453Z" fill="#4D8F80"/>
<path d="M431.136 518.783C431.044 518.767 430.941 518.751 430.848 518.734C430.944 518.553 431.041 518.372 431.136 518.191V518.783ZM429.817 518.567C429.731 518.553 429.641 518.539 429.555 518.524V489.453C429.587 489.283 429.619 489.109 429.651 488.937H431.136V516.067C430.7 516.897 430.259 517.732 429.817 518.567Z" fill="#59A693"/>
<path d="M430.848 518.734C430.504 518.679 430.165 518.622 429.817 518.567C430.259 517.732 430.7 516.897 431.136 516.067V518.191C431.041 518.372 430.944 518.553 430.848 518.734Z" fill="#3E8771"/>
<path d="M431.136 532.26H426.957H429.555V530.886C430.075 530.747 430.601 530.596 431.136 530.436V532.26Z" fill="#8A8C8D"/>
<path d="M429.555 530.886V530.668C430.083 530.352 430.609 530.032 431.136 529.71V530.436C430.601 530.596 430.075 530.747 429.555 530.886ZM429.555 529.886V528.032C430.04 527.427 430.571 526.805 431.136 526.171V528.924C430.609 529.248 430.083 529.569 429.555 529.886Z" fill="#4E9082"/>
<path d="M429.555 530.668V529.886C430.083 529.569 430.609 529.248 431.136 528.924V529.71C430.609 530.032 430.083 530.352 429.555 530.668Z" fill="#367563"/>
<path d="M429.555 528.032V521.172C429.988 520.359 430.42 519.545 430.848 518.734C430.941 518.751 431.044 518.767 431.136 518.783V526.171C430.571 526.805 430.04 527.427 429.555 528.032ZM429.555 519.063V518.524C429.641 518.539 429.731 518.553 429.817 518.567C429.729 518.732 429.643 518.896 429.555 519.063Z" fill="#4E9082"/>
<path d="M429.555 521.172V519.063C429.643 518.896 429.729 518.732 429.817 518.567C430.165 518.622 430.504 518.679 430.848 518.734C430.42 519.545 429.988 520.359 429.555 521.172Z" fill="#367563"/>
<path d="M417.767 532.26H110.732V351.692L230.904 302.628H276.268C277.303 302.628 278.14 301.789 278.14 300.755V293.765C278.14 292.732 277.303 291.893 276.268 291.893H257.195L270.181 286.591H298.373V307.952C298.281 307.939 298.188 307.931 298.092 307.931H223.208C222.175 307.931 221.336 308.769 221.336 309.804V316.793C221.336 317.827 222.175 318.665 223.208 318.665H298.092C298.188 318.665 298.281 318.659 298.373 318.644V351.46H287.125C286.091 351.46 285.252 352.297 285.252 353.332V360.32C285.252 361.355 286.091 362.193 287.125 362.193H298.373V367.315H224.14C223.107 367.315 222.268 368.153 222.268 369.188V376.177C222.268 377.211 223.107 378.049 224.14 378.049H298.373V383.172H253.012C251.977 383.172 251.14 384.011 251.14 385.044V392.033C251.14 393.068 251.977 393.907 253.012 393.907H298.373V446.597H287.125C286.091 446.597 285.252 447.436 285.252 448.471V455.46C285.252 456.493 286.091 457.332 287.125 457.332H298.373V460.1C298.373 460.892 298.405 461.679 298.468 462.455H224.14C223.107 462.455 222.268 463.293 222.268 464.327V471.316C222.268 472.351 223.107 473.189 224.14 473.189H301.508C302.42 474.976 303.513 476.656 304.763 478.203H254.256C253.221 478.203 252.384 479.041 252.384 480.076V487.065C252.384 488.098 253.221 488.937 254.256 488.937H320.129C320.657 488.937 321.133 488.719 321.475 488.367C323.328 488.741 325.247 488.937 327.209 488.937H417.767V532.26ZM254.256 493.919C253.221 493.919 252.384 494.757 252.384 495.792V502.781C252.384 503.814 253.221 504.653 254.256 504.653H302.024C303.06 504.653 303.897 503.814 303.897 502.781V495.792C303.897 494.757 303.06 493.919 302.024 493.919H254.256ZM189.863 493.919C188.829 493.919 187.991 494.757 187.991 495.792V502.781C187.991 503.814 188.829 504.653 189.863 504.653H245.249C246.283 504.653 247.121 503.814 247.121 502.781V495.792C247.121 494.757 246.283 493.919 245.249 493.919H189.863ZM160.991 478.203C159.957 478.203 159.119 479.041 159.119 480.076V487.065C159.119 488.098 159.957 488.937 160.991 488.937H245.249C246.283 488.937 247.121 488.098 247.121 487.065V480.076C247.121 479.041 246.283 478.203 245.249 478.203H160.991ZM160.991 462.455C159.957 462.455 159.119 463.293 159.119 464.327V471.316C159.119 472.351 159.957 473.189 160.991 473.189H214.989C216.024 473.189 216.863 472.351 216.863 471.316V464.327C216.863 463.293 216.024 462.455 214.989 462.455H160.991ZM240.421 446.597C239.388 446.597 238.549 447.436 238.549 448.471V455.46C238.549 456.493 239.388 457.332 240.421 457.332H279.291C280.324 457.332 281.163 456.493 281.163 455.46V448.471C281.163 447.436 280.324 446.597 279.291 446.597H240.421ZM134.24 446.597C133.207 446.597 132.368 447.436 132.368 448.471V455.46C132.368 456.493 133.207 457.332 134.24 457.332H231.797C232.832 457.332 233.669 456.493 233.669 455.46V448.471C233.669 447.436 232.832 446.597 231.797 446.597H134.24ZM189.863 399.028C188.829 399.028 187.991 399.867 187.991 400.901V407.891C187.991 408.924 188.829 409.763 189.863 409.763H224.637C225.671 409.763 226.509 408.924 226.509 407.891V400.901C226.509 399.867 225.671 399.028 224.637 399.028H189.863ZM189.863 383.172C188.829 383.172 187.991 384.011 187.991 385.044V392.033C187.991 393.068 188.829 393.907 189.863 393.907H243.861C244.895 393.907 245.733 393.068 245.733 392.033V385.044C245.733 384.011 244.895 383.172 243.861 383.172H189.863ZM160.991 367.315C159.957 367.315 159.119 368.153 159.119 369.188V376.177C159.119 377.211 159.957 378.049 160.991 378.049H214.989C216.024 378.049 216.863 377.211 216.863 376.177V369.188C216.863 368.153 216.024 367.315 214.989 367.315H160.991ZM240.421 351.46C239.388 351.46 238.549 352.297 238.549 353.332V360.32C238.549 361.355 239.388 362.193 240.421 362.193H279.291C280.324 362.193 281.163 361.355 281.163 360.32V353.332C281.163 352.297 280.324 351.46 279.291 351.46H240.421ZM134.24 351.46C133.207 351.46 132.368 352.297 132.368 353.332V360.32C132.368 361.355 133.207 362.193 134.24 362.193H231.797C232.832 362.193 233.669 361.355 233.669 360.32V353.332C233.669 352.297 232.832 351.46 231.797 351.46H134.24ZM298.373 275.857H295.607L298.373 270.996V275.857ZM417.767 127.816H379.892L395.496 100.407H429.555H417.767V127.816Z" fill="#0C131F"/>
<path d="M429.555 93.1707H399.616L406.161 81.6747L409.167 78.6693L412.473 81.976C412.604 82.1053 412.775 82.1707 412.945 82.1707C413.116 82.1707 413.287 82.1053 413.417 81.976C413.677 81.7147 413.677 81.2933 413.417 81.032L410.111 77.7253L413.417 74.4186C413.677 74.1586 413.677 73.7373 413.417 73.476C413.287 73.3467 413.116 73.2813 412.945 73.2813C412.775 73.2813 412.604 73.3467 412.473 73.476L409.167 76.7827L409.027 76.6427L418.155 60.6093C422.977 60.6093 427.187 63.24 429.425 67.1453C429.511 67.612 429.555 68.092 429.555 68.5827V93.1707Z" fill="url(#paint3_linear)"/>
<path d="M412.945 82.1707C412.775 82.1707 412.604 82.1053 412.473 81.976L409.167 78.6693L410.111 77.7253L413.417 81.032C413.677 81.2933 413.677 81.7147 413.417 81.976C413.287 82.1053 413.116 82.1707 412.945 82.1707ZM408.655 77.296L409.027 76.6427L409.167 76.7827L408.655 77.296Z" fill="#CCCDCB"/>
<path d="M406.161 81.6747L408.655 77.296L409.167 76.7827L412.473 73.476C412.604 73.3467 412.775 73.2814 412.945 73.2814C413.116 73.2814 413.287 73.3467 413.417 73.476C413.677 73.7374 413.677 74.1587 413.417 74.4187L410.111 77.7253L409.167 78.6693L406.161 81.6747Z" fill="#CCCDCB"/>
<path d="M429.555 100.407H395.496L399.616 93.1707H429.555V100.407Z" fill="#050606"/>
<path d="M298.373 286.591H270.181L295.344 276.317L295.607 275.857H298.373V286.591Z" fill="#616A76"/>
<path d="M276.268 302.628H230.904L257.195 291.893H276.268C277.303 291.893 278.14 292.732 278.14 293.765V300.755C278.14 301.789 277.303 302.628 276.268 302.628Z" fill="#959A9E"/>
<path d="M298.092 318.665H223.208C222.175 318.665 221.336 317.827 221.336 316.793V309.804C221.336 308.769 222.175 307.931 223.208 307.931H298.092C298.188 307.931 298.281 307.939 298.373 307.952V318.644C298.281 318.659 298.188 318.665 298.092 318.665Z" fill="#959A9E"/>
<path d="M231.797 362.193H134.24C133.207 362.193 132.368 361.355 132.368 360.32V353.332C132.368 352.297 133.207 351.46 134.24 351.46H231.797C232.832 351.46 233.669 352.297 233.669 353.332V360.32C233.669 361.355 232.832 362.193 231.797 362.193Z" fill="#A9AEB0"/>
<path d="M214.989 378.049H160.991C159.957 378.049 159.119 377.211 159.119 376.177V369.188C159.119 368.153 159.957 367.315 160.991 367.315H214.989C216.024 367.315 216.863 368.153 216.863 369.188V376.177C216.863 377.211 216.024 378.049 214.989 378.049Z" fill="#959A9E"/>
<path d="M298.373 378.049H224.14C223.107 378.049 222.268 377.211 222.268 376.177V369.188C222.268 368.153 223.107 367.315 224.14 367.315H298.373V378.049Z" fill="#616A76"/>
<path d="M243.861 393.907H189.863C188.829 393.907 187.991 393.068 187.991 392.033V385.044C187.991 384.011 188.829 383.172 189.863 383.172H243.861C244.895 383.172 245.733 384.011 245.733 385.044V392.033C245.733 393.068 244.895 393.907 243.861 393.907Z" fill="#959A9E"/>
<path d="M298.373 393.907H253.012C251.977 393.907 251.14 393.068 251.14 392.033V385.044C251.14 384.011 251.977 383.172 253.012 383.172H298.373V393.907Z" fill="#616A76"/>
<path d="M224.637 409.763H189.863C188.829 409.763 187.991 408.924 187.991 407.891V400.901C187.991 399.867 188.829 399.028 189.863 399.028H224.637C225.671 399.028 226.509 399.867 226.509 400.901V407.891C226.509 408.924 225.671 409.763 224.637 409.763Z" fill="#959A9E"/>
<path d="M279.291 362.193H240.421C239.388 362.193 238.549 361.355 238.549 360.32V353.332C238.549 352.297 239.388 351.46 240.421 351.46H279.291C280.324 351.46 281.163 352.297 281.163 353.332V360.32C281.163 361.355 280.324 362.193 279.291 362.193Z" fill="#616A76"/>
<path d="M298.373 362.193H287.125C286.091 362.193 285.252 361.355 285.252 360.32V353.332C285.252 352.297 286.091 351.46 287.125 351.46H298.373V362.193Z" fill="#616A76"/>
<path d="M245.249 504.653H189.863C188.829 504.653 187.991 503.815 187.991 502.781V495.792C187.991 494.757 188.829 493.919 189.863 493.919H245.249C246.283 493.919 247.121 494.757 247.121 495.792V502.781C247.121 503.815 246.283 504.653 245.249 504.653Z" fill="#959A9E"/>
<path d="M302.024 504.653H254.256C253.221 504.653 252.384 503.815 252.384 502.781V495.792C252.384 494.757 253.221 493.919 254.256 493.919H302.024C303.06 493.919 303.897 494.757 303.897 495.792V502.781C303.897 503.815 303.06 504.653 302.024 504.653Z" fill="#616A76"/>
<path d="M231.797 457.332H134.24C133.207 457.332 132.368 456.493 132.368 455.46V448.471C132.368 447.436 133.207 446.597 134.24 446.597H231.797C232.832 446.597 233.669 447.436 233.669 448.471V455.46C233.669 456.493 232.832 457.332 231.797 457.332Z" fill="#A9AEB0"/>
<path d="M214.989 473.189H160.991C159.957 473.189 159.119 472.351 159.119 471.316V464.327C159.119 463.293 159.957 462.455 160.991 462.455H214.989C216.024 462.455 216.863 463.293 216.863 464.327V471.316C216.863 472.351 216.024 473.189 214.989 473.189Z" fill="#959A9E"/>
<path d="M301.508 473.189H224.14C223.107 473.189 222.268 472.351 222.268 471.316V464.327C222.268 463.293 223.107 462.455 224.14 462.455H298.468C298.779 466.295 299.841 469.921 301.508 473.189Z" fill="#616A76"/>
<path d="M245.249 488.938H160.991C159.957 488.938 159.119 488.098 159.119 487.065V480.076C159.119 479.041 159.957 478.203 160.991 478.203H245.249C246.283 478.203 247.121 479.041 247.121 480.076V487.065C247.121 488.098 246.283 488.938 245.249 488.938Z" fill="#959A9E"/>
<path d="M320.129 488.938H254.256C253.221 488.938 252.384 488.098 252.384 487.065V480.076C252.384 479.041 253.221 478.203 254.256 478.203H304.763C308.904 483.333 314.767 487.014 321.475 488.367C321.133 488.719 320.657 488.938 320.129 488.938Z" fill="#616A76"/>
<path d="M279.291 457.332H240.421C239.388 457.332 238.549 456.493 238.549 455.46V448.471C238.549 447.436 239.388 446.597 240.421 446.597H279.291C280.324 446.597 281.163 447.436 281.163 448.471V455.46C281.163 456.493 280.324 457.332 279.291 457.332Z" fill="#616A76"/>
<path d="M298.373 457.332H287.125C286.091 457.332 285.252 456.493 285.252 455.46V448.471C285.252 447.436 286.091 446.597 287.125 446.597H298.373V457.332Z" fill="#616A76"/>
<path d="M429.555 532.26H417.767V488.937H429.555V532.26ZM429.555 127.816H417.767V100.407H429.555V127.816Z" fill="#152232"/>
<path d="M110.732 532.26H100.525V355.86L110.732 351.692V532.26Z" fill="#152232"/>
<path d="M472.092 354.64V158.529C472.092 149.469 464.748 142.124 455.688 142.124H431.136V137.065H456.159C462.033 137.067 467.332 139.44 471.184 143.289C475.032 147.14 477.407 152.44 477.408 158.313V347.225C475.739 349.324 474.244 351.432 472.947 353.357C472.659 353.784 472.375 354.211 472.092 354.64ZM481.408 342.639V158.313C481.407 144.368 470.104 133.067 456.159 133.065H431.136V127.816H456.819C472.747 127.816 485.656 140.727 485.656 156.652V338.767C485.213 339.116 484.779 339.476 484.348 339.847L483.947 340.145C483.949 340.149 483.957 340.16 483.969 340.179C483.088 340.96 482.233 341.785 481.408 342.639Z" fill="#F3F2F1"/>
<path d="M431.321 480.055H431.165C431.265 479.803 431.367 479.547 431.467 479.295C431.419 479.549 431.369 479.802 431.321 480.055Z" fill="#A1D8C6"/>
<path d="M431.165 480.055H431.136V474.995H432.301C432.02 476.428 431.743 477.861 431.467 479.295C431.367 479.547 431.265 479.803 431.165 480.055Z" fill="#A9E1D1"/>
<path d="M464.747 487.833C466.363 485.761 467.967 483.675 469.555 481.575C469.801 482.868 470.009 484.243 470.151 485.677C468.444 486.569 466.635 487.296 464.747 487.833ZM470.784 485.336C470.619 483.761 470.377 482.263 470.093 480.863C470.363 480.505 470.631 480.149 470.9 479.791C471.073 479.757 471.249 479.725 471.425 479.692L471.336 479.208C471.467 479.033 471.596 478.859 471.727 478.685C475.42 475.788 478.285 471.885 479.911 467.388C480.295 466.843 480.676 466.297 481.057 465.751C482.588 463.552 484.125 461.288 485.656 458.965V460.1C485.656 470.96 479.653 480.417 470.784 485.336Z" fill="#A1D8C6"/>
<path d="M470.151 485.677C470.009 484.243 469.801 482.868 469.555 481.575C469.735 481.337 469.913 481.1 470.093 480.863C470.377 482.263 470.619 483.761 470.784 485.336C470.575 485.452 470.364 485.567 470.151 485.677Z" fill="#85CAB4"/>
<path d="M456.819 488.938H446.779C448.336 487.536 450.952 485.795 455.325 484.055H456.159V483.731V484.055C461.235 484.055 465.959 482.557 469.917 479.98C470.24 479.916 470.568 479.853 470.9 479.791C470.631 480.149 470.363 480.505 470.093 480.863C469.913 481.1 469.735 481.338 469.555 481.575C467.967 483.675 466.363 485.761 464.747 487.833C462.228 488.553 459.569 488.938 456.819 488.938ZM444.913 488.938H444.667C444.723 487.274 444.748 485.644 444.745 484.055H447.289C446.507 485.673 445.716 487.302 444.913 488.938ZM443.676 488.938H431.136V484.055H443.755C443.757 485.644 443.732 487.274 443.676 488.938ZM446.588 487.765C447.195 486.524 447.795 485.286 448.389 484.055H452.769C449.923 485.353 447.952 486.633 446.588 487.765ZM456.159 482.664V482.055V480.055H450.309C451.12 478.357 451.919 476.671 452.708 474.995H455.688C464.748 474.995 472.092 467.649 472.092 458.589V450.641C473.689 449.888 475.459 449.147 477.408 448.452V458.805C477.407 464.68 475.032 469.98 471.184 473.831C467.332 477.68 462.033 480.053 456.159 480.055V482.055V482.664ZM449.212 480.055H444.679C444.624 478.315 444.537 476.625 444.424 474.995H451.615C450.824 476.671 450.024 478.357 449.212 480.055ZM443.688 480.055H431.321C431.369 479.802 431.419 479.549 431.467 479.295C431.743 477.861 432.02 476.428 432.301 474.995H443.433C443.547 476.625 443.633 478.314 443.688 480.055ZM471.336 479.208L471.3 479.012C471.444 478.904 471.585 478.796 471.727 478.685C471.596 478.859 471.467 479.033 471.336 479.208ZM479.911 467.388C480.879 464.709 481.407 461.819 481.408 458.805V447.171C482.752 446.787 484.169 446.428 485.656 446.103V458.965C484.125 461.288 482.588 463.552 481.057 465.751C480.676 466.297 480.295 466.843 479.911 467.388ZM472.092 449.553V431.113C473.659 427.316 475.16 423.609 476.597 419.996L476.652 419.924C476.669 419.903 476.919 419.588 477.408 419.052V447.404C475.468 448.084 473.699 448.811 472.092 449.553ZM481.408 446.143V415.283C482.596 414.295 484.009 413.216 485.656 412.107V445.091C484.171 445.411 482.756 445.764 481.408 446.143ZM472.092 428.511V388.476C474.141 396.484 475.772 406.817 475.763 419.417C474.583 422.385 473.36 425.417 472.092 428.511ZM476.731 416.979C476.512 403.545 474.444 392.777 472.092 384.765V354.64C472.375 354.211 472.659 353.784 472.947 353.357C474.244 351.432 475.739 349.324 477.408 347.225V415.256C477.184 415.828 476.957 416.403 476.731 416.979ZM481.408 414.009V407.645C482.905 403.711 484.321 399.909 485.656 396.247V410.924C484.033 411.989 482.62 413.036 481.408 414.009ZM481.408 404.855V342.639C482.233 341.785 483.088 340.96 483.969 340.179C484.103 340.367 484.773 341.344 485.656 343.103V393.345C484.324 397.035 482.909 400.873 481.408 404.855ZM485.656 341.012C485.113 340.067 484.76 339.58 484.743 339.555L484.348 339.847C484.779 339.476 485.213 339.116 485.656 338.767V341.012Z" fill="#A9E1D1"/>
<path d="M483.969 340.179C483.957 340.16 483.949 340.149 483.947 340.145L484.348 339.847C484.223 339.956 484.095 340.068 483.969 340.179Z" fill="#EBEBE8"/>
<path d="M470.9 479.791C471.045 479.596 471.191 479.403 471.336 479.208L471.425 479.692C471.249 479.725 471.073 479.757 470.9 479.791Z" fill="#82BFAA"/>
<path d="M446.779 488.938H444.913C445.716 487.302 446.507 485.673 447.289 484.055H448.389C447.795 485.286 447.195 486.524 446.588 487.765C447.952 486.633 449.923 485.353 452.769 484.055H455.325C450.952 485.795 448.336 487.536 446.779 488.938ZM444.667 488.938H443.676C443.732 487.274 443.757 485.644 443.755 484.055H444.745C444.748 485.644 444.723 487.274 444.667 488.938ZM450.309 480.055H449.212C450.024 478.357 450.824 476.671 451.615 474.995H452.708C451.919 476.671 451.12 478.357 450.309 480.055ZM444.679 480.055H443.688C443.633 478.314 443.547 476.625 443.433 474.995H444.424C444.537 476.625 444.624 478.315 444.679 480.055ZM469.917 479.98C470.389 479.672 470.851 479.35 471.3 479.012L471.336 479.208C471.191 479.403 471.045 479.596 470.9 479.791C470.568 479.853 470.24 479.916 469.917 479.98ZM472.092 450.641V449.553C473.699 448.811 475.468 448.084 477.408 447.404V448.452C475.459 449.147 473.689 449.888 472.092 450.641ZM481.408 447.171V446.143C482.756 445.764 484.171 445.411 485.656 445.091V446.103C484.169 446.428 482.752 446.787 481.408 447.171ZM472.092 431.113V428.511C473.36 425.417 474.583 422.385 475.763 419.417C475.772 406.817 474.141 396.484 472.092 388.476V384.765C474.444 392.777 476.512 403.545 476.731 416.979C476.957 416.403 477.184 415.828 477.408 415.256V419.052C476.919 419.588 476.669 419.903 476.652 419.924L476.597 419.996C475.16 423.609 473.659 427.316 472.092 431.113ZM481.408 415.283V414.009C482.62 413.036 484.033 411.989 485.656 410.924V412.107C484.009 413.216 482.596 414.295 481.408 415.283ZM481.408 407.645V404.855C482.909 400.873 484.324 397.035 485.656 393.345V396.247C484.321 399.909 482.905 403.711 481.408 407.645ZM485.656 343.103C484.773 341.344 484.103 340.367 483.969 340.179C484.095 340.068 484.223 339.956 484.348 339.847L484.743 339.555C484.76 339.58 485.113 340.067 485.656 341.012V343.103Z" fill="#88D6BD"/>
<path d="M298.373 270.996V270.553H298.625L298.373 270.996ZM302.623 259.917C302.435 259.853 302.233 259.82 302.024 259.82H298.373V254.837H302.623V259.917ZM306.623 256.508V254.837H307.573L306.623 256.508ZM311.937 244.104H306.623V239.088H307.521C308.555 239.088 309.393 238.251 309.393 237.216V230.227C309.393 229.193 308.555 228.355 307.521 228.355H306.623V223.232H311.937V244.104ZM302.623 244.104H298.373V239.088H302.623V244.104ZM302.623 228.355H298.373V223.232H302.623V228.355ZM311.937 212.499H306.623V165.187H311.937V212.499ZM302.623 212.499H298.373V165.187H302.623V212.499ZM312.448 154.452H306.972C307.344 152.423 308.004 150.496 308.909 148.713C309.112 148.489 309.261 148.216 309.337 147.912C310.293 146.213 311.476 144.66 312.845 143.288C313.215 142.92 313.596 142.565 313.991 142.225V147.457C313.991 148.152 314.369 148.757 314.931 149.081C313.8 150.683 312.948 152.497 312.448 154.452ZM302.916 154.452H298.456C298.589 152.696 298.879 150.983 299.312 149.329H304.268C303.645 150.963 303.188 152.677 302.916 154.452ZM371.745 142.124H338.775V140.468C338.775 139.433 337.937 138.596 336.904 138.596H319.935C322.385 137.608 325.061 137.065 327.869 137.065H374.625L371.745 142.124ZM309.393 141.107V140.468C309.393 139.433 308.555 138.596 307.521 138.596H304.725C306.273 136.669 308.065 134.947 310.052 133.473H323.325C317.868 134.465 313.021 137.212 309.393 141.107ZM376.903 133.065H361.368C361.797 132.723 362.073 132.193 362.073 131.601V127.816H379.892L376.903 133.065Z" fill="#798490"/>
<path d="M314.931 149.081C314.369 148.757 313.991 148.152 313.991 147.457V142.225C315.747 140.708 317.751 139.476 319.935 138.596H336.904C337.937 138.596 338.775 139.433 338.775 140.468V142.124H328.343C322.8 142.124 317.9 144.872 314.931 149.081Z" fill="#DBDEDE"/>
<path d="M304.268 149.329H299.312C300.353 145.351 302.223 141.708 304.725 138.596H307.521C308.555 138.596 309.393 139.433 309.393 140.468V141.107C307.192 143.471 305.439 146.256 304.268 149.329ZM308.909 148.713C309.047 148.443 309.189 148.176 309.337 147.912C309.261 148.216 309.112 148.489 308.909 148.713Z" fill="#B9C0C4"/>
<path d="M311.937 165.187H306.623V158.313C306.623 156.993 306.743 155.703 306.972 154.452H312.448C312.115 155.756 311.937 157.121 311.937 158.529V165.187ZM302.623 165.187H298.373V156.652C298.373 155.912 298.401 155.179 298.456 154.452H302.916C302.723 155.711 302.623 157 302.623 158.313V165.187Z" fill="#B9C0C4"/>
<path d="M298.625 270.553H298.373V259.82H302.024C302.233 259.82 302.435 259.853 302.623 259.917V263.533L298.625 270.553Z" fill="#B9C0C4"/>
<path d="M323.325 133.473H310.052C314.847 129.919 320.783 127.816 327.209 127.816H362.073V131.601C362.073 132.193 361.797 132.723 361.368 133.065H327.869C326.319 133.065 324.8 133.205 323.325 133.473Z" fill="#B9C0C4"/>
<path d="M307.521 239.088H306.623V228.355H307.521C308.555 228.355 309.393 229.193 309.393 230.227V237.216C309.393 238.251 308.555 239.088 307.521 239.088ZM302.623 239.088H298.373V228.355H302.623V239.088Z" fill="#B9C0C4"/>
<path d="M307.573 254.837H306.623V244.104H311.937V247.172L307.573 254.837ZM302.623 254.837H298.373V244.104H302.623V254.837Z" fill="#B9C0C4"/>
<path d="M311.937 223.232H306.623V212.499H311.937V223.232ZM302.623 223.232H298.373V212.499H302.623V223.232Z" fill="#B9C0C4"/>
<path d="M431.136 142.124H429.555V137.065H431.136V142.124ZM431.136 133.065H429.555V127.816H431.136V133.065Z" fill="#DBDCD9"/>
<path d="M429.651 488.938H429.555V484.08C429.557 484.071 429.561 484.063 429.564 484.055H430.561C430.256 485.68 429.952 487.31 429.651 488.938Z" fill="#99C6B8"/>
<path d="M429.555 484.08V484.055H429.564C429.561 484.063 429.557 484.071 429.555 484.08ZM431.136 480.055H429.555V474.995H431.136V480.055Z" fill="#9FD2C2"/>
<path d="M431.136 488.938H429.651C429.952 487.31 430.256 485.68 430.561 484.055H431.136V488.938Z" fill="#9FD2C2"/>
<path d="M417.767 488.938H327.209C325.247 488.938 323.328 488.741 321.475 488.367C321.8 488.031 322.001 487.571 322.001 487.065V483.368C323.419 483.707 324.884 483.924 326.383 484.012V487.065C326.383 488.098 327.221 488.938 328.255 488.938H353.677C354.711 488.938 355.549 488.098 355.549 487.065V484.055H417.767V488.938ZM417.767 480.055H355.549C355.539 479.031 354.704 478.203 353.677 478.203H328.255C327.245 478.203 326.421 479.003 326.384 480.004C324.789 479.893 323.243 479.608 321.765 479.165C321.445 478.592 320.832 478.203 320.129 478.203H319.181C316.808 477.138 314.665 475.649 312.845 473.831C311.503 472.487 310.339 470.965 309.393 469.305V464.327C309.393 463.293 308.555 462.455 307.521 462.455H306.935C306.729 461.269 306.623 460.051 306.623 458.805V457.332H311.937V458.589C311.937 461.475 312.683 464.187 313.991 466.543V471.316C313.991 472.351 314.829 473.189 315.863 473.189H320.852C323.097 474.343 325.644 474.995 328.343 474.995H417.767V480.055ZM311.707 478.203H304.763C303.513 476.656 302.42 474.976 301.508 473.189H307.117C308.416 475.06 309.963 476.748 311.707 478.203ZM302.884 462.455H298.468C298.405 461.679 298.373 460.892 298.373 460.1V457.332H302.623V458.805C302.623 460.045 302.712 461.263 302.884 462.455ZM311.937 446.597H306.623V393.907H311.937V446.597ZM302.623 446.597H298.373V393.907H302.623V446.597ZM311.937 383.172H306.623V378.049H307.521C308.555 378.049 309.393 377.211 309.393 376.177V369.188C309.393 368.153 308.555 367.315 307.521 367.315H306.623V362.193H311.937V383.172ZM302.623 383.172H298.373V378.049H302.623V383.172ZM302.623 367.315H298.373V362.193H302.623V367.315ZM311.937 351.46H306.623V318.604C306.775 318.644 306.935 318.665 307.099 318.665H311.937V351.46ZM302.623 351.46H298.373V318.644C299.275 318.508 299.965 317.731 299.965 316.793V309.804C299.965 308.865 299.275 308.088 298.373 307.952V286.591H302.623V351.46ZM306.623 307.992V286.591H311.937V307.931H307.099C306.935 307.931 306.775 307.952 306.623 307.992ZM311.937 275.857H306.623V256.508L307.573 254.837H311.937V259.82H311.265C310.232 259.82 309.393 260.657 309.393 261.692V268.681C309.393 269.716 310.232 270.553 311.265 270.553H311.937V275.857ZM302.623 275.857H298.373V270.996L298.625 270.553H302.024C302.233 270.553 302.435 270.519 302.623 270.456V275.857ZM417.767 142.124H371.745L374.625 137.065H417.767V142.124ZM417.767 133.065H376.903L379.892 127.816H417.767V133.065Z" fill="#77828D"/>
<path d="M302.024 270.553H298.625L302.623 263.533V270.456C302.435 270.519 302.233 270.553 302.024 270.553Z" fill="#ACB1B5"/>
<path d="M311.937 270.553H311.265C310.232 270.553 309.393 269.716 309.393 268.681V261.692C309.393 260.657 310.232 259.82 311.265 259.82H311.937V270.553Z" fill="#ACB1B5"/>
<path d="M311.937 286.591H306.623V275.857H311.937V286.591ZM302.623 286.591H298.373V275.857H302.623V286.591Z" fill="#ACB1B5"/>
<path d="M298.373 318.644V307.952C299.275 308.088 299.965 308.865 299.965 309.804V316.793C299.965 317.731 299.275 318.508 298.373 318.644Z" fill="#C8CBCB"/>
<path d="M311.937 318.665H307.099C306.935 318.665 306.775 318.644 306.623 318.604V307.992C306.775 307.952 306.935 307.931 307.099 307.931H311.937V318.665Z" fill="#ACB1B5"/>
<path d="M307.521 378.049H306.623V367.315H307.521C308.555 367.315 309.393 368.153 309.393 369.188V376.177C309.393 377.211 308.555 378.049 307.521 378.049ZM302.623 378.049H298.373V367.315H302.623V378.049Z" fill="#ACB1B5"/>
<path d="M311.937 393.907H306.623V383.172H311.937V393.907ZM302.623 393.907H298.373V383.172H302.623V393.907Z" fill="#ACB1B5"/>
<path d="M311.937 362.193H306.623V351.46H311.937V362.193ZM302.623 362.193H298.373V351.46H302.623V362.193Z" fill="#ACB1B5"/>
<path d="M311.937 254.837H307.573L311.937 247.172V254.837Z" fill="#ACB1B5"/>
<path d="M320.852 473.189H315.863C314.829 473.189 313.991 472.351 313.991 471.316V466.543C315.567 469.381 317.96 471.701 320.852 473.189Z" fill="#C8CBCB"/>
<path d="M307.117 473.189H301.508C299.841 469.921 298.779 466.295 298.468 462.455H302.884C303.456 466.401 304.94 470.053 307.117 473.189ZM309.393 469.305C308.204 467.217 307.359 464.909 306.935 462.455H307.521C308.555 462.455 309.393 463.293 309.393 464.327V469.305Z" fill="#ACB1B5"/>
<path d="M353.677 488.938H328.255C327.221 488.938 326.383 488.098 326.383 487.065V484.012C326.875 484.04 327.371 484.055 327.869 484.055H355.549V487.065C355.549 488.098 354.711 488.938 353.677 488.938ZM355.549 480.055H327.869C327.369 480.055 326.875 480.037 326.384 480.004C326.421 479.003 327.245 478.203 328.255 478.203H353.677C354.704 478.203 355.539 479.031 355.549 480.055Z" fill="#C8CBCB"/>
<path d="M321.475 488.367C314.767 487.014 308.904 483.333 304.763 478.203H311.707C314.648 480.656 318.153 482.452 322.001 483.368V487.065C322.001 487.571 321.8 488.031 321.475 488.367ZM321.765 479.165C320.879 478.9 320.015 478.577 319.181 478.203H320.129C320.832 478.203 321.445 478.592 321.765 479.165Z" fill="#ACB1B5"/>
<path d="M311.937 457.332H306.623V446.597H311.937V457.332ZM302.623 457.332H298.373V446.597H302.623V457.332Z" fill="#ACB1B5"/>
<path d="M429.555 488.938H417.767V484.055H429.555V488.938ZM429.555 480.055H417.767V474.995H429.555V480.055ZM429.555 142.124H417.767V137.065H429.555V142.124ZM429.555 133.065H417.767V127.816H429.555V133.065Z" fill="#838C95"/>
<path d="M463.323 369.959C465.06 357.523 465.979 344.849 465.639 332.487C465.716 332.449 465.793 332.413 465.871 332.376L465.62 331.845C465.197 318.237 463.24 305.023 459.159 292.924C458.568 291.172 457.855 289.291 457.025 287.347C457.032 287.343 457.04 287.339 457.047 287.336L456.819 286.868C455.711 284.316 454.401 281.669 452.903 279.079H456.131V194.293C456.131 188.096 451.107 183.072 444.911 183.072H431.136V142.124H455.688C464.748 142.124 472.092 149.469 472.092 158.529V354.64C469.292 358.903 466.744 363.308 464.407 367.827L464.003 368.101C464.009 368.112 464.06 368.188 464.148 368.327C463.871 368.869 463.595 369.413 463.323 369.959Z" fill="#FBFBFA"/>
<path d="M432.301 474.995H431.136V447.144C433.396 445.211 436.216 443.087 439.74 440.789C439.316 442.524 438.9 444.263 438.492 446.003L437.839 446.263C437.848 446.287 437.98 446.624 438.2 447.253C436.061 456.445 434.123 465.707 432.301 474.995ZM431.136 445.593V426.124H443.533C443.304 426.969 443.076 427.813 442.849 428.657C441.913 432.133 441.015 435.624 440.149 439.123C436.499 441.447 433.537 443.608 431.136 445.593ZM449.892 404.14H436.253C440.437 399.904 446.323 395.143 454.443 390.744C452.816 395.168 451.311 399.643 449.892 404.14ZM434.621 404.14H431.136V365.756C433.021 361.359 441.781 343.828 465.639 332.487C465.979 344.849 465.06 357.523 463.323 369.959C460.225 376.163 457.507 382.564 455.059 389.083C445.683 393.993 439.116 399.423 434.621 404.14ZM431.136 363V357.475C431.796 341.985 432.049 328.119 432.059 316.039C432.425 315.372 444.523 293.465 457.025 287.347C457.855 289.291 458.568 291.172 459.159 292.924C463.24 305.023 465.197 318.237 465.62 331.845L465.368 331.311C444.045 341.373 434.503 356.348 431.136 363ZM432.059 313.653C432.032 299.428 431.671 287.8 431.259 279.079H452.903C454.401 281.669 455.711 284.316 456.819 286.868L456.531 286.277C445.588 291.62 435.315 308.068 432.059 313.653Z" fill="#D9F2EA"/>
<path d="M465.639 332.487C465.633 332.273 465.627 332.057 465.62 331.845L465.871 332.376C465.793 332.413 465.716 332.449 465.639 332.487ZM457.025 287.347C456.957 287.188 456.888 287.028 456.819 286.868L457.047 287.336C457.04 287.339 457.032 287.343 457.025 287.347Z" fill="#F7F7F6"/>
<path d="M431.136 447.144V445.593C433.537 443.608 436.499 441.447 440.149 439.123C440.012 439.68 439.876 440.232 439.74 440.789C436.216 443.087 433.396 445.211 431.136 447.144ZM436.253 404.14H434.621C439.116 399.423 445.683 393.993 455.059 389.083C454.852 389.635 454.645 390.191 454.443 390.744C446.323 395.143 440.437 399.904 436.253 404.14ZM431.136 365.756V363C434.503 356.348 444.045 341.373 465.368 331.311L465.62 331.845C465.627 332.057 465.633 332.273 465.639 332.487C441.781 343.828 433.021 361.359 431.136 365.756ZM431.136 357.475V279.079H431.259C431.671 287.8 432.032 299.428 432.059 313.653C435.315 308.068 445.588 291.62 456.531 286.277L456.819 286.868C456.888 287.028 456.957 287.188 457.025 287.347C444.523 293.465 432.425 315.372 432.059 316.039C432.049 328.119 431.796 341.985 431.136 357.475Z" fill="#C9ECE0"/>
<path d="M455.688 474.995H452.708C455.303 469.485 457.783 464.092 460.148 458.827L460.16 458.812C460.22 458.743 463.871 454.523 472.092 450.641V458.589C472.092 467.649 464.748 474.995 455.688 474.995ZM451.615 474.995H444.424C443.191 457.18 438.816 446.039 438.759 445.896L438.492 446.003C438.9 444.263 439.316 442.524 439.74 440.789C439.876 440.232 440.012 439.68 440.149 439.123C441.015 435.624 441.913 432.133 442.849 428.657C443.076 427.813 443.304 426.969 443.533 426.124H451.591C452.863 426.124 454.013 425.6 454.837 424.757C456.828 432.661 458.663 443.647 459.277 458.348C456.843 463.765 454.289 469.319 451.615 474.995ZM443.433 474.995H432.301C434.123 465.707 436.061 456.445 438.2 447.253C439.271 450.328 442.415 460.383 443.433 474.995ZM461.233 456.397C465.16 447.596 468.773 439.155 472.092 431.113V449.553C466.716 452.039 463.176 454.699 461.233 456.397ZM460.175 456.34C459.455 441.975 457.604 431.313 455.625 423.667C455.948 423.043 456.131 422.335 456.131 421.584V408.68C456.131 406.173 454.097 404.14 451.591 404.14H449.892C451.311 399.643 452.816 395.168 454.443 390.744C454.645 390.191 454.852 389.635 455.059 389.083C457.507 382.564 460.225 376.163 463.323 369.959C463.595 369.413 463.871 368.869 464.148 368.327C464.963 369.617 469.004 376.404 472.092 388.476V428.511C468.487 437.312 464.521 446.607 460.175 456.34ZM472.092 384.765C468.775 373.464 464.891 367.643 464.821 367.543L464.407 367.827C466.744 363.308 469.292 358.903 472.092 354.64V384.765Z" fill="#D9F2EA"/>
<path d="M438.2 447.253C437.98 446.624 437.848 446.287 437.839 446.263L438.492 446.003C438.395 446.419 438.296 446.836 438.2 447.253Z" fill="#C9ECE0"/>
<path d="M464.148 368.327C464.06 368.188 464.009 368.112 464.003 368.101L464.407 367.827C464.32 367.992 464.233 368.161 464.148 368.327Z" fill="#F7F7F6"/>
<path d="M452.708 474.995H451.615C454.289 469.319 456.843 463.765 459.277 458.348C458.663 443.647 456.828 432.661 454.837 424.757C455.151 424.436 455.417 424.069 455.625 423.667C457.604 431.313 459.455 441.975 460.175 456.34C464.521 446.607 468.487 437.312 472.092 428.511V431.113C468.773 439.155 465.16 447.596 461.233 456.397C463.176 454.699 466.716 452.039 472.092 449.553V450.641C463.871 454.523 460.22 458.743 460.16 458.812L460.148 458.827C457.783 464.092 455.303 469.485 452.708 474.995ZM444.424 474.995H443.433C442.415 460.383 439.271 450.328 438.2 447.253C438.296 446.836 438.395 446.419 438.492 446.003L438.759 445.896C438.816 446.039 443.191 457.18 444.424 474.995ZM472.092 388.476C469.004 376.404 464.963 369.617 464.148 368.327C464.233 368.161 464.32 367.992 464.407 367.827L464.821 367.543C464.891 367.643 468.775 373.464 472.092 384.765V388.476Z" fill="#C9ECE0"/>
<path d="M313.684 244.104H311.937V223.232H325.568L322.651 228.355H315.863C314.829 228.355 313.991 229.193 313.991 230.227V237.216C313.991 238.251 314.829 239.088 315.863 239.088H316.54L313.684 244.104ZM327.743 212.499H311.937V165.187H358.615L348.432 183.072H338.964C332.765 183.072 327.743 188.096 327.743 194.293V212.499ZM364.727 154.452H312.448C312.948 152.497 313.8 150.683 314.931 149.081C315.205 149.239 315.524 149.329 315.863 149.329H336.904C337.937 149.329 338.775 148.492 338.775 147.457V142.124H371.745L364.727 154.452Z" fill="#C6CBCE"/>
<path d="M336.904 149.329H315.863C315.524 149.329 315.205 149.239 314.931 149.081C317.9 144.872 322.8 142.124 328.343 142.124H338.775V147.457C338.775 148.492 337.937 149.329 336.904 149.329Z" fill="#F0F1F1"/>
<path d="M358.615 165.187H311.937V158.529C311.937 157.121 312.115 155.756 312.448 154.452H364.727L358.615 165.187Z" fill="#E3E5E5"/>
<path d="M316.54 239.088H315.863C314.829 239.088 313.991 238.251 313.991 237.216V230.227C313.991 229.193 314.829 228.355 315.863 228.355H322.651L316.54 239.088Z" fill="#F0F1F1"/>
<path d="M311.937 247.172V244.104H313.684L311.937 247.172Z" fill="#E3E5E5"/>
<path d="M325.568 223.232H311.937V212.499H327.743V219.412L325.568 223.232Z" fill="#E3E5E5"/>
<path d="M429.555 183.072H431.136V142.124H429.555V183.072Z" fill="#F0F0EE"/>
<path d="M431.136 474.995H429.555V448.549C430.049 448.092 430.575 447.624 431.136 447.144V474.995ZM429.555 446.945V426.124H431.136V445.593C430.58 446.053 430.053 446.504 429.555 446.945ZM431.136 404.14H429.555V385.821C430.003 379.289 430.379 372.973 430.692 366.883L430.725 366.783C430.735 366.756 430.864 366.393 431.136 365.756V404.14ZM430.86 363.555C430.96 361.501 431.052 359.475 431.136 357.475V363C431.04 363.192 430.948 363.377 430.86 363.555ZM429.689 363.439C429.644 363.315 429.599 363.188 429.555 363.065V310.191C430.029 311.924 430.475 313.731 430.884 315.609C430.879 329.313 430.561 345.339 429.689 363.439ZM430.871 310.569C430.455 309.008 430.015 307.505 429.555 306.055V279.079H430.08C430.463 287.152 430.803 297.729 430.871 310.569Z" fill="#D5EDE4"/>
<path d="M429.555 448.549V446.945C430.053 446.504 430.58 446.053 431.136 445.593V447.144C430.575 447.624 430.049 448.092 429.555 448.549ZM429.555 385.821V363.065C429.599 363.188 429.644 363.315 429.689 363.439C430.561 345.339 430.879 329.313 430.884 315.609C430.475 313.731 430.029 311.924 429.555 310.191V306.055C430.015 307.505 430.455 309.008 430.871 310.569C430.803 297.729 430.463 287.152 430.08 279.079H431.136V357.475C431.052 359.475 430.96 361.501 430.86 363.555C430.948 363.377 431.04 363.192 431.136 363V365.756C430.864 366.393 430.735 366.756 430.725 366.783L430.692 366.883C430.379 372.973 430.003 379.289 429.555 385.821Z" fill="#C8E7DB"/>
<path d="M417.767 474.995H328.343C325.644 474.995 323.097 474.343 320.852 473.189H336.904C337.937 473.189 338.775 472.351 338.775 471.316V464.327C338.775 463.293 337.937 462.455 336.904 462.455H315.863C314.829 462.455 313.991 463.293 313.991 464.327V466.543C312.683 464.187 311.937 461.475 311.937 458.589V457.332H360.2C361.235 457.332 362.073 456.493 362.073 455.46V448.471C362.073 447.436 361.235 446.597 360.2 446.597H311.937V393.907H365.847C366.88 393.907 367.719 393.068 367.719 392.033V385.044C367.719 384.011 366.88 383.172 365.847 383.172H311.937V362.193H360.2C361.235 362.193 362.073 361.355 362.073 360.32V353.332C362.073 352.297 361.235 351.46 360.2 351.46H311.937V318.665H365.847C366.88 318.665 367.719 317.827 367.719 316.793V309.804C367.719 308.769 366.88 307.931 365.847 307.931H311.937V286.591H329.448C330.481 286.591 331.32 285.752 331.32 284.719V279.079H337.021V284.719C337.021 285.752 337.859 286.591 338.893 286.591H365.847C366.88 286.591 367.719 285.752 367.719 284.719V279.079H417.767V404.14H336.747C334.24 404.14 332.207 406.173 332.207 408.68V421.584C332.207 424.092 334.24 426.124 336.747 426.124H417.767V430.196H364.921C363.949 430.196 363.161 430.985 363.161 431.959V434.58C363.161 435.552 363.949 436.34 364.921 436.34H417.767V474.995ZM315.863 367.315C314.829 367.315 313.991 368.153 313.991 369.188V376.177C313.991 377.211 314.829 378.049 315.863 378.049H336.904C337.937 378.049 338.775 377.211 338.775 376.177V369.188C338.775 368.153 337.937 367.315 336.904 367.315H315.863ZM327.743 275.857H311.937V270.553H327.743V275.857ZM327.743 259.82H311.937V254.837H320.129C321.163 254.837 322.001 254 322.001 252.965V245.976C322.001 244.941 321.163 244.104 320.129 244.104H313.684L316.54 239.088H327.743V244.175C326.957 244.397 326.383 245.12 326.383 245.976V252.965C326.383 253.821 326.957 254.543 327.743 254.767V259.82ZM327.743 228.355H322.651L325.568 223.232H327.743V228.355ZM417.767 183.072H348.432L358.615 165.187H394.252C395.287 165.187 396.125 164.348 396.125 163.313V156.324C396.125 155.291 395.287 154.452 394.252 154.452H364.727L371.745 142.124H417.767V183.072Z" fill="#C6CACC"/>
<path d="M394.252 165.187H358.615L364.727 154.452H394.252C395.287 154.452 396.125 155.291 396.125 156.324V163.313C396.125 164.348 395.287 165.187 394.252 165.187Z" fill="#DCDEDE"/>
<path d="M311.937 270.553H327.742V259.82H311.937V270.553Z" fill="#DCDEDE"/>
<path d="M329.448 286.591H311.937V275.857H327.743V279.079H331.32V284.719C331.32 285.752 330.481 286.591 329.448 286.591Z" fill="#DCDEDE"/>
<path d="M365.847 286.591H338.893C337.859 286.591 337.021 285.752 337.021 284.719V279.079H367.719V284.719C367.719 285.752 366.88 286.591 365.847 286.591Z" fill="#DCDEDE"/>
<path d="M365.847 318.665H311.937V307.931H365.847C366.88 307.931 367.719 308.769 367.719 309.804V316.793C367.719 317.827 366.88 318.665 365.847 318.665Z" fill="#DCDEDE"/>
<path d="M336.904 378.049H315.863C314.829 378.049 313.991 377.211 313.991 376.177V369.188C313.991 368.153 314.829 367.315 315.863 367.315H336.904C337.937 367.315 338.775 368.153 338.775 369.188V376.177C338.775 377.211 337.937 378.049 336.904 378.049Z" fill="#E8EAE9"/>
<path d="M365.847 393.907H311.937V383.172H365.847C366.88 383.172 367.719 384.011 367.719 385.044V392.033C367.719 393.068 366.88 393.907 365.847 393.907Z" fill="#DCDEDE"/>
<path d="M360.2 362.193H311.937V351.46H360.2C361.235 351.46 362.073 352.297 362.073 353.332V360.32C362.073 361.355 361.235 362.193 360.2 362.193Z" fill="#DCDEDE"/>
<path d="M327.743 239.088H316.54L322.651 228.355H327.743V239.088Z" fill="#E8EAE9"/>
<path d="M327.743 254.767C326.957 254.543 326.383 253.821 326.383 252.965V245.976C326.383 245.12 326.957 244.397 327.743 244.175V254.767Z" fill="#E8EAE9"/>
<path d="M320.129 254.837H311.937V247.172L313.684 244.104H320.129C321.163 244.104 322.001 244.941 322.001 245.976V252.965C322.001 254 321.163 254.837 320.129 254.837Z" fill="#DCDEDE"/>
<path d="M327.743 223.232H325.568L327.743 219.412V223.232Z" fill="#DCDEDE"/>
<path d="M336.904 473.189H320.852C317.96 471.701 315.567 469.381 313.991 466.543V464.327C313.991 463.293 314.829 462.455 315.863 462.455H336.904C337.937 462.455 338.775 463.293 338.775 464.327V471.316C338.775 472.351 337.937 473.189 336.904 473.189Z" fill="#E8EAE9"/>
<path d="M360.2 457.332H311.937V446.597H360.2C361.235 446.597 362.073 447.436 362.073 448.471V455.46C362.073 456.493 361.235 457.332 360.2 457.332Z" fill="#DCDEDE"/>
<path d="M429.555 474.995H417.767V436.34H420.021C420.993 436.34 421.783 435.552 421.783 434.58V431.959C421.783 430.985 420.993 430.196 420.021 430.196H417.767V426.124H429.555V474.995ZM429.555 404.14H417.767V279.079H429.555V306.055V310.191V404.14ZM429.555 183.072H417.767V142.124H429.555V183.072Z" fill="#CBD0D0"/>
<path d="M414.879 154.565H368.613C363.717 154.565 359.751 150.597 359.751 145.701V134.919H424.28V145.164C424.28 150.356 420.071 154.565 414.879 154.565Z" fill="#0F1828"/>
<path d="M456.159 482.055V480.055H327.869C321.996 480.053 316.697 477.68 312.845 473.831C308.997 469.98 306.624 464.68 306.623 458.805V158.313C306.624 152.44 308.997 147.14 312.845 143.288C316.697 139.44 321.996 137.067 327.869 137.065H456.159C462.033 137.067 467.332 139.44 471.184 143.289C475.032 147.14 477.407 152.44 477.408 158.313V458.805C477.407 464.68 475.032 469.98 471.184 473.831C467.332 477.68 462.033 480.053 456.159 480.055V482.055V484.055C470.104 484.053 481.407 472.751 481.408 458.805V158.313C481.407 144.368 470.104 133.067 456.159 133.065H327.869C313.925 133.067 302.624 144.368 302.623 158.313V458.805C302.624 472.751 313.925 484.053 327.869 484.055H456.159V482.055Z" fill="#0F1828"/>
<path d="M373.108 146.731C373.108 148.167 371.944 149.331 370.508 149.331C369.072 149.331 367.908 148.167 367.908 146.731C367.908 145.295 369.072 144.131 370.508 144.131C371.944 144.131 373.108 145.295 373.108 146.731Z" fill="#6A6E70"/>
<path d="M404.579 148.353H379.451C378.601 148.353 377.915 147.665 377.915 146.816V146.645C377.915 145.796 378.601 145.108 379.451 145.108H404.579C405.427 145.108 406.116 145.796 406.116 146.645V146.816C406.116 147.665 405.427 148.353 404.579 148.353Z" fill="#6A6E70"/>
<path d="M342.768 457.595L343.24 457.124L337.96 451.843C337.836 451.719 337.664 451.647 337.488 451.647C337.313 451.647 337.141 451.719 337.017 451.843L331.736 457.124C331.612 457.248 331.54 457.42 331.54 457.595V462.875C331.54 463.051 331.612 463.223 331.736 463.347C331.86 463.471 332.032 463.541 332.207 463.541H342.768C342.944 463.541 343.116 463.471 343.24 463.347C343.364 463.223 343.435 463.051 343.435 462.875V457.595C343.435 457.42 343.364 457.248 343.24 457.124L342.768 457.595H342.101V462.208H332.873V457.871L337.488 453.256L342.297 458.067L342.768 457.595H342.101H342.768Z" fill="#292A2C"/>
<path d="M398.279 457.595H397.612C397.608 460.141 395.545 462.204 392.997 462.208C390.449 462.204 388.389 460.143 388.384 457.595C388.389 455.047 390.449 452.985 392.997 452.98C395.545 452.985 397.608 455.047 397.612 457.595H398.279H398.945C398.945 454.309 396.283 451.648 392.997 451.647C389.712 451.648 387.051 454.311 387.051 457.595C387.051 460.879 389.712 463.541 392.997 463.541C396.283 463.541 398.945 460.879 398.945 457.595H398.279Z" fill="#292A2C"/>
<path d="M452.1 462.875V453.981C452.1 453.613 451.801 453.315 451.433 453.315C451.065 453.315 450.767 453.613 450.767 453.981V462.875C450.767 463.243 451.065 463.541 451.433 463.541C451.801 463.541 452.1 463.243 452.1 462.875Z" fill="#292A2C"/>
<path d="M448.209 462.875V453.981C448.209 453.613 447.911 453.315 447.543 453.315C447.175 453.315 446.876 453.613 446.876 453.981V462.875C446.876 463.243 447.175 463.541 447.543 463.541C447.911 463.541 448.209 463.243 448.209 462.875Z" fill="#292A2C"/>
<path d="M444.319 462.875V453.981C444.319 453.613 444.02 453.315 443.652 453.315C443.284 453.315 442.985 453.613 442.985 453.981V462.875C442.985 463.243 443.284 463.541 443.652 463.541C444.02 463.541 444.319 463.243 444.319 462.875Z" fill="#292A2C"/>
<path d="M457.111 152.143H454.252V149.476H457.111V152.143ZM458.367 148.061H449.259L449.131 148.191V149.532H448.411L448.283 149.66V151.959L448.411 152.087H449.131V153.429L449.259 153.557H458.367L458.496 153.429V148.191L458.367 148.061Z" fill="#0F1828"/>
<path d="M443.912 149.019C444.453 149.019 444.892 149.457 444.892 150C444.892 150.541 444.453 150.98 443.912 150.98C443.369 150.98 442.931 150.541 442.931 150C442.931 149.457 443.369 149.019 443.912 149.019ZM445.669 150.871L445.66 150.873C445.792 150.609 445.873 150.315 445.873 150C445.873 148.916 444.995 148.037 443.912 148.037C442.827 148.037 441.949 148.916 441.949 150C441.949 150.315 442.031 150.609 442.163 150.873L442.153 150.871L442.229 150.995L442.311 151.129C442.675 151.723 443.555 153.16 443.695 153.389C443.869 153.677 443.995 153.605 444.117 153.407C444.216 153.248 445.139 151.74 445.512 151.129L445.592 150.996L445.669 150.871Z" fill="#0F1828"/>
<path d="M435.135 150.557H434.552C434.319 150.557 434.131 150.747 434.131 150.98V153.133C434.131 153.367 434.319 153.556 434.552 153.556H435.135C435.367 153.556 435.556 153.367 435.556 153.133V150.98C435.556 150.747 435.367 150.557 435.135 150.557Z" fill="#0F1828"/>
<path d="M437.06 149.105H436.477C436.244 149.105 436.055 149.293 436.055 149.528V153.133C436.055 153.367 436.244 153.556 436.477 153.556H437.06C437.293 153.556 437.481 153.367 437.481 153.133V149.528C437.481 149.293 437.293 149.105 437.06 149.105Z" fill="#0F1828"/>
<path d="M439.012 147.711H438.429C438.196 147.711 438.008 147.9 438.008 148.133V153.133C438.008 153.367 438.196 153.556 438.429 153.556H439.012C439.245 153.556 439.435 153.367 439.435 153.133V148.133C439.435 147.9 439.245 147.711 439.012 147.711Z" fill="#0F1828"/>
<path d="M456.131 279.079H327.743V194.293C327.743 188.096 332.765 183.072 338.964 183.072H444.911C451.107 183.072 456.131 188.096 456.131 194.293V279.079Z" fill="white"/>
<path d="M445.8 183.072H338.073C332.367 183.072 327.743 187.697 327.743 193.403V197.001H456.131V193.403C456.131 187.697 451.505 183.072 445.8 183.072Z" fill="url(#paint4_linear)"/>
<path d="M438.376 190.315H438.043C438.041 191.193 437.331 191.904 436.453 191.905C435.575 191.904 434.865 191.193 434.863 190.315C434.865 189.437 435.575 188.727 436.453 188.725C437.332 188.727 438.041 189.437 438.043 190.315H438.376H438.709C438.709 189.069 437.7 188.059 436.453 188.059C435.207 188.059 434.197 189.069 434.196 190.315C434.197 191.561 435.207 192.572 436.453 192.572C437.7 192.572 438.709 191.561 438.709 190.315H438.376Z" fill="white"/>
<path d="M441.744 188.891L445.269 192.417C445.4 192.548 445.611 192.548 445.741 192.417C445.871 192.287 445.871 192.076 445.741 191.945L442.215 188.419C442.085 188.289 441.873 188.289 441.744 188.419C441.613 188.549 441.613 188.76 441.744 188.891Z" fill="white"/>
<path d="M445.269 188.419L441.744 191.945C441.613 192.076 441.613 192.287 441.744 192.417C441.873 192.548 442.085 192.548 442.215 192.417L445.741 188.891C445.871 188.76 445.871 188.549 445.741 188.419C445.611 188.289 445.4 188.289 445.269 188.419Z" fill="white"/>
<path d="M427.404 192.572H431.137C431.321 192.572 431.471 192.423 431.471 192.239C431.471 192.055 431.321 191.905 431.137 191.905H427.404C427.22 191.905 427.071 192.055 427.071 192.239C427.071 192.423 427.22 192.572 427.404 192.572Z" fill="white"/>
<path d="M377.288 214.177H338.411C337.156 214.177 336.14 213.161 336.14 211.908V208.797C336.14 207.544 337.156 206.528 338.411 206.528H377.288C378.54 206.528 379.557 207.544 379.557 208.797V211.908C379.557 213.161 378.54 214.177 377.288 214.177Z" fill="#B9BFC4"/>
<path d="M441.683 214.177H384.921C383.668 214.177 382.652 213.161 382.652 211.908V208.797C382.652 207.544 383.668 206.528 384.921 206.528H441.683C442.936 206.528 443.952 207.544 443.952 208.797V211.908C443.952 213.161 442.936 214.177 441.683 214.177Z" fill="#788490"/>
<path d="M383.623 224.527H364.529C363.277 224.527 362.26 223.509 362.26 222.256V219.147C362.26 217.892 363.277 216.877 364.529 216.877H383.623C384.876 216.877 385.892 217.892 385.892 219.147V222.256C385.892 223.509 384.876 224.527 383.623 224.527Z" fill="#B9BFC4"/>
<path d="M429.059 224.527H391.143C389.889 224.527 388.873 223.509 388.873 222.256V219.147C388.873 217.892 389.889 216.877 391.143 216.877H429.059C430.311 216.877 431.328 217.892 431.328 219.147V222.256C431.328 223.509 430.311 224.527 429.059 224.527Z" fill="#788490"/>
<path d="M377.288 260.341H338.411C337.156 260.341 336.14 259.325 336.14 258.072V254.961C336.14 253.708 337.156 252.692 338.411 252.692H377.288C378.54 252.692 379.557 253.708 379.557 254.961V258.072C379.557 259.325 378.54 260.341 377.288 260.341Z" fill="#B9BFC4"/>
<path d="M441.683 260.341H384.921C383.668 260.341 382.652 259.325 382.652 258.072V254.961C382.652 253.708 383.668 252.692 384.921 252.692H441.683C442.936 252.692 443.952 253.708 443.952 254.961V258.072C443.952 259.325 442.936 260.341 441.683 260.341Z" fill="#788490"/>
<path d="M383.623 270.691H364.529C363.277 270.691 362.26 269.673 362.26 268.42V265.311C362.26 264.056 363.277 263.041 364.529 263.041H383.623C384.876 263.041 385.892 264.056 385.892 265.311V268.42C385.892 269.673 384.876 270.691 383.623 270.691Z" fill="#B9BFC4"/>
<path d="M429.059 270.691H391.143C389.889 270.691 388.873 269.673 388.873 268.42V265.311C388.873 264.056 389.889 263.041 391.143 263.041H429.059C430.311 263.041 431.328 264.056 431.328 265.311V268.42C431.328 269.673 430.311 270.691 429.059 270.691Z" fill="#788490"/>
<path d="M400.919 245.273H381.827C380.573 245.273 379.557 244.257 379.557 243.004V239.893C379.557 238.641 380.573 237.624 381.827 237.624H400.919C402.172 237.624 403.189 238.641 403.189 239.893V243.004C403.189 244.257 402.172 245.273 400.919 245.273Z" fill="#B9BFC4"/>
<path d="M441.683 245.273H408.439C407.185 245.273 406.169 244.257 406.169 243.004V239.893C406.169 238.641 407.185 237.624 408.439 237.624H441.683C442.936 237.624 443.952 238.641 443.952 239.893V243.004C443.952 244.257 442.936 245.273 441.683 245.273Z" fill="#788490"/>
<path d="M403.483 234.9H364.529C363.277 234.9 362.26 233.884 362.26 232.631V229.52C362.26 228.267 363.277 227.251 364.529 227.251H403.483C404.737 227.251 405.752 228.267 405.752 229.52V232.631C405.752 233.884 404.737 234.9 403.483 234.9Z" fill="#B9BFC4"/>
<path d="M375.784 368.727C365.063 368.727 356.369 360.035 356.369 349.313C356.369 338.591 365.063 329.9 375.784 329.9C386.505 329.9 395.196 338.591 395.196 349.313C395.196 360.035 386.505 368.727 375.784 368.727ZM413.292 355.555V343.627L404.964 342.5C404.249 339.425 403.065 336.531 401.484 333.901L406.524 327.285L398.088 318.852L391.551 323.831C388.896 322.185 385.967 320.945 382.845 320.192L381.748 312.083H369.819L368.723 320.192C365.601 320.945 362.671 322.185 360.017 323.831L353.479 318.852L345.044 327.285L350.083 333.901C348.501 336.531 347.319 339.425 346.604 342.5L338.275 343.627V355.555L346.736 356.699C347.492 359.681 348.696 362.483 350.271 365.033L345.044 371.896L353.479 380.331L360.42 375.043C362.945 376.553 365.711 377.7 368.645 378.417L369.819 387.099H381.748L382.921 378.417C385.857 377.7 388.623 376.553 391.147 375.043L398.088 380.331L406.524 371.896L401.297 365.033C402.871 362.483 404.076 359.681 404.831 356.699L413.292 355.555Z" fill="#0F1828"/>
<path d="M426.768 327.761C420.779 327.761 415.923 322.908 415.923 316.917C415.923 310.928 420.779 306.073 426.768 306.073C432.757 306.073 437.612 310.928 437.612 316.917C437.612 322.908 432.757 327.761 426.768 327.761ZM447.72 320.404V313.741L443.068 313.112C442.668 311.395 442.008 309.777 441.125 308.308L443.939 304.613L439.228 299.901L435.576 302.684C434.092 301.763 432.456 301.072 430.712 300.649L430.099 296.12H423.436L422.824 300.649C421.081 301.072 419.443 301.763 417.961 302.684L414.308 299.901L409.596 304.613L412.412 308.308C411.528 309.777 410.867 311.395 410.468 313.112L405.815 313.741V320.404L410.541 321.043C410.964 322.709 411.637 324.275 412.517 325.699L409.596 329.532L414.308 334.244L418.187 331.291C419.596 332.135 421.14 332.775 422.78 333.176L423.436 338.025H430.099L430.755 333.176C432.395 332.775 433.94 332.135 435.351 331.291L439.228 334.244L443.939 329.532L441.02 325.699C441.899 324.275 442.572 322.709 442.993 321.043L447.72 320.404Z" fill="#0F1828"/>
<path d="M451.591 426.124H336.747C334.24 426.124 332.207 424.092 332.207 421.584V408.68C332.207 406.173 334.24 404.14 336.747 404.14H417.767H429.555H431.136H434.621H436.253H449.892H451.591C454.097 404.14 456.131 406.173 456.131 408.68V421.584C456.131 422.335 455.948 423.043 455.625 423.667C455.417 424.069 455.151 424.436 454.837 424.757C454.013 425.6 452.863 426.124 451.591 426.124ZM357.436 411.597V418.941H427.507V411.597H357.436Z" fill="url(#paint5_linear)"/>
<path d="M357.436 418.941H427.507V411.598H357.436V418.941Z" fill="url(#paint6_linear)"/>
<path d="M417.767 436.34H364.921C363.949 436.34 363.161 435.552 363.161 434.58V431.959C363.161 430.985 363.949 430.196 364.921 430.196H417.767V436.34Z" fill="#F0F0F0"/>
<path d="M420.021 436.34H417.767V430.196H420.021C420.993 430.196 421.783 430.985 421.783 431.959V434.58C421.783 435.552 420.993 436.34 420.021 436.34Z" fill="#F1F1F1"/>
<path d="M511.448 222.667C508.573 222.667 506.244 220.336 506.244 217.463C506.244 214.588 508.573 212.257 511.448 212.257C514.323 212.257 516.652 214.588 516.652 217.463C516.652 220.336 514.323 222.667 511.448 222.667ZM511.448 204.641C504.367 204.641 498.628 210.381 498.628 217.463C498.628 224.543 504.367 230.283 511.448 230.283C518.528 230.283 524.268 224.543 524.268 217.463C524.268 210.381 518.528 204.641 511.448 204.641Z" fill="#0F1828"/>
<path d="M514.607 206.029H508.288L508.896 201.535H513.999L514.607 206.029Z" fill="#0F1828"/>
<path d="M508.288 229.132H514.607L513.999 233.627H508.896L508.288 229.132Z" fill="#0F1828"/>
<path d="M505.515 207.179L501.045 211.647L498.297 208.039L501.905 204.431L505.515 207.179Z" fill="#0F1828"/>
<path d="M517.381 227.983L521.851 223.515L524.599 227.123L520.989 230.732L517.381 227.983Z" fill="#0F1828"/>
<path d="M499.896 214.421V220.74L495.401 220.132V215.029L499.896 214.421Z" fill="#0F1828"/>
<path d="M522.999 220.74V214.421L527.494 215.029V220.132L522.999 220.74Z" fill="#0F1828"/>
<path d="M501.045 223.515L505.515 227.983L501.905 230.732L498.297 227.123L501.045 223.515Z" fill="#0F1828"/>
<path d="M521.851 211.647L517.381 207.179L520.989 204.431L524.599 208.039L521.851 211.647Z" fill="#0F1828"/>
<path d="M550.556 256.5H511.779C511.232 256.5 510.788 256.056 510.788 255.509V251.647C510.788 251.1 511.232 250.657 511.779 250.657H550.556C551.103 250.657 551.547 251.1 551.547 251.647V255.509C551.547 256.056 551.103 256.5 550.556 256.5Z" fill="#A7AFB4"/>
<path d="M541.357 273.715H511.779C511.232 273.715 510.788 273.271 510.788 272.724V268.863C510.788 268.315 511.232 267.872 511.779 267.872H541.357C541.904 267.872 542.347 268.315 542.347 268.863V272.724C542.347 273.271 541.904 273.715 541.357 273.715Z" fill="#A7AFB4"/>
<path d="M542.453 247.892H511.631C511.084 247.892 510.64 247.448 510.64 246.901V243.039C510.64 242.493 511.084 242.049 511.631 242.049H542.453C543 242.049 543.443 242.493 543.443 243.039V246.901C543.443 247.448 543 247.892 542.453 247.892Z" fill="#6E7986"/>
<path d="M531.985 265.107H511.631C511.084 265.107 510.64 264.664 510.64 264.116V260.255C510.64 259.708 511.084 259.264 511.631 259.264H531.985C532.532 259.264 532.975 259.708 532.975 260.255V264.116C532.975 264.664 532.532 265.107 531.985 265.107Z" fill="#A7AFB4"/>
<path d="M512.397 8.63867H457.503C455.229 8.63867 453.385 10.4813 453.385 12.756V106.324C453.385 108.597 455.229 110.441 457.503 110.441H523.5C525.773 110.441 527.617 108.597 527.617 106.324V23.1107L512.397 8.63867ZM511.864 9.97201L526.284 23.6827V106.324C526.284 107.859 525.035 109.108 523.5 109.108H457.503C455.969 109.108 454.719 107.859 454.719 106.324V12.756C454.719 11.2213 455.969 9.97201 457.503 9.97201H511.864Z" fill="#AAACAB"/>
<path d="M530.611 103.392H464.615C462.341 103.392 460.497 101.549 460.497 99.2747V5.70667C460.497 3.43334 462.341 1.58936 464.615 1.58936H519.508L534.728 16.0614V99.2747C534.728 101.549 532.885 103.392 530.611 103.392Z" fill="white"/>
<path d="M519.508 1.58934V16.0613H534.728L519.508 1.58934Z" fill="#C5C6C5"/>
<path d="M519.508 1.58935L517.948 17.9947L534.728 16.0614L522.532 13.784L519.508 1.58935Z" fill="#AAACAB"/>
<path d="M498.923 25.948H469.105V22.9547H498.923V25.948Z" fill="#AAACAB"/>
<path d="M469.105 30.8147H525.06V28.7558H469.105V30.8147Z" fill="#D3D5D2"/>
<path d="M469.105 33.808H525.06V31.7497H469.105V33.808Z" fill="#D3D5D2"/>
<path d="M469.105 36.8027H525.06V34.7443H469.105V36.8027Z" fill="#D3D5D2"/>
<path d="M469.105 39.7974H525.06V37.7385H469.105V39.7974Z" fill="#D3D5D2"/>
<path d="M469.105 42.7907H525.06V40.7319H469.105V42.7907Z" fill="#D3D5D2"/>
<path d="M469.105 45.7854H525.06V43.7271H469.105V45.7854Z" fill="#D3D5D2"/>
<path d="M469.105 48.7787H480.708V46.7204H469.105V48.7787Z" fill="#D3D5D2"/>
<path d="M513.457 90.6974H525.06V88.6385H513.457V90.6974Z" fill="#D3D5D2"/>
<path d="M51.3949 240.361H8.75059C8.20419 240.361 7.76099 239.919 7.76099 239.372V234.955C7.76099 234.408 8.20419 233.965 8.75059 233.965H51.3949C51.9412 233.965 52.385 234.408 52.385 234.955V239.372C52.385 239.919 51.9412 240.361 51.3949 240.361Z" fill="#A7AFB4"/>
<path d="M51.3947 221.513H18.8234C18.2765 221.513 17.8333 221.071 17.8333 220.524V216.108C17.8333 215.56 18.2765 215.117 18.8234 215.117H51.3947C51.9411 215.117 52.3849 215.56 52.3849 216.108V220.524C52.3849 221.071 51.9411 221.513 51.3947 221.513Z" fill="#A7AFB4"/>
<path d="M51.5573 249.785H17.6229C17.077 249.785 16.6333 249.341 16.6333 248.796V244.379C16.6333 243.832 17.077 243.388 17.6229 243.388H51.5573C52.1036 243.388 52.5469 243.832 52.5469 244.379V248.796C52.5469 249.341 52.1036 249.785 51.5573 249.785Z" fill="#6E7986"/>
<path d="M51.5573 230.937H29.0833C28.5364 230.937 28.0938 230.495 28.0938 229.948V225.531C28.0938 224.984 28.5364 224.541 29.0833 224.541H51.5573C52.1036 224.541 52.5469 224.984 52.5469 225.531V229.948C52.5469 230.495 52.1036 230.937 51.5573 230.937Z" fill="#A7AFB4"/>
<path d="M51.7078 168.66C52.3453 168.571 53 168.525 53.6672 168.525C57.5568 168.527 61.0469 170.092 63.5989 172.639C66.1458 175.191 67.7114 178.681 67.713 182.571C67.7114 186.46 66.1458 189.951 63.5989 192.503C61.0469 195.049 57.5568 196.615 53.6672 196.616C49.7781 196.615 46.2874 195.049 43.7354 192.503C41.188 189.951 39.6229 186.46 39.6208 182.571C39.6213 181.163 39.826 179.813 40.2068 178.541L33.8193 176.631C33.2557 178.516 32.9541 180.513 32.9541 182.571C32.9568 194.012 42.227 203.281 53.6672 203.283C65.1078 203.281 74.3776 194.011 74.3797 182.571C74.3776 171.129 65.1078 161.86 53.6672 161.859C52.6932 161.859 51.7312 161.925 50.7885 162.056L51.7078 168.66Z" fill="#0F1828"/>
<path d="M47.6374 169.88C48.3937 169.52 49.1849 169.227 50.0046 169.007L48.2754 162.568C47.0583 162.895 45.8874 163.329 44.7739 163.86L47.6374 169.88Z" fill="url(#paint7_linear)"/>
<path d="M40.7932 176.943C42.1454 173.851 44.5959 171.327 47.6391 169.88L44.773 163.86C40.2792 166.001 36.6891 169.697 34.686 174.269L40.7932 176.943Z" fill="url(#paint8_linear)"/>
<path d="M39.6208 133.473C39.6229 129.584 41.188 126.093 43.7354 123.541C46.2874 120.995 49.7781 119.429 53.6672 119.427C57.5568 119.429 61.0469 120.995 63.5989 123.541C66.1458 126.093 67.7114 129.584 67.713 133.473C67.7114 137.363 66.1458 140.853 63.5989 143.405C61.0469 145.952 57.5568 147.517 53.6672 147.519C53.436 147.519 53.2088 147.513 52.9869 147.503L52.6614 154.161C52.9978 154.177 53.3338 154.185 53.6672 154.185C65.1078 154.184 74.3776 144.913 74.3797 133.473C74.3776 122.033 65.1078 112.763 53.6672 112.76C42.2265 112.763 32.9568 122.033 32.9541 133.473H39.6208Z" fill="#0F1828"/>
<path d="M51.6454 147.375C45.2834 146.465 40.2735 141.249 39.6817 134.788L33.0432 135.403C33.9349 144.961 41.2792 152.615 50.6959 153.973L51.6454 147.375Z" fill="url(#paint9_linear)"/>
<path d="M67.713 84.376C67.7114 88.2653 66.1458 91.756 63.5989 94.308C61.0469 96.8547 57.5568 98.42 53.6672 98.4213C49.7781 98.42 46.2874 96.8547 43.7354 94.308C41.188 91.7547 39.6229 88.2653 39.6208 84.376H32.9541C32.9568 95.816 42.2265 105.087 53.6672 105.088C65.1078 105.087 74.3776 95.816 74.3797 84.376H67.713Z" fill="#0F1828"/>
<path d="M39.7329 82.5933C40.1689 79.14 41.86 76.0773 44.3454 73.8693C46.8345 71.6627 50.0788 70.3307 53.6673 70.3293C57.2564 70.3307 60.5006 71.6627 62.9892 73.8693C65.4746 76.0773 67.1657 79.14 67.6022 82.5947L74.2157 81.7587C73.5709 76.6533 71.0678 72.1253 67.4162 68.884C63.7684 65.64 58.9318 63.6613 53.6673 63.6627C48.4028 63.6613 43.5668 65.64 39.9184 68.884C36.2668 72.1253 33.7637 76.6533 33.1189 81.7587L39.7329 82.5933Z" fill="url(#paint10_linear)"/>
<path d="M63.9032 68.9173C63.9032 70.028 63.0032 70.928 61.8928 70.928C60.7819 70.928 59.8813 70.028 59.8813 68.9173C59.8813 67.8066 60.7819 66.9067 61.8928 66.9067C63.0032 66.9067 63.9032 67.8066 63.9032 68.9173Z" fill="#0F1828"/>
<path d="M62.4303 69.312L97.3081 21.708H231.568V20.3747H96.6321L61.3547 68.524L62.4303 69.312Z" fill="#0F1828"/>
<path d="M209.079 12.6866H104.564C104.019 12.6866 103.575 12.2427 103.575 11.696V1.79732C103.575 1.25066 104.019 0.806633 104.564 0.806633H209.079C209.625 0.806633 210.069 1.25066 210.069 1.79732V11.696C210.069 12.2427 209.625 12.6866 209.079 12.6866Z" fill="#6E7986"/>
<path d="M159.927 32.2241H104.564C104.019 32.2241 103.575 31.7813 103.575 31.2347V26.8174C103.575 26.272 104.019 25.828 104.564 25.828H159.927C160.473 25.828 160.916 26.272 160.916 26.8174V31.2347C160.916 31.7813 160.473 32.2241 159.927 32.2241Z" fill="#6E7986"/>
<path d="M176.797 41.1786H104.564C104.019 41.1786 103.575 40.736 103.575 40.1893V35.772C103.575 35.2267 104.019 34.7827 104.564 34.7827H176.797C177.344 34.7827 177.788 35.2267 177.788 35.772V40.1893C177.788 40.736 177.344 41.1786 176.797 41.1786Z" fill="#6E7986"/>
<path d="M192.359 32.2241H165.667C165.12 32.2241 164.677 31.7813 164.677 31.2347V26.8174C164.677 26.272 165.12 25.828 165.667 25.828H192.359C192.905 25.828 193.348 26.272 193.348 26.8174V31.2347C193.348 31.7813 192.905 32.2241 192.359 32.2241Z" fill="#A7AFB4"/>
<path d="M224.263 32.2241H197.572C197.025 32.2241 196.583 31.7813 196.583 31.2347V26.8174C196.583 26.272 197.025 25.828 197.572 25.828H224.263C224.809 25.828 225.252 26.272 225.252 26.8174V31.2347C225.252 31.7813 224.809 32.2241 224.263 32.2241Z" fill="#A7AFB4"/>
<path d="M209.079 41.1786H182.388C181.841 41.1786 181.397 40.736 181.397 40.1893V35.772C181.397 35.2267 181.841 34.7827 182.388 34.7827H209.079C209.625 34.7827 210.069 35.2267 210.069 35.772V40.1893C210.069 40.736 209.625 41.1786 209.079 41.1786Z" fill="#A7AFB4"/>
<path d="M399.94 9.59075C399.94 11.6974 398.232 13.4054 396.125 13.4054C394.019 13.4054 392.311 11.6974 392.311 9.59075C392.311 7.48408 394.019 5.77603 396.125 5.77603C398.232 5.77603 399.94 7.48408 399.94 9.59075Z" fill="#0F1828"/>
<path d="M399.94 42.0654C399.94 44.172 398.232 45.88 396.125 45.88C394.019 45.88 392.311 44.172 392.311 42.0654C392.311 39.9587 394.019 38.2506 396.125 38.2506C398.232 38.2506 399.94 39.9587 399.94 42.0654Z" fill="#0F1828"/>
<path d="M383.971 14.4054C385.795 15.4587 386.419 17.7921 385.365 19.6161C384.312 21.4401 381.98 22.0654 380.156 21.012C378.331 19.9587 377.705 17.6267 378.759 15.8027C379.812 13.9774 382.145 13.3521 383.971 14.4054Z" fill="#0F1828"/>
<path d="M412.095 30.644C413.919 31.6974 414.544 34.0307 413.491 35.8547C412.437 37.6787 410.104 38.3027 408.28 37.2507C406.456 36.1973 405.831 33.864 406.884 32.04C407.937 30.216 410.271 29.5907 412.095 30.644Z" fill="#0F1828"/>
<path d="M380.156 30.644C381.98 29.5907 384.312 30.216 385.365 32.04C386.419 33.864 385.795 36.1973 383.971 37.2507C382.145 38.3027 379.812 37.6787 378.759 35.8547C377.705 34.0307 378.331 31.6974 380.156 30.644Z" fill="#0F1828"/>
<path d="M408.28 14.4054C410.104 13.3521 412.437 13.9774 413.491 15.8027C414.544 17.6267 413.919 19.9587 412.095 21.012C410.271 22.0654 407.937 21.4401 406.884 19.6161C405.831 17.7921 406.456 15.4587 408.28 14.4054Z" fill="#0F1828"/>
<defs>
<linearGradient id="paint0_linear" x1="98.9441" y1="76.8906" x2="429.555" y2="76.8906" gradientUnits="userSpaceOnUse">
<stop stop-color="#4362B7"/>
<stop offset="1" stop-color="#7E86CB"/>
</linearGradient>
<linearGradient id="paint1_linear" x1="98.944" y1="76.8907" x2="429.555" y2="76.8907" gradientUnits="userSpaceOnUse">
<stop stop-color="#8198D5"/>
<stop offset="1" stop-color="#ADB0DF"/>
</linearGradient>
<linearGradient id="paint2_linear" x1="98.9441" y1="76.8907" x2="429.555" y2="76.8907" gradientUnits="userSpaceOnUse">
<stop stop-color="#5F79C5"/>
<stop offset="1" stop-color="#9599D5"/>
</linearGradient>
<linearGradient id="paint3_linear" x1="98.9443" y1="76.8906" x2="429.555" y2="76.8906" gradientUnits="userSpaceOnUse">
<stop stop-color="#3758B0"/>
<stop offset="1" stop-color="#6870BF"/>
</linearGradient>
<linearGradient id="paint4_linear" x1="327.743" y1="190.037" x2="456.131" y2="190.037" gradientUnits="userSpaceOnUse">
<stop stop-color="#4362B7"/>
<stop offset="1" stop-color="#7E86CB"/>
</linearGradient>
<linearGradient id="paint5_linear" x1="332.208" y1="415.132" x2="456.131" y2="415.132" gradientUnits="userSpaceOnUse">
<stop stop-color="#4362B7"/>
<stop offset="1" stop-color="#7E86CB"/>
</linearGradient>
<linearGradient id="paint6_linear" x1="332.208" y1="415.132" x2="456.131" y2="415.132" gradientUnits="userSpaceOnUse">
<stop stop-color="#5F79C5"/>
<stop offset="1" stop-color="#9599D5"/>
</linearGradient>
<linearGradient id="paint7_linear" x1="47.3893" y1="169.88" x2="47.3893" y2="162.568" gradientUnits="userSpaceOnUse">
<stop stop-color="#4362B7"/>
<stop offset="1" stop-color="#7E86CB"/>
</linearGradient>
<linearGradient id="paint8_linear" x1="41.1623" y1="176.944" x2="41.1623" y2="163.861" gradientUnits="userSpaceOnUse">
<stop stop-color="#4362B7"/>
<stop offset="1" stop-color="#7E86CB"/>
</linearGradient>
<linearGradient id="paint9_linear" x1="42.3444" y1="153.973" x2="42.3444" y2="134.787" gradientUnits="userSpaceOnUse">
<stop stop-color="#4362B7"/>
<stop offset="1" stop-color="#7E86CB"/>
</linearGradient>
<linearGradient id="paint10_linear" x1="53.6673" y1="82.5947" x2="53.6673" y2="63.6636" gradientUnits="userSpaceOnUse">
<stop stop-color="#4362B7"/>
<stop offset="1" stop-color="#7E86CB"/>
</linearGradient>
</defs>
</svg>
