<svg width="512" height="512" viewBox="0 0 512 512" fill="none" xmlns="http://www.w3.org/2000/svg">
<path d="M416 512H96C42.976 512 0 469.024 0 416V96C0 42.976 42.976 0 96 0H416C469.024 0 512 42.976 512 96V416C512 469.024 469.024 512 416 512Z" fill="#DDE0FF"/>
<path d="M146.672 288H280C290.288 288 298.672 279.632 298.672 269.328V242.656C298.672 232.368 290.304 223.984 280 223.984H146.672C136.368 224 128 232.368 128 242.672V269.344C128 279.632 136.368 288 146.672 288Z" fill="#6100FF"/>
<path d="M146.672 384H280C290.288 384 298.672 375.632 298.672 365.328V338.656C298.672 328.368 290.304 319.984 280 319.984H146.672C136.368 320 128 328.368 128 338.672V365.344C128 375.632 136.368 384 146.672 384V384Z" fill="#6100FF"/>
<path d="M352 288C369.673 288 384 273.673 384 256C384 238.327 369.673 224 352 224C334.327 224 320 238.327 320 256C320 273.673 334.327 288 352 288Z" fill="#77BEFF"/>
<path d="M146.672 192H280C290.288 192 298.672 183.632 298.672 173.328V146.672C298.672 136.368 290.288 128 280 128H146.672C136.368 128 128 136.368 128 146.672V173.344C128 183.632 136.368 192 146.672 192Z" fill="#6100FF"/>
<path d="M352 192C369.673 192 384 177.673 384 160C384 142.327 369.673 128 352 128C334.327 128 320 142.327 320 160C320 177.673 334.327 192 352 192Z" fill="#77BEFF"/>
<path d="M352 384C369.673 384 384 369.673 384 352C384 334.327 369.673 320 352 320C334.327 320 320 334.327 320 352C320 369.673 334.327 384 352 384Z" fill="#77BEFF"/>
</svg>
