<svg id="Capa_1" enable-background="new 0 0 512 512" height="512" viewBox="0 0 512 512" width="512" xmlns="http://www.w3.org/2000/svg"><g><path d="m198.918 23.867h-143.55c-8.407 0-15.223 6.816-15.223 15.223v143.55c0 8.407 6.816 15.223 15.223 15.223h41.694l21.182 38.652c3.852 7.029 13.948 7.029 17.8 0l21.182-38.652h41.693c8.407 0 15.223-6.816 15.223-15.223v-143.55c-.001-8.407-6.817-15.223-15.224-15.223z" fill="#fe9738"/><g fill="#fe7701"><path d="m115.136 230.848 3.106 5.668c3.852 7.029 13.948 7.029 17.8 0l21.182-38.652h-24.012z"/><path d="m198.918 23.867h-24.012c8.408 0 15.223 6.816 15.223 15.223v143.551c0 8.407-6.815 15.223-15.223 15.223h24.012c8.408 0 15.223-6.816 15.223-15.223v-143.551c0-8.407-6.816-15.223-15.223-15.223z"/></g><path d="m416.91 228.246v83.958h-22.168c-5.333 0-10.448 2.119-14.22 5.89l-21.327 21.327c-12.549 12.549-29.57 19.6-47.318 19.6h-30.58c-14.417 0-26.579-11.399-26.783-25.815-.105-7.385 2.846-14.074 7.666-18.906 4.737-4.737 11.292-7.669 18.526-7.669h-38.083c-3.576 0-7.009 1.403-9.562 3.907l-64.756 63.535c-8.302 8.302-21.761 8.302-30.063 0s-8.302-21.761 0-30.063l107.408-106.218c6.184-6.116 14.531-9.546 23.229-9.546z" fill="#ffcebf"/><path d="m393.354 312.273c.461-.032.922-.069 1.387-.069h22.168v-83.958h-23.555z" fill="#ffb09e"/><path d="m325.847 306.631h-45.141c-7.234 0-13.788 2.932-18.526 7.669-2.171 2.176-3.958 4.731-5.262 7.554h68.929c4.204 0 7.611-3.408 7.611-7.612.001-4.203-3.406-7.611-7.611-7.611z" fill="#ffb09e"/><g fill="#f5f8f9"><circle cx="127.142" cy="158.394" r="13.82"/><path d="m107.838 70.976 5.117 48.292c.209 1.973 1.873 3.471 3.858 3.471h20.66c1.984 0 3.649-1.497 3.858-3.471l5.117-48.292c1.215-11.467-7.774-21.458-19.305-21.458s-20.52 9.991-19.305 21.458z"/></g><path d="m40.145 476.857c-22.136 0-40.145-18.009-40.145-40.144s18.009-40.144 40.145-40.144 40.144 18.008 40.144 40.144-18.009 40.144-40.144 40.144zm0-65.066c-13.742 0-24.922 11.179-24.922 24.921s11.179 24.921 24.922 24.921c13.741 0 24.921-11.179 24.921-24.921s-11.18-24.921-24.921-24.921z" fill="#01c0fa"/><path d="m50.743 434.315v19.621h266.561v-19.621c0-2.242-1.817-4.059-4.059-4.059h-258.442c-2.242-.001-4.06 1.817-4.06 4.059z" fill="#e8edf2"/><path d="m313.245 428.255h-25.726c2.242 0 4.059 1.817 4.059 4.059v19.621h25.726v-19.621c0-2.241-1.817-4.059-4.059-4.059z" fill="#c5d3dd"/><path d="m416.91 228.246h34.897v108.657h-34.897z" fill="#01c0fa"/><path d="m416.91 313.729h34.897v23.174h-34.897z" fill="#0290cf"/><path d="m512 228.246v121.242c0 2.802-2.272 5.074-5.074 5.074h-50.044c-2.802 0-5.074-2.272-5.074-5.074v-121.242z" fill="#596c76"/><path d="m506.926 331.388h-50.044c-2.803 0-5.074-2.272-5.074-5.074v23.174c0 2.803 2.272 5.074 5.074 5.074h50.044c2.803 0 5.074-2.272 5.074-5.074v-23.174c0 2.802-2.272 5.074-5.074 5.074z" fill="#465a61"/><path d="m40.144 462.084v15.9c0 5.605 4.544 10.149 10.149 10.149h289.461c5.605 0 10.149-4.544 10.149-10.149v-15.9c0-5.605-4.544-10.149-10.149-10.149h-289.461c-5.605.001-10.149 4.544-10.149 10.149z" fill="#0ed2b3"/><path d="m339.753 451.936h-25.726c5.605 0 10.149 4.544 10.149 10.149v15.9c0 5.605-4.544 10.149-10.149 10.149h25.726c5.605 0 10.149-4.544 10.149-10.149v-15.9c0-5.606-4.544-10.149-10.149-10.149z" fill="#01998d"/></g></svg>