<svg width="512" height="512" viewBox="0 0 512 512" fill="none" xmlns="http://www.w3.org/2000/svg">
<path d="M451.518 323.84C474.415 346.709 477.847 383.074 455.874 405.018C427.745 433.13 435.763 425.119 419.425 441.438C385.376 475.457 329.974 474.809 287.102 444.653C217.938 395.973 81.9109 259.719 59.1538 224.438C31.9974 182.352 37.4796 130.378 72.7957 95.105C89.4485 78.4712 81.2698 86.6429 109.245 58.6852C130.429 37.5138 166.864 39.469 190.464 63.0414L239.301 111.836C262.128 134.634 265.69 170.995 243.664 193.021L227.034 209.623C221.117 215.54 220.848 228.217 230.646 237.983L276.401 283.696C284.204 291.499 297.495 294.632 304.825 287.301L321.462 270.692C342.647 249.52 379.082 251.475 402.668 275.048L451.518 323.84Z" fill="#FFEC00"/>
<path d="M227.033 209.622C224.009 212.646 223.094 216.421 222.91 219.339L85.7434 82.1715L109.244 58.6842C130.428 37.5128 166.863 39.4681 190.463 63.0405L239.3 111.835C262.127 134.633 265.689 170.994 243.663 193.02L227.033 209.622Z" fill="#FFD92E"/>
<path d="M451.518 323.841C474.415 346.709 477.847 383.075 455.874 405.018L432.225 428.654L294.986 291.415C298.789 291.21 302.26 289.864 304.825 287.3L321.462 270.691C342.647 249.519 379.082 251.475 402.668 275.047L451.518 323.841Z" fill="#FFD92E"/>
</svg>
