<svg width="512" height="512" viewBox="0 0 512 512" fill="none" xmlns="http://www.w3.org/2000/svg">
<g clip-path="url(#clip0)">
<path d="M499.628 407.468C489.5 419.628 474.494 426.662 458.668 426.668H53.334C37.508 426.662 22.502 419.628 12.374 407.468L208.001 244.481L228.268 258.348C244.963 269.868 267.04 269.868 283.735 258.348L304.002 244.481L499.628 407.468Z" fill="#E5D11E"/>
<path d="M502.614 108.588L304.001 244.481L283.734 258.348C267.039 269.868 244.962 269.868 228.267 258.348L208 244.481L9.38794 108.374C19.3819 93.963 35.7969 85.357 53.3349 85.334H458.668C476.285 85.241 492.781 93.969 502.614 108.588Z" fill="#F6F064"/>
<path d="M208.001 244.481L12.3739 407.468C4.36695 397.898 -0.014052 385.813 0.000948006 373.335V138.668C-0.064052 127.845 3.21495 117.265 9.38795 108.375L208.001 244.481Z" fill="#F3B821"/>
<path d="M512.001 138.668V373.335C512.015 385.813 507.635 397.898 499.628 407.468L304.001 244.481L502.614 108.588C508.756 117.414 512.033 127.915 512.001 138.668Z" fill="#F3B821"/>
</g>
<defs>
<clipPath id="clip0">
<rect width="512.001" height="512.001" fill="white"/>
</clipPath>
</defs>
</svg>
