<svg width="512" height="512" viewBox="0 0 512 512" fill="none" xmlns="http://www.w3.org/2000/svg">
<g clip-path="url(#clip0)">
<path d="M258.33 0.959991C153.56 0.959991 68.33 86 68.33 190.52C68.33 243.3 95.81 311.08 150 392C190.32 452.19 230.96 497.78 235.46 502.78C241.28 509.25 249.62 512.96 258.33 512.96C267.04 512.96 275.38 509.25 281.2 502.78C285.7 497.78 326.33 452.21 366.66 392C420.85 311.08 448.33 243.3 448.33 190.52C448.33 86 363.09 0.959991 258.33 0.959991Z" fill="#FFDF67"/>
<path d="M448 190.56C448 243.34 420.52 311.12 366.33 392.04C326 452.25 285.37 497.82 280.87 502.82C275.05 509.29 266.71 513 258 513V78.31C258.25 78.31 397 157.5 329.02 340.5L292.32 296.9C297.89 300.95 304.28 302.98 310.67 302.98C317.06 302.98 323.45 300.95 329.02 296.9C340.17 288.8 344.62 275.1 340.37 261.99L327.53 222.5C327.37 221.99 327.55 221.44 327.98 221.13L292.32 198C303.47 189.9 314.93 199.6 310.67 186.5C306.41 173.39 301.48 186.5 287.7 186.5L301.69 140.23C301.16 140.23 300.69 139.89 300.53 139.38L287.7 125.5C285.57 118.95 277.67 122.26 272.5 118.5C267.33 114.75 264.89 78.31 258 78.31V1C362.76 1 448 86.04 448 190.56Z" fill="#FFC414"/>
<circle cx="257.5" cy="186.5" r="106.5" fill="white"/>
</g>
<defs>
<clipPath id="clip0">
<rect width="512" height="512" fill="white"/>
</clipPath>
</defs>
</svg>
