<svg id="Layer_1" enable-background="new 0 0 512 512" height="512" viewBox="0 0 512 512" width="512" xmlns="http://www.w3.org/2000/svg"><g><path d="m256 0c-55.776 0-100.991 45.215-100.991 100.991s45.215 100.991 100.991 100.991 32.621-45.215 32.621-100.991 23.155-100.991-32.621-100.991z" fill="#ffea94"/><path d="m256 0v201.981c55.776 0 100.99-45.215 100.99-100.99 0-55.776-45.214-100.991-100.99-100.991z" fill="#ffd92e"/><g><g><g><path d="m241 118.379h30v70.281h-30z" fill="#554cce"/></g><g><path d="m256 118.379h15v70.281h-15z" fill="#3e34c2"/></g></g><path d="m202.465 185.851v31.368l15.448 31.368h55.122l-2.035-31.368v-31.368z" fill="#fcbe00"/><path d="m256 185.851v62.736h38.087l15.448-31.368v-31.368z" fill="#ff9000"/><g><g><path d="m223.379 103.379h65.241v30h-65.241z" fill="#3e34c2"/></g><g><path d="m256 103.379h32.621v30h-32.621z" fill="#23238e"/></g></g></g><g><g><g><path d="m92.582 355.344h182.138v156.656h-182.138z" fill="#7ee780"/></g><g><path d="m256 355.344v156.656h163.418v-63.328l-6.985-15 6.985-15v-63.328z" fill="#00cb71"/></g><g><path d="m230.374 284.55h-163.418l25.626 70.794h163.418z" fill="#b0eeae"/></g><g><path d="m281.626 284.55-25.626 70.794h163.418l25.626-70.794z" fill="#7ee780"/></g></g></g><g><g><path d="m337.709 418.672h81.708v30h-81.708z" fill="#009854"/></g></g></g></svg>