<svg width="1536" height="1007" viewBox="0 0 1536 1007" fill="none" xmlns="http://www.w3.org/2000/svg">
<path d="M1388.48 309.369C1389.15 308.665 1390.24 308.665 1390.9 309.369C1391.56 310.093 1391.56 311.237 1390.9 311.94L1385.47 317.718C1384.81 318.422 1383.71 318.422 1383.05 317.718C1382.39 317.015 1382.39 315.873 1383.05 315.149L1388.48 309.369ZM1394.72 321.764C1395.67 321.764 1396.43 322.575 1396.43 323.563C1396.43 324.576 1395.67 325.387 1394.72 325.387H1387.04C1386.11 325.387 1385.34 324.576 1385.34 323.563C1385.34 322.575 1386.11 321.764 1387.04 321.764H1394.72ZM1390.9 335.208C1391.56 335.911 1391.56 337.055 1390.9 337.756C1390.24 338.48 1389.15 338.48 1388.48 337.756L1383.05 332.001C1382.39 331.275 1382.39 330.134 1383.05 329.43C1383.71 328.706 1384.81 328.706 1385.47 329.43L1390.9 335.208ZM1379.27 341.822C1379.27 342.833 1378.51 343.647 1377.55 343.647C1376.6 343.647 1375.84 342.833 1375.84 341.822V333.672C1375.84 332.659 1376.6 331.848 1377.55 331.848C1378.51 331.848 1379.27 332.659 1379.27 333.672V341.822ZM1366.63 337.756C1365.96 338.48 1364.87 338.48 1364.21 337.756C1363.54 337.055 1363.54 335.911 1364.21 335.208L1369.64 329.43C1370.3 328.706 1371.37 328.706 1372.06 329.43C1372.72 330.134 1372.72 331.275 1372.06 332.001L1366.63 337.756ZM1360.38 325.387C1359.43 325.387 1358.67 324.576 1358.67 323.563C1358.67 322.575 1359.43 321.764 1360.38 321.764H1368.07C1369 321.764 1369.76 322.575 1369.76 323.563C1369.76 324.576 1369 325.387 1368.07 325.387H1360.38ZM1364.21 311.94C1363.54 311.237 1363.54 310.093 1364.21 309.369C1364.87 308.665 1365.96 308.665 1366.63 309.369L1372.06 315.149C1372.72 315.873 1372.72 317.015 1372.06 317.718C1371.37 318.422 1370.3 318.422 1369.64 317.718L1364.21 311.94ZM1375.84 305.305C1375.84 304.315 1376.6 303.501 1377.55 303.501C1378.51 303.501 1379.27 304.315 1379.27 305.305V313.478C1379.27 314.489 1378.51 315.3 1377.55 315.3C1376.6 315.3 1375.84 314.489 1375.84 313.478V305.305Z" fill="#7E6ABC"/>
<path fill-rule="evenodd" clip-rule="evenodd" d="M272.928 -8.18989e-05C168.17 -8.18989e-05 82.4826 91.1421 82.4826 202.542C82.4826 313.922 168.17 405.065 272.928 405.065C293.964 405.065 311.156 423.368 311.156 445.711C311.156 468.08 293.964 486.358 272.928 486.358H173.274C122.177 486.358 80.3545 530.81 80.3545 585.174C80.3545 639.508 122.177 683.959 173.274 683.959C217.472 683.959 253.63 722.416 253.63 769.413C253.63 855.169 319.605 925.332 400.231 925.332H444.077H1089.76H1260.9C1365.64 925.332 1451.35 834.19 1451.35 722.784C1451.35 611.407 1365.64 520.265 1260.9 520.265H1126.59C1105.59 520.265 1088.37 501.964 1088.37 479.618C1088.37 457.246 1105.59 438.966 1126.59 438.966H1160.71C1211.81 438.966 1253.63 394.515 1253.63 340.155C1253.63 285.885 1211.91 241.454 1160.88 241.367C1160.84 241.367 1151.07 241.367 1151.02 241.367C1106.82 241.367 1070.66 202.919 1070.66 155.918C1070.66 70.1599 1004.69 -8.18989e-05 924.043 -8.18989e-05C780.956 -8.18989e-05 416.016 -8.18989e-05 272.928 -8.18989e-05" fill="#D6D0EC"/>
<path fill-rule="evenodd" clip-rule="evenodd" d="M1377.62 441.539C1428.45 441.539 1469.67 397.725 1469.67 343.653C1469.67 289.601 1428.45 245.767 1377.62 245.767C1326.79 245.767 1285.57 289.601 1285.57 343.653C1285.57 397.725 1326.79 441.539 1377.62 441.539Z" fill="#D6D0EC"/>
<path fill-rule="evenodd" clip-rule="evenodd" d="M308.467 110.395H397.644V139.133H308.467V110.395Z" fill="#C1B6E1"/>
<path fill-rule="evenodd" clip-rule="evenodd" d="M175.824 144.876H265.023V173.616H175.824V144.876Z" fill="#C1B6E1"/>
<path fill-rule="evenodd" clip-rule="evenodd" d="M269.223 144.876H358.403V173.616H269.223V144.876" fill="#C1B6E1"/>
<path fill-rule="evenodd" clip-rule="evenodd" d="M215.069 179.367H304.246V208.107H215.069V179.367" fill="#C1B6E1"/>
<path fill-rule="evenodd" clip-rule="evenodd" d="M175.824 213.852H265.023V242.595H175.824V213.852Z" fill="#C1B6E1"/>
<path fill-rule="evenodd" clip-rule="evenodd" d="M269.223 213.852H358.403V242.595H269.223V213.852" fill="#C1B6E1"/>
<path fill-rule="evenodd" clip-rule="evenodd" d="M366.11 741.113H455.312V769.836H366.11V741.113Z" fill="#C1B6E1"/>
<path fill-rule="evenodd" clip-rule="evenodd" d="M459.634 741.113H548.833V769.836H459.634V741.113Z" fill="#C1B6E1"/>
<path fill-rule="evenodd" clip-rule="evenodd" d="M327.197 775.602H416.374V804.337H327.197V775.602" fill="#C1B6E1"/>
<path fill-rule="evenodd" clip-rule="evenodd" d="M420.594 775.602H509.771V804.337H420.594V775.602Z" fill="#C1B6E1"/>
<path fill-rule="evenodd" clip-rule="evenodd" d="M459.634 810.105H548.833V838.847H459.634V810.105Z" fill="#C1B6E1"/>
<path fill-rule="evenodd" clip-rule="evenodd" d="M327.197 844.574H416.374V873.314H327.197V844.574" fill="#C1B6E1"/>
<path fill-rule="evenodd" clip-rule="evenodd" d="M420.594 844.574H509.771V873.314H420.594V844.574Z" fill="#C1B6E1"/>
<path fill-rule="evenodd" clip-rule="evenodd" d="M517.675 87.2426H910.263C920.283 87.2426 928.466 95.9657 928.466 106.6V702.078H942.432C949.148 702.078 954.646 707.943 954.646 715.087V768.257C954.646 775.398 949.148 781.245 942.432 781.245H485.501C478.788 781.245 473.292 775.398 473.292 768.257V715.087C473.292 707.943 478.788 702.078 485.501 702.078H499.47V106.6C499.47 95.9657 507.673 87.2426 517.675 87.2426Z" fill="#C1B6E1"/>
<path fill-rule="evenodd" clip-rule="evenodd" d="M507.722 82.7591H900.31C910.33 82.7591 918.511 91.4617 918.511 102.096V706.803C918.511 717.438 910.33 726.14 900.31 726.14H507.722C497.702 726.14 489.519 717.438 489.519 706.803V102.096C489.519 91.4617 497.702 82.7591 507.722 82.7591" fill="#F7F8FC"/>
<path fill-rule="evenodd" clip-rule="evenodd" d="M522.768 419.232V671.561H885.224V419.232H522.768Z" fill="#5D4698"/>
<path fill-rule="evenodd" clip-rule="evenodd" d="M522.768 118.123V425.78H885.224V118.123H522.768Z" fill="#EAE6F5"/>
<path fill-rule="evenodd" clip-rule="evenodd" d="M849.577 252.952V156.141H721.961V252.952H849.577ZM721.961 387.772H849.577V290.962H721.961V387.772ZM558.605 290.962V387.772H686.216V290.962H558.605ZM558.605 156.141V252.952H686.216V156.141H558.605Z" fill="#6A54A5"/>
<path fill-rule="evenodd" clip-rule="evenodd" d="M776.849 290.957L721.863 349.425V290.957H776.849ZM617.27 371.641H591.566L667.438 290.957H686.118V298.429L617.27 371.641ZM686.118 371.641H641.631L686.118 324.334V371.641ZM779.058 172.263H804.766L728.889 252.946H721.863V233.082L779.058 172.263ZM835.013 229.106L812.596 252.946H753.25L829.125 172.263H835.013V229.106Z" fill="#C1B6E1"/>
<path fill-rule="evenodd" clip-rule="evenodd" d="M475.558 697.595H932.495C939.206 697.595 944.699 703.437 944.699 710.578V763.753C944.699 770.894 939.206 776.761 932.495 776.761H475.558C468.842 776.761 463.346 770.894 463.346 763.753V710.578C463.346 703.437 468.842 697.595 475.558 697.595Z" fill="#E3DEF2"/>
<path fill-rule="evenodd" clip-rule="evenodd" d="M716.587 451.112L711.857 451.639L708.943 451.532L706.031 451.396L701.361 450.475L674.664 421.428L613.298 450.168C615.177 552.731 605.095 600.854 593.254 671.561H779.69C779.938 641.104 791.49 595.998 793.906 571.523L804.405 458.164L745.349 424.373L716.587 451.112Z" fill="#3D3172"/>
<path fill-rule="evenodd" clip-rule="evenodd" d="M727.811 671.561H761.469C768.763 665.144 775.871 659.476 780.416 657.232C783.085 628.251 791.781 592.393 793.848 571.524L794.139 568.31C793.393 560.49 792.565 552.054 791.653 542.958C788.27 509.32 795.624 486.908 802.919 473.569L804.346 458.166L745.29 424.375L735.992 433.031L732.789 449.246C732.789 449.246 764.713 475.437 768.58 489.761C772.423 504.088 758.95 602.679 749.342 645.234C746.986 655.653 738.802 664.353 727.811 671.561" fill="#2C2757"/>
<path fill-rule="evenodd" clip-rule="evenodd" d="M613.29 454.296C614.264 517.314 610.648 559.588 604.904 599.754C604.904 599.754 636.226 475.168 632.756 471.762C630.047 469.103 626.661 466.117 613.29 454.296Z" fill="#2C2757"/>
<path fill-rule="evenodd" clip-rule="evenodd" d="M742.664 417.096C721.198 406.135 700.06 405.254 677.848 414.374L681.238 425.269L738.492 427.667L742.664 417.096" fill="#B1AAC3"/>
<path fill-rule="evenodd" clip-rule="evenodd" d="M716.5 451.118L711.769 451.645L705.944 451.402L701.273 450.481L683.337 430.967L680.529 431.761L674.247 439.869C674.247 439.869 686.603 473.903 687.348 475.068C688.109 476.232 689.495 476.866 691.644 474.32C693.771 471.749 700.508 463.4 700.508 463.4C700.508 463.4 702.45 461.401 703.237 463.796C704.021 466.166 713.855 460.127 713.855 460.127L714.457 462.412C714.457 462.412 715.985 460.588 717.347 463.093C718.692 465.598 725.408 476.429 725.882 476.913C726.356 477.417 728.464 479.067 730.097 475.838C731.565 472.87 749.167 434.99 752.225 428.378L745.261 424.379L716.5 451.118Z" fill="#2C2757"/>
<path fill-rule="evenodd" clip-rule="evenodd" d="M716.48 451.114L711.75 451.641L705.924 451.398L701.254 450.477L699.476 448.545L695.282 455.574C695.282 455.574 703.92 458.957 703.609 467.109L686.749 671.561H696.047L712.907 467.505C713.569 459.376 722.06 456.695 722.06 456.695L718.403 449.333L716.48 451.114" fill="#2C2757"/>
<path fill-rule="evenodd" clip-rule="evenodd" d="M712.082 366.848C725.596 367.418 736.236 379.657 735.7 394.025L734.417 428.612C733.88 442.982 722.391 454.277 708.858 453.727C695.344 453.156 684.723 440.917 685.24 426.547L686.523 391.962C687.059 377.595 698.566 366.275 712.082 366.848" fill="#E85355"/>
<path fill-rule="evenodd" clip-rule="evenodd" d="M703.209 448.149L706.041 447.778C706.041 447.778 706.578 448.435 706.619 449.515C706.659 450.587 706.599 453.775 706.599 453.775C705.545 454.126 699.987 455.096 700.192 454.259C700.235 454.059 703.209 448.149 703.209 448.149Z" fill="#2C2757"/>
<path fill-rule="evenodd" clip-rule="evenodd" d="M714.638 448.632L711.849 448.02C711.849 448.02 711.269 448.632 711.146 449.711C711.024 450.786 710.836 453.951 710.836 453.951C711.849 454.849 717.347 455.819 717.2 454.982C717.159 454.785 714.638 448.632 714.638 448.632" fill="#2C2757"/>
<path fill-rule="evenodd" clip-rule="evenodd" d="M742.692 417.096C743.005 417.403 746.249 424.038 747.943 427.247C747.943 427.247 749.492 429.885 748.128 434.148C746.766 438.432 729.636 473.214 729.636 473.214C729.636 473.214 728.438 475.061 726.703 473.147C724.946 471.238 712.01 448.015 712.01 448.015L739.225 419.798C740.505 418.199 742.406 416.789 742.692 417.096Z" fill="white"/>
<path fill-rule="evenodd" clip-rule="evenodd" d="M677.882 414.37C677.656 414.477 673.813 421.005 671.89 424.058C671.89 424.058 670.155 426.565 671.209 430.936C672.263 435.309 686.747 471.431 686.747 471.431C686.747 471.431 687.803 473.343 689.68 471.585C691.561 469.824 706.191 447.768 706.191 447.768L681.147 417.356C679.475 415.094 678.089 414.26 677.882 414.37" fill="white"/>
<path fill-rule="evenodd" clip-rule="evenodd" d="M663.454 334.216C663.081 334.216 662.708 334.216 662.337 334.237H662.315C655.496 334.7 649.63 340.104 648.472 347.578C647.108 356.275 652.645 364.473 660.828 365.922C669.01 367.352 676.717 361.462 678.081 352.762C678.846 347.708 677.316 342.829 674.279 339.336C674.01 344.06 672.542 349.707 666.861 349.42L668.266 340.347C668.844 336.678 665.829 334.48 663.454 334.216" fill="#E85355"/>
<path fill-rule="evenodd" clip-rule="evenodd" d="M770.531 350.772C770.884 350.882 771.236 351.015 771.585 351.146H771.609C778.033 353.651 782.206 360.595 781.318 368.131C780.283 376.854 772.783 383.051 764.561 381.951C756.336 380.853 750.511 372.875 751.543 364.131C752.142 359.055 754.931 354.838 758.776 352.397C757.763 357.013 757.66 362.88 763.175 364.331L764.272 355.189C764.705 351.496 768.177 350.312 770.531 350.772" fill="#E85355"/>
<path fill-rule="evenodd" clip-rule="evenodd" d="M727.707 263.619C699.751 259.312 673.551 280.097 669.502 309.828L662.786 358.999C658.714 388.73 678.282 416.59 706.238 420.896C734.196 425.223 760.374 404.418 764.443 374.69L771.159 325.536C775.211 295.808 755.665 267.948 727.707 263.619" fill="#F8A477"/>
<path fill-rule="evenodd" clip-rule="evenodd" d="M699.043 419.228C701.356 419.952 703.755 420.522 706.211 420.896C734.169 425.223 760.347 404.417 764.416 374.69L771.132 325.535C772.354 316.639 771.442 307.916 768.839 299.937C748.301 293.436 730.801 288.205 730.801 288.205C730.801 288.205 666.044 288.139 672.967 307.166L674.805 310.331C674.805 310.331 680.385 304.927 690.282 307.476C700.198 310.047 733.094 319.144 743.963 323.427C754.829 327.733 757.724 336.326 756.09 347.991C754.437 359.636 755.595 364.25 758.302 366.184C758.302 366.184 754.129 419.228 699.043 419.228" fill="#F48469"/>
<path fill-rule="evenodd" clip-rule="evenodd" d="M698.514 379.53C697.174 387.201 701.945 394.583 709.157 396.009C716.39 397.436 723.31 392.365 724.653 384.693H724.634C724.86 383.376 724.035 382.081 722.793 381.84L701.224 377.575C699.982 377.334 698.764 378.214 698.536 379.53H698.514Z" fill="white"/>
<path fill-rule="evenodd" clip-rule="evenodd" d="M701.505 391.307C703.428 393.682 706.072 395.396 709.172 396.007C711.713 396.514 714.213 396.207 716.443 395.283C715.948 392.231 713.387 389.506 709.874 388.671C706.527 387.878 703.262 389.002 701.505 391.307" fill="white"/>
<path fill-rule="evenodd" clip-rule="evenodd" d="M723.072 381.921L702.78 377.921C702.036 380.229 702.657 382.844 704.082 383.678C705.795 384.669 720.55 387.171 721.811 386.14C722.41 385.636 722.824 383.748 723.072 381.921" fill="white"/>
<path fill-rule="evenodd" clip-rule="evenodd" d="M742.12 373.966C738.443 373.326 734.971 375.985 734.352 379.895C733.751 383.807 736.253 387.5 739.93 388.157C743.609 388.794 747.079 386.136 747.678 382.226C748.299 378.314 745.799 374.624 742.12 373.966" fill="#E85355"/>
<path fill-rule="evenodd" clip-rule="evenodd" d="M684.797 363.927C681.12 363.287 677.648 365.948 677.03 369.861C676.431 373.771 678.909 377.46 682.607 378.121C686.287 378.758 689.756 376.099 690.356 372.189C690.976 368.277 688.476 364.587 684.797 363.927" fill="#E85355"/>
<path fill-rule="evenodd" clip-rule="evenodd" d="M685.312 338.303C684.34 338.631 683.308 338.083 682.997 337.073C682.687 336.062 683.204 334.962 684.155 334.631C689.299 332.74 695.724 333.424 700.021 337.136C700.787 337.82 700.912 339.05 700.269 339.862C699.651 340.698 698.494 340.829 697.707 340.146C694.237 337.136 689.422 336.939 685.312 338.303V338.303ZM750.211 348.318C746.616 345.77 741.926 344.496 737.814 346.346C736.885 346.76 735.809 346.276 735.417 345.289C735.025 344.322 735.48 343.18 736.409 342.763C741.493 340.499 747.855 341.773 752.278 345.135C753.105 345.749 753.31 346.957 752.732 347.84C752.153 348.715 751.017 348.935 750.211 348.318V348.318ZM746.224 365.744C746.409 364.405 746.098 363.065 745.336 361.987C744.571 360.91 743.454 360.209 742.217 360.009C740.954 359.812 739.696 360.166 738.682 360.956C737.669 361.767 737.008 362.955 736.822 364.295C736.678 365.35 735.749 366.097 734.755 365.943C733.745 365.79 733.062 364.799 733.206 363.722C733.516 361.373 734.695 359.262 736.493 357.834C738.29 356.427 740.521 355.813 742.73 356.164C744.941 356.496 746.926 357.748 748.269 359.659C749.612 361.573 750.17 363.945 749.84 366.294C749.693 367.371 748.765 368.098 747.773 367.942C746.782 367.788 746.079 366.801 746.224 365.744V365.744ZM693.864 357.661C694.03 356.32 693.722 354.979 692.957 353.902C692.211 352.824 691.097 352.123 689.836 351.924C688.577 351.729 687.314 352.077 686.304 352.868C685.29 353.682 684.629 354.869 684.441 356.21C684.299 357.264 683.368 357.988 682.377 357.834C681.385 357.684 680.683 356.693 680.827 355.637C681.159 353.288 682.336 351.177 684.111 349.749C685.909 348.344 688.139 347.727 690.351 348.08C692.584 348.408 694.547 349.662 695.89 351.573C697.233 353.487 697.791 355.857 697.48 358.208C697.336 359.262 696.407 360.009 695.394 359.859C694.403 359.702 693.722 358.715 693.864 357.661" fill="#2C2757"/>
<path fill-rule="evenodd" clip-rule="evenodd" d="M664.12 349.909C664.12 349.909 672.157 347.801 674.058 333.98C675.94 320.137 675.463 323.543 676.457 316.337C677.448 309.127 683.873 297.221 697.634 299.352C711.396 301.481 722.409 303.175 722.409 303.175C722.409 303.175 733.423 304.866 747.184 306.998C760.924 309.127 763.92 322.489 762.928 329.694C761.958 336.903 762.411 333.497 760.532 347.337C758.631 361.16 765.78 365.62 765.78 365.62C767.288 354.656 771.006 350.835 771.006 350.835C771.006 350.835 773.01 336.155 774.769 323.323C776.521 310.514 775.494 292.761 761.277 278.477C747.059 264.217 728.09 261.494 728.09 261.494C728.09 261.494 709.206 258.373 691.746 267.753C674.306 277.113 668.562 293.835 666.805 306.668C665.049 319.477 663.044 334.154 663.044 334.154C663.044 334.154 665.607 338.945 664.12 349.909" fill="#2C2757"/>
<path fill-rule="evenodd" clip-rule="evenodd" d="M697.566 299.345C697.566 299.345 720.687 326.194 755.525 310.44C755.525 310.44 770.425 301.103 775.052 308.242C775.052 308.242 785.445 279.348 762.075 271.879C762.075 271.879 767.446 269.02 767.135 265.308C766.847 261.572 759.12 250.456 735.029 256.037C735.029 256.037 735.835 246.828 728.106 244.169C720.399 241.511 694.632 250.807 688.496 269.617C688.496 269.617 683.496 283.437 697.566 299.345" fill="#3D3172"/>
<path fill-rule="evenodd" clip-rule="evenodd" d="M777.181 290.074C777.018 288.73 776.748 287.395 776.373 286.074C769.638 289.833 755.196 294.974 732.757 288.756C712.92 283.283 711.308 262.057 713.045 246.413C705.937 249.228 698.186 254.192 693.063 261.09C693.104 268.759 696.803 279.897 713.127 291.632C736.249 308.223 765.487 296.161 777.181 290.074Z" fill="#48456D"/>
<path fill-rule="evenodd" clip-rule="evenodd" d="M477.906 225.101L477.988 229.298C477.988 229.298 479.93 230.025 481.357 233.43C482.803 236.833 483.465 239.341 483.465 239.341L504.084 231.383L504.168 229.671L502.534 224.441C502.534 224.441 502.079 223.518 502.556 222.883L492.101 217.983L477.906 225.101" fill="#F8A477"/>
<path fill-rule="evenodd" clip-rule="evenodd" d="M670.624 423.259C670.624 423.259 571.961 368.416 556.321 349.781C540.656 331.173 533.363 305.092 509.498 230.562C509.498 230.562 508.632 227.09 503.569 227.461C498.487 227.814 484.271 233.152 482.329 235.703C480.366 238.251 479.293 240.846 479.993 244.359C480.696 247.875 508.839 363.933 516.815 381.29C524.809 398.648 597.025 470.056 612.047 486.714C627.069 503.366 670.624 423.259 670.624 423.259" fill="#3D3172"/>
<path fill-rule="evenodd" clip-rule="evenodd" d="M499.416 228.251C493.117 229.897 483.879 233.678 482.329 235.7C480.366 238.249 479.293 240.843 479.993 244.356C480.696 247.872 508.839 363.932 516.816 381.289C524.809 398.648 597.025 470.057 612.047 486.715C616.737 491.922 624.217 487.659 632.295 479.353C632.957 474.98 633.145 472.234 632.668 471.771C629.196 468.365 624.588 464.389 599.195 441.892C573.8 419.39 534.355 380.718 527.826 366.414C521.277 352.088 501.069 276.393 494.539 253.696C488.239 231.854 498.61 228.471 499.416 228.251" fill="#2C2757"/>
<path fill-rule="evenodd" clip-rule="evenodd" d="M507.885 200.117C509.312 191.901 513.566 186.146 515.325 184.212C517.618 181.64 506.605 174.519 502.308 186.868C502.308 186.868 498.424 191.527 496.191 190.166C493.98 188.802 490.447 152.68 490.055 148.745C489.682 144.792 485.365 144.505 484.208 145.628C483.07 146.749 483.691 152.463 484.02 159.732C484.352 167.03 484.639 175.246 484.042 175.97C483.462 176.697 481.893 176.697 480.262 172.784C478.609 168.852 470.322 146.88 468.483 145.802C466.645 144.705 463.254 146.726 463.565 150.416C463.895 154.108 473.05 175.95 473.38 179.135C473.709 182.342 470.735 182.188 469.393 180.453C468.048 178.716 454.991 156.526 453.297 155.451C451.603 154.372 448.213 156.549 449.474 160.282C450.732 164.021 462.407 185.814 462.326 187.661C462.263 189.486 459.989 190.89 456.187 188.032C452.366 185.179 445.114 178.301 443.689 178.232C442.282 178.168 440.446 182.784 443.831 186.453C447.222 190.123 455.321 199.526 456.353 201.085C461.808 209.283 464.619 218.333 469.722 224.113C471.561 226.199 473.957 227.783 476.645 228.837C483.031 231.342 491.025 230.925 497.163 227.409C507.803 221.278 505.902 211.435 507.885 200.117" fill="#F8A477"/>
<path fill-rule="evenodd" clip-rule="evenodd" d="M672.461 691.667L665.93 697.601H611.486C611.486 697.601 613.594 690.434 617.168 688.195C617.168 688.195 618.594 687.471 620.392 687.471C620.392 687.471 622.064 685.117 624.608 684.001C627.17 682.878 639.856 679.602 646.488 678.374C653.143 677.143 659.568 679.602 662.752 679.602C665.93 679.602 670.829 678.878 670.829 678.878L672.461 691.667" fill="#F8A477"/>
<path fill-rule="evenodd" clip-rule="evenodd" d="M804.285 458.165C804.285 458.165 814.305 465.678 819.101 488.377C823.913 511.099 836.043 626.474 838.336 646.515C840.648 666.576 839.886 697.601 798.337 697.601C756.782 697.601 704.071 697.601 687.521 697.601C670.971 697.601 665.968 697.601 665.968 697.601C665.968 697.601 665.968 682.463 665.968 677.01C665.968 671.563 669.234 669.738 672.602 669.738C675.971 669.738 777.076 658.068 781.883 656.645C786.677 655.215 788.994 652.356 789.182 646.205C789.388 640.072 772.836 569.086 769.364 542.497C765.913 515.912 780.519 457.397 804.285 458.165Z" fill="#3D3172"/>
<path fill-rule="evenodd" clip-rule="evenodd" d="M839.06 656.379C839.455 675.365 833.499 697.601 798.337 697.601C756.782 697.601 704.071 697.601 687.521 697.601C670.971 697.601 665.968 697.601 665.968 697.601V681.427C669.214 685.736 675.723 690.654 688.471 690.654C711.179 690.654 776.022 690.654 792.752 690.654C808.703 690.654 838.48 678.374 839.06 656.379" fill="#2C2757"/>
<path fill-rule="evenodd" clip-rule="evenodd" d="M769.431 542.494C771.785 560.468 780.093 598.74 785.175 623.548C787.613 635.438 789.305 644.228 789.249 646.203C789.086 651.851 787.12 654.729 783.07 656.267C793.09 654.509 796.482 649.522 798.193 642.775C799.683 637.043 798.362 612.918 794.146 568.308C793.4 560.488 792.572 552.031 791.66 542.955C788.277 509.317 795.631 486.904 802.926 473.565C805.157 469.479 807.39 466.226 809.288 463.788C806.521 459.788 804.353 458.161 804.353 458.161C780.587 457.393 765.981 515.908 769.431 542.494" fill="#2C2757"/>
<path fill-rule="evenodd" clip-rule="evenodd" d="M704.437 370.499C704.437 370.499 708.961 365.486 710.409 364.148C711.855 362.83 712.144 364.345 711.98 366.346C711.814 368.344 712.288 372.19 711.275 373.088C710.265 374.012 705.265 373.088 704.211 372.628C703.154 372.19 704.437 370.499 704.437 370.499" fill="#FBC4A8"/>
<path d="M383 487.229C383.58 486.595 384.53 486.595 385.13 487.229C385.707 487.848 385.707 488.859 385.13 489.494L380.336 494.57C379.757 495.187 378.806 495.187 378.229 494.57C377.629 493.931 377.629 492.922 378.229 492.308L383 487.229ZM388.477 498.107C389.321 498.107 389.985 498.833 389.985 499.714C389.985 500.591 389.321 501.315 388.477 501.315H381.72C380.895 501.315 380.231 500.591 380.231 499.714C380.231 498.833 380.895 498.107 381.72 498.107H388.477ZM385.13 509.951C385.707 510.57 385.707 511.579 385.13 512.195C384.53 512.83 383.58 512.83 383 512.195L378.229 507.116C377.629 506.502 377.629 505.491 378.229 504.852C378.806 504.237 379.757 504.237 380.336 504.852L385.13 509.951ZM374.881 515.773C374.881 516.653 374.217 517.382 373.373 517.382C372.545 517.382 371.883 516.653 371.883 515.773V508.59C371.883 507.707 372.545 506.981 373.373 506.981C374.217 506.981 374.881 507.707 374.881 508.59V515.773ZM363.765 512.195C363.165 512.83 362.215 512.83 361.637 512.195C361.058 511.579 361.058 510.57 361.637 509.951L366.409 504.852C367.008 504.237 367.959 504.237 368.536 504.852C369.135 505.491 369.135 506.502 368.536 507.116L363.765 512.195ZM358.269 501.315C357.441 501.315 356.779 500.591 356.779 499.714C356.779 498.833 357.441 498.107 358.269 498.107H365.023C365.87 498.107 366.532 498.833 366.532 499.714C366.532 500.591 365.87 501.315 365.023 501.315H358.269ZM361.637 489.494C361.058 488.859 361.058 487.848 361.637 487.229C362.215 486.595 363.165 486.595 363.765 487.229L368.536 492.308C369.135 492.922 369.135 493.931 368.536 494.57C367.959 495.187 367.008 495.187 366.409 494.57L361.637 489.494ZM371.883 483.649C371.883 482.772 372.545 482.048 373.373 482.048C374.217 482.048 374.881 482.772 374.881 483.649V490.837C374.881 491.712 374.217 492.436 373.373 492.436C372.545 492.436 371.883 491.712 371.883 490.837V483.649Z" fill="#7E6ABC"/>
<path fill-rule="evenodd" clip-rule="evenodd" d="M78.3759 760.497H86.8682C88.4192 760.497 89.7003 761.856 89.7003 763.507V772.562C89.7003 774.205 88.4192 775.569 86.8682 775.569H78.3759C76.8063 775.569 75.5459 774.205 75.5459 772.562V763.507C75.5459 761.856 76.8063 760.497 78.3759 760.497Z" fill="#E2D6EE"/>
<path fill-rule="evenodd" clip-rule="evenodd" d="M107.285 760.497H115.799C117.348 760.497 118.628 761.856 118.628 763.507V772.562C118.628 774.205 117.348 775.569 115.799 775.569H107.285C105.735 775.569 104.455 774.205 104.455 772.562V763.507C104.455 761.856 105.735 760.497 107.285 760.497" fill="#E2D6EE"/>
<path fill-rule="evenodd" clip-rule="evenodd" d="M136.194 760.497H144.705C146.257 760.497 147.537 761.856 147.537 763.507V772.562C147.537 774.205 146.257 775.569 144.705 775.569H136.194C134.645 775.569 133.362 774.205 133.362 772.562V763.507C133.362 761.856 134.645 760.497 136.194 760.497Z" fill="#E2D6EE"/>
<path fill-rule="evenodd" clip-rule="evenodd" d="M165.431 760.497H173.925C175.494 760.497 176.755 761.856 176.755 763.507V772.562C176.755 774.205 175.494 775.569 173.925 775.569H165.431C163.862 775.569 162.602 774.205 162.602 772.562V763.507C162.602 761.856 163.862 760.497 165.431 760.497Z" fill="#E2D6EE"/>
<path d="M274.856 64.8757C275.436 64.2565 276.408 64.2565 276.986 64.8757C277.566 65.4873 277.566 66.498 276.986 67.1377L272.214 72.2092C271.613 72.8284 270.662 72.8284 270.085 72.2092C269.485 71.5976 269.485 70.5869 270.085 69.9472L274.856 64.8757ZM280.355 75.771C281.18 75.771 281.842 76.4747 281.842 77.3524C281.842 78.2326 281.18 78.9568 280.355 78.9568H273.598C272.751 78.9568 272.089 78.2326 272.089 77.3524C272.089 76.4747 272.751 75.771 273.598 75.771H280.355ZM276.986 87.5927C277.566 88.2068 277.566 89.2201 276.986 89.8547C276.408 90.4688 275.436 90.4688 274.856 89.8547L270.085 84.7576C269.485 84.1434 269.485 83.1327 270.085 82.493C270.662 81.8814 271.613 81.8814 272.214 82.493L276.986 87.5927ZM266.738 93.4166C266.738 94.2942 266.076 95.0184 265.25 95.0184C264.401 95.0184 263.742 94.2942 263.742 93.4166V86.2289C263.742 85.3512 264.401 84.6476 265.25 84.6476C266.076 84.6476 266.738 85.3512 266.738 86.2289V93.4166ZM255.621 89.8547C255.043 90.4688 254.093 90.4688 253.494 89.8547C252.916 89.2201 252.916 88.2068 253.494 87.5927L258.287 82.493C258.864 81.8814 259.815 81.8814 260.395 82.493C260.994 83.1327 260.994 84.1434 260.395 84.7576L255.621 89.8547ZM250.146 78.9568C249.299 78.9568 248.638 78.2326 248.638 77.3524C248.638 76.4747 249.299 75.771 250.146 75.771H256.903C257.729 75.771 258.39 76.4747 258.39 77.3524C258.39 78.2326 257.729 78.9568 256.903 78.9568H250.146ZM253.494 67.1377C252.916 66.498 252.916 65.4873 253.494 64.8757C254.093 64.2565 255.043 64.2565 255.621 64.8757L260.395 69.9472C260.994 70.5869 260.994 71.5976 260.395 72.2092C259.815 72.8284 258.864 72.8284 258.287 72.2092L253.494 67.1377ZM263.742 61.2908C263.742 60.4106 264.401 59.7094 265.25 59.7094C266.076 59.7094 266.738 60.4106 266.738 61.2908V68.4759C266.738 69.3562 266.076 70.0803 265.25 70.0803C264.401 70.0803 263.742 69.3562 263.742 68.4759V61.2908Z" fill="#7E6ABC"/>
<path fill-rule="evenodd" clip-rule="evenodd" d="M333.738 370.122H342.249C343.799 370.122 345.081 371.483 345.081 373.133V382.184C345.081 383.834 343.799 385.198 342.249 385.198H333.738C332.189 385.198 330.906 383.834 330.906 382.184V373.133C330.906 371.483 332.189 370.122 333.738 370.122Z" fill="#F5F1F9"/>
<path fill-rule="evenodd" clip-rule="evenodd" d="M362.656 370.122H371.147C372.719 370.122 373.98 371.483 373.98 373.133V382.184C373.98 383.834 372.719 385.198 371.147 385.198H362.656C361.085 385.198 359.826 383.834 359.826 382.184V373.133C359.826 371.483 361.085 370.122 362.656 370.122Z" fill="#F5F1F9"/>
<path fill-rule="evenodd" clip-rule="evenodd" d="M391.884 370.122H400.397C401.947 370.122 403.227 371.483 403.227 373.133V382.184C403.227 383.834 401.947 385.198 400.397 385.198H391.884C390.334 385.198 389.052 383.834 389.052 382.184V373.133C389.052 371.483 390.334 370.122 391.884 370.122Z" fill="#F5F1F9"/>
<path fill-rule="evenodd" clip-rule="evenodd" d="M420.798 370.122H429.292C430.842 370.122 432.12 371.483 432.12 373.133V382.184C432.12 383.834 430.842 385.198 429.292 385.198H420.798C419.227 385.198 417.969 383.834 417.969 382.184V373.133C417.969 371.483 419.227 370.122 420.798 370.122Z" fill="#F5F1F9"/>
<path fill-rule="evenodd" clip-rule="evenodd" d="M1155.93 241.369V438.968H1126.52C1105.51 438.968 1088.3 457.248 1088.3 479.619C1088.3 501.965 1105.51 520.266 1126.52 520.266H1155.93V925.332H1089.69H987.594V15.5374C1036.6 40.8516 1070.59 94.351 1070.59 155.921C1070.59 202.921 1106.75 241.369 1150.95 241.369H1155.93" fill="#C1B6E1"/>
<path fill-rule="evenodd" clip-rule="evenodd" d="M1002.24 24.2992V925.332H972.858V9.00547C983.234 12.9408 993.09 18.1018 1002.24 24.2992" fill="#E3DEF2"/>
<path fill-rule="evenodd" clip-rule="evenodd" d="M1038.64 58.973V925.332H1009.24V29.2447C1020.27 37.6811 1030.17 47.7014 1038.64 58.973" fill="#E3DEF2"/>
<path fill-rule="evenodd" clip-rule="evenodd" d="M1074.83 183.437V925.332H1045.43V68.9626C1061.26 93.8338 1070.53 123.784 1070.53 155.93C1070.53 165.533 1072.04 174.78 1074.83 183.437" fill="#E3DEF2"/>
<path fill-rule="evenodd" clip-rule="evenodd" d="M1111.22 230.108V442.427C1097.78 448.732 1088.33 463.058 1088.33 479.626C1088.33 496.192 1097.78 510.515 1111.22 516.823V925.332H1089.72H1081.82V199.303C1088.95 212.069 1099.1 222.703 1111.22 230.108Z" fill="#E3DEF2"/>
<path fill-rule="evenodd" clip-rule="evenodd" d="M1147.61 520.264V925.332H1118.21V519.254C1120.92 519.914 1123.75 520.264 1126.64 520.264H1147.61ZM1147.61 241.282V438.966H1126.64C1123.75 438.966 1120.92 439.317 1118.21 439.977V233.852C1127.26 238.184 1137.18 240.799 1147.61 241.282Z" fill="#E3DEF2"/>
<path fill-rule="evenodd" clip-rule="evenodd" d="M753.429 852.984H761.942C763.492 852.984 764.772 854.325 764.772 855.993V865.023C764.772 866.694 763.492 868.038 761.942 868.038H753.429C751.879 868.038 750.597 866.694 750.597 865.023V855.993C750.597 854.325 751.879 852.984 753.429 852.984Z" fill="#F5F1F9"/>
<path fill-rule="evenodd" clip-rule="evenodd" d="M782.506 852.984H791C792.569 852.984 793.827 854.325 793.827 855.993V865.023C793.827 866.694 792.569 868.038 791 868.038H782.506C780.937 868.038 779.678 866.694 779.678 865.023V855.993C779.678 854.325 780.937 852.984 782.506 852.984Z" fill="#F5F1F9"/>
<path fill-rule="evenodd" clip-rule="evenodd" d="M811.576 852.984H820.092C821.639 852.984 822.921 854.325 822.921 855.993V865.023C822.921 866.694 821.639 868.038 820.092 868.038H811.576C810.024 868.038 808.742 866.694 808.742 865.023V855.993C808.742 854.325 810.024 852.984 811.576 852.984Z" fill="#F5F1F9"/>
<path fill-rule="evenodd" clip-rule="evenodd" d="M840.649 852.984H849.146C850.717 852.984 851.975 854.325 851.975 855.993V865.023C851.975 866.694 850.717 868.038 849.146 868.038H840.649C839.085 868.038 837.819 866.694 837.819 865.023V855.993C837.819 854.325 839.085 852.984 840.649 852.984Z" fill="#F5F1F9"/>
<path fill-rule="evenodd" clip-rule="evenodd" d="M802.261 33.1157H810.777C812.324 33.1157 813.607 34.4514 813.607 36.1223V45.1524C813.607 46.8233 812.324 48.1641 810.777 48.1641H802.261C800.717 48.1641 799.432 46.8233 799.432 45.1524V36.1223C799.432 34.4514 800.717 33.1157 802.261 33.1157Z" fill="#F5F1F9"/>
<path fill-rule="evenodd" clip-rule="evenodd" d="M831.34 33.1157H839.829C841.383 33.1157 842.664 34.4514 842.664 36.1223V45.1524C842.664 46.8233 841.383 48.1641 839.829 48.1641H831.34C829.771 48.1641 828.512 46.8233 828.512 45.1524V36.1223C828.512 34.4514 829.771 33.1157 831.34 33.1157Z" fill="#F5F1F9"/>
<path fill-rule="evenodd" clip-rule="evenodd" d="M860.413 33.1157H868.9C870.471 33.1157 871.754 34.4514 871.754 36.1223V45.1524C871.754 46.8233 870.471 48.1641 868.9 48.1641H860.413C858.861 48.1641 857.579 46.8233 857.579 45.1524V36.1223C857.579 34.4514 858.861 33.1157 860.413 33.1157Z" fill="#F5F1F9"/>
<path fill-rule="evenodd" clip-rule="evenodd" d="M889.273 33.1157H897.789C899.336 33.1157 900.618 34.4514 900.618 36.1223V45.1524C900.618 46.8233 899.336 48.1641 897.789 48.1641H889.273C887.728 48.1641 886.446 46.8233 886.446 45.1524V36.1223C886.446 34.4514 887.728 33.1157 889.273 33.1157Z" fill="#F5F1F9"/>
<path fill-rule="evenodd" clip-rule="evenodd" d="M1209.91 590.224H1218.41C1219.96 590.224 1221.24 591.562 1221.24 593.233V602.263C1221.24 603.911 1219.96 605.277 1218.41 605.277H1209.91C1208.35 605.277 1207.08 603.911 1207.08 602.263V593.233C1207.08 591.562 1208.35 590.224 1209.91 590.224Z" fill="#F5F1F9"/>
<path fill-rule="evenodd" clip-rule="evenodd" d="M1238.98 590.224H1247.49C1249.04 590.224 1250.32 591.562 1250.32 593.233V602.263C1250.32 603.911 1249.04 605.277 1247.49 605.277H1238.98C1237.43 605.277 1236.15 603.911 1236.15 602.263V593.233C1236.15 591.562 1237.43 590.224 1238.98 590.224Z" fill="#F5F1F9"/>
<path fill-rule="evenodd" clip-rule="evenodd" d="M1268.05 590.224H1276.56C1278.1 590.224 1279.39 591.562 1279.39 593.233V602.263C1279.39 603.911 1278.1 605.277 1276.56 605.277H1268.05C1266.49 605.277 1265.21 603.911 1265.21 602.263V593.233C1265.21 591.562 1266.49 590.224 1268.05 590.224Z" fill="#F5F1F9"/>
<path fill-rule="evenodd" clip-rule="evenodd" d="M1297.13 590.224H1305.62C1307.18 590.224 1308.45 591.562 1308.45 593.233V602.263C1308.45 603.911 1307.18 605.277 1305.62 605.277H1297.13C1295.57 605.277 1294.29 603.911 1294.29 602.263V593.233C1294.29 591.562 1295.57 590.224 1297.13 590.224Z" fill="#F5F1F9"/>
<path fill-rule="evenodd" clip-rule="evenodd" d="M219.741 901.892C219.698 883.701 221.579 862.76 226.351 838.871C226.392 838.702 226.435 838.502 226.476 838.328C226.705 837.358 227.405 835.513 229.224 836.043C231.661 836.742 251.624 848.673 270.279 868.868C288.937 889.059 288.629 858.694 272.43 846.739C256.251 834.789 239.701 829.756 234.741 825.183C229.761 820.616 230.651 815.388 230.651 815.388C234.515 792.249 237.405 768.539 239.431 745.185L239.45 745.159C239.45 745.159 240.382 740.067 244.927 746.039C249.494 752.037 267.139 772.827 280.881 774.186C294.621 775.571 282.038 752.411 262.634 741.052C243.233 729.691 240.858 727.278 241.043 724.509V724.484C242.283 706.094 243.007 688.097 243.274 670.958C243.274 670.958 244.058 667.88 246.621 670.104C249.164 672.343 268.482 695.812 278.773 693.33C289.062 690.825 279.062 670.825 262.656 663.822C246.25 656.811 243.399 654.702 243.377 652.108C243.211 601.371 238.998 560.504 232.655 543.122C226.062 525.016 267.945 565.973 306.666 632.817C309.992 638.904 309.765 642.397 307.619 649.779C305.304 657.691 302.761 675.528 308.837 671.378C314.912 667.246 315.738 651.557 316.233 651.273C316.604 651.033 316.873 651.273 316.977 651.404C323.32 663.359 329.415 675.948 335.077 689.021C340.904 703.698 333.113 713.719 322.266 728.043C311.026 742.897 313.052 758.675 324.994 752.037C336.937 745.425 342.495 714.553 343.486 713.719C344.396 712.969 345.058 714.09 345.161 714.315C353.054 735.934 359.358 758.544 363.177 781.504C363.983 792.932 355.222 802.4 346.027 817.847C336.773 833.425 343.879 842.811 351.194 840.677C358.487 838.523 363.424 819.562 365.017 818.331C366.485 817.187 366.94 818.152 367 818.331C367.828 840.585 365.864 862.87 360.222 884.62C355.262 903.716 350.058 920.039 344.706 933.954H249.886L219.741 901.892" fill="#3D3172"/>
<path fill-rule="evenodd" clip-rule="evenodd" d="M329.793 933.954C317.353 757.42 274.705 604.52 274.501 603.729C273.899 601.62 271.835 600.41 269.85 601.024C267.867 601.641 266.729 603.859 267.309 605.968C267.515 606.738 309.935 758.74 322.373 933.954H329.793" fill="#2C2757"/>
<path fill-rule="evenodd" clip-rule="evenodd" d="M407.982 691.2C479.887 645.915 499.745 740.155 485.178 782.85C474.372 814.446 436.065 883.676 409.081 933.954H308.766C321.781 828.31 355.066 724.533 407.982 691.2Z" fill="#ACA2D8"/>
<path fill-rule="evenodd" clip-rule="evenodd" d="M352.384 933.954C388.978 810.446 445.015 708.268 445.303 707.726C446.129 706.206 448.217 705.436 449.931 706.029C451.668 706.625 452.39 708.34 451.565 709.878C451.273 710.402 395.735 811.656 359.307 933.954H352.384" fill="#E0DAF0"/>
<path fill-rule="evenodd" clip-rule="evenodd" d="M99.96 637.168C122.131 548.05 200.274 596.851 233.831 673.027C252.778 716.027 285.589 829.473 322.513 933.954H228.749L200.875 917.317C136.015 788.341 91.0964 672.76 99.96 637.168Z" fill="#F5F1F9"/>
<path fill-rule="evenodd" clip-rule="evenodd" d="M251.4 912.541C180.114 768.753 142.942 629.141 142.754 628.44C142.218 626.462 143.293 624.418 145.132 623.847C146.992 623.274 148.934 624.418 149.451 626.373C149.658 627.143 190.507 780.488 268.427 930.622L251.4 912.541" fill="white"/>
<path fill-rule="evenodd" clip-rule="evenodd" d="M1337.4 652.229H1426.58V680.967H1337.4V652.229Z" fill="#C1B6E1"/>
<path fill-rule="evenodd" clip-rule="evenodd" d="M1298.47 686.721H1387.68V715.456H1298.47V686.721" fill="#C1B6E1"/>
<path fill-rule="evenodd" clip-rule="evenodd" d="M1391.87 686.721H1448.3C1449.89 696.076 1450.88 705.682 1451.21 715.456H1391.87V686.721Z" fill="#C1B6E1"/>
<path fill-rule="evenodd" clip-rule="evenodd" d="M1337.4 721.187H1426.58V749.935H1337.4V721.187Z" fill="#C1B6E1"/>
<path fill-rule="evenodd" clip-rule="evenodd" d="M1430.8 721.187H1451.24C1451.26 721.716 1451.26 722.246 1451.26 722.771C1451.26 731.982 1450.67 741.053 1449.54 749.935H1430.8V721.187" fill="#C1B6E1"/>
<path fill-rule="evenodd" clip-rule="evenodd" d="M1391.87 755.693H1448.79C1447.26 765.519 1445.07 775.117 1442.26 784.433H1391.87V755.693Z" fill="#C1B6E1"/>
<path d="M1253.51 789.758C1254.09 789.144 1255.04 789.144 1255.62 789.758C1256.22 790.393 1256.22 791.409 1255.62 792.023L1250.85 797.12C1250.27 797.734 1249.32 797.734 1248.72 797.12C1248.14 796.48 1248.14 795.472 1248.72 794.855L1253.51 789.758ZM1258.99 800.659C1259.82 800.659 1260.49 801.383 1260.49 802.263C1260.49 803.138 1259.82 803.868 1258.99 803.868H1252.23C1251.4 803.868 1250.72 803.138 1250.72 802.263C1250.72 801.383 1251.4 800.659 1252.23 800.659H1258.99ZM1255.62 812.478C1256.22 813.118 1256.22 814.128 1255.62 814.742C1255.04 815.377 1254.09 815.377 1253.51 814.742L1248.72 809.666C1248.14 809.029 1248.14 808.015 1248.72 807.401C1249.32 806.787 1250.27 806.787 1250.85 807.401L1255.62 812.478ZM1245.39 818.325C1245.39 819.2 1244.71 819.924 1243.88 819.924C1243.06 819.924 1242.38 819.2 1242.38 818.325V811.135C1242.38 810.259 1243.06 809.535 1243.88 809.535C1244.71 809.535 1245.39 810.259 1245.39 811.135V818.325ZM1234.27 814.742C1233.68 815.377 1232.72 815.377 1232.14 814.742C1231.55 814.128 1231.55 813.118 1232.14 812.478L1236.92 807.401C1237.5 806.787 1238.45 806.787 1239.05 807.401C1239.63 808.015 1239.63 809.029 1239.05 809.666L1234.27 814.742ZM1228.78 803.868C1227.95 803.868 1227.27 803.138 1227.27 802.263C1227.27 801.383 1227.95 800.659 1228.78 800.659H1235.53C1236.36 800.659 1237.04 801.383 1237.04 802.263C1237.04 803.138 1236.36 803.868 1235.53 803.868H1228.78ZM1232.14 792.023C1231.55 791.409 1231.55 790.393 1232.14 789.758C1232.72 789.144 1233.68 789.144 1234.27 789.758L1239.05 794.855C1239.63 795.472 1239.63 796.48 1239.05 797.12C1238.45 797.734 1237.5 797.734 1236.92 797.12L1232.14 792.023ZM1242.38 786.202C1242.38 785.321 1243.06 784.597 1243.88 784.597C1244.71 784.597 1245.39 785.321 1245.39 786.202V793.382C1245.39 794.262 1244.71 794.986 1243.88 794.986C1243.06 794.986 1242.38 794.262 1242.38 793.382V786.202Z" fill="#7E6ABC"/>
<path fill-rule="evenodd" clip-rule="evenodd" d="M1403.23 639.822C1423.97 711.43 1431.72 750.348 1442.86 782.537C1448.39 763.615 1451.37 743.554 1451.37 722.769V620.027C1451.37 433.238 1377.64 551.583 1403.23 639.822" fill="#2C2757"/>
<path fill-rule="evenodd" clip-rule="evenodd" d="M1146.02 912.306C1129.84 889.361 1113.34 859.059 1103.48 821.972C1086.31 757.461 1156.79 828.939 1212.39 912.306H1146.02Z" fill="#3D3172"/>
<path fill-rule="evenodd" clip-rule="evenodd" d="M1242.96 912.306C1225.61 881.102 1208.38 840.036 1205.67 796.816C1199.97 705.876 1198.33 677.289 1182.03 662.566C1168.07 649.934 1336.55 652.636 1407.19 852.034C1386.24 878.796 1358.94 899.781 1327.83 912.306H1242.96Z" fill="#3D3172"/>
<path fill-rule="evenodd" clip-rule="evenodd" d="M1206.22 659.383C1270 721.083 1320.17 812.312 1356.95 897.456C1355.2 898.556 1353.42 899.631 1351.64 900.659C1313.95 813.235 1262.11 719.369 1195.95 658.329C1198.99 658.482 1202.44 658.833 1206.22 659.383" fill="#5D4698"/>
<path fill-rule="evenodd" clip-rule="evenodd" d="M1387.11 559.481C1401.18 596.328 1421.92 678.965 1446.45 767.914C1436.45 814.234 1411.37 854.64 1377.09 882.897C1317.67 792.673 1265.92 690.175 1246.59 608.9C1207.68 445.335 1328.72 406.354 1387.11 559.481Z" fill="#C1B6E1"/>
<path fill-rule="evenodd" clip-rule="evenodd" d="M1411.46 846.477C1329.18 693.486 1290.86 513.978 1290.69 513.208C1290.3 511.45 1291.33 509.69 1292.99 509.296C1294.64 508.881 1296.29 509.974 1296.68 511.734C1296.85 512.504 1334.64 689.469 1415.43 840.856C1414.13 842.744 1412.8 844.637 1411.46 846.477" fill="#9381C8"/>
<path fill-rule="evenodd" clip-rule="evenodd" d="M1331.87 910.612C1328.84 895.758 1324.11 879.717 1316.87 863.542C1289.45 802.33 1220.9 778.513 1201.39 787.827C1185.46 795.455 1153.37 842.652 1177.32 912.306H1327.83C1329.19 911.756 1330.53 911.205 1331.87 910.612" fill="#9381C8"/>
<path fill-rule="evenodd" clip-rule="evenodd" d="M1292.14 912.306C1295.63 902.306 1302.84 880.336 1303.78 867.062C1303.87 866.028 1303.15 865.127 1302.18 865.063C1301.22 864.974 1300.38 865.744 1300.3 866.778C1299.43 879.147 1292.82 899.581 1289.26 909.888C1281.25 893.126 1271.47 875.544 1259.59 857.765C1265.85 832.083 1265.13 813.074 1265.13 813.007C1265.09 811.979 1264.28 811.188 1263.31 811.208C1262.34 811.254 1261.6 812.109 1261.62 813.143C1261.64 813.207 1262.28 830.259 1256.93 853.833C1243.43 834.148 1227.34 814.261 1208.1 795.057C1206.7 793.653 1204.47 793.722 1203.14 795.237C1201.82 796.731 1201.91 799.08 1203.31 800.485C1212.69 809.845 1221.28 819.361 1229.2 828.941C1222.09 827.556 1211.24 826.101 1200.48 827.252C1199.53 827.357 1198.82 828.255 1198.9 829.291C1199.01 830.305 1199.86 831.049 1200.82 830.939C1213.78 829.575 1226.9 832.103 1232.94 833.534C1245.11 848.672 1255.56 863.899 1264.53 878.842C1252.01 877.563 1221.27 875.413 1191.43 881.235C1190.48 881.429 1189.86 882.399 1190.02 883.409C1190.21 884.418 1191.12 885.077 1192.07 884.904C1223.95 878.66 1256.97 881.695 1266.91 882.859C1272.77 892.859 1277.98 902.726 1282.59 912.306H1292.14" fill="#B09FD6"/>
<path fill-rule="evenodd" clip-rule="evenodd" d="M1169.1 132.467H1178.77C1180.55 132.467 1182 134.005 1182 135.896V146.156C1182 148.047 1180.55 149.585 1178.77 149.585H1169.1C1167.32 149.585 1165.88 148.047 1165.88 146.156V135.896C1165.88 134.005 1167.32 132.467 1169.1 132.467Z" fill="#E2D6EE"/>
<path fill-rule="evenodd" clip-rule="evenodd" d="M1202.03 132.467H1211.68C1213.46 132.467 1214.91 134.005 1214.91 135.896V146.156C1214.91 148.047 1213.46 149.585 1211.68 149.585H1202.03C1200.25 149.585 1198.81 148.047 1198.81 146.156V135.896C1198.81 134.005 1200.25 132.467 1202.03 132.467Z" fill="#E2D6EE"/>
<path fill-rule="evenodd" clip-rule="evenodd" d="M1235.14 132.467H1244.81C1246.59 132.467 1248.03 134.005 1248.03 135.896V146.156C1248.03 148.047 1246.59 149.585 1244.81 149.585H1235.14C1233.38 149.585 1231.94 148.047 1231.94 146.156V135.896C1231.94 134.005 1233.38 132.467 1235.14 132.467Z" fill="#E2D6EE"/>
<path fill-rule="evenodd" clip-rule="evenodd" d="M1268.08 132.467H1277.75C1279.51 132.467 1280.95 134.005 1280.95 135.896V146.156C1280.95 148.047 1279.51 149.585 1277.75 149.585H1268.08C1266.3 149.585 1264.85 148.047 1264.85 146.156V135.896C1264.85 134.005 1266.3 132.467 1268.08 132.467Z" fill="#E2D6EE"/>
<path d="M1428.72 119.75C1429.38 119.023 1430.48 119.023 1431.14 119.75C1431.8 120.453 1431.8 121.595 1431.14 122.319L1425.7 128.099C1425.04 128.8 1423.95 128.8 1423.28 128.099C1422.63 127.373 1422.63 126.231 1423.28 125.528L1428.72 119.75ZM1434.96 132.119C1435.91 132.119 1436.68 132.93 1436.68 133.941C1436.68 134.931 1435.91 135.745 1434.96 135.745H1427.28C1426.35 135.745 1425.58 134.931 1425.58 133.941C1425.58 132.93 1426.35 132.119 1427.28 132.119H1434.96ZM1431.14 145.568C1431.8 146.267 1431.8 147.434 1431.14 148.137C1430.48 148.841 1429.38 148.841 1428.72 148.137L1423.28 142.359C1422.63 141.656 1422.63 140.489 1423.28 139.788C1423.95 139.084 1425.04 139.084 1425.7 139.788L1431.14 145.568ZM1419.51 152.203C1419.51 153.188 1418.74 154.005 1417.79 154.005C1416.84 154.005 1416.08 153.188 1416.08 152.203V144.025C1416.08 143.017 1416.84 142.203 1417.79 142.203C1418.74 142.203 1419.51 143.017 1419.51 144.025V152.203ZM1406.86 148.137C1406.2 148.841 1405.1 148.841 1404.44 148.137C1403.78 147.434 1403.78 146.267 1404.44 145.568L1409.88 139.788C1410.54 139.084 1411.61 139.084 1412.29 139.788C1412.95 140.489 1412.95 141.656 1412.29 142.359L1406.86 148.137ZM1400.62 135.745C1399.67 135.745 1398.9 134.931 1398.9 133.941C1398.9 132.93 1399.67 132.119 1400.62 132.119H1408.31C1409.24 132.119 1410 132.93 1410 133.941C1410 134.931 1409.24 135.745 1408.31 135.745H1400.62ZM1404.44 122.319C1403.78 121.595 1403.78 120.453 1404.44 119.75C1405.1 119.023 1406.2 119.023 1406.86 119.75L1412.29 125.528C1412.95 126.231 1412.95 127.373 1412.29 128.099C1411.61 128.8 1410.54 128.8 1409.88 128.099L1404.44 122.319ZM1416.08 115.684C1416.08 114.673 1416.84 113.859 1417.79 113.859C1418.74 113.859 1419.51 114.673 1419.51 115.684V123.857C1419.51 124.844 1418.74 125.661 1417.79 125.661C1416.84 125.661 1416.08 124.844 1416.08 123.857V115.684Z" fill="#CDBAE2"/>
<path d="M100.725 442.524C101.387 441.82 102.46 441.82 103.142 442.524C103.804 443.227 103.804 444.392 103.142 445.095L97.7077 450.873C97.046 451.577 95.9521 451.577 95.2895 450.873C94.6297 450.149 94.6297 449.008 95.2895 448.304L100.725 442.524ZM106.965 454.896C107.893 454.896 108.659 455.709 108.659 456.72C108.659 457.728 107.893 458.544 106.965 458.544H99.2785C98.3283 458.544 97.5631 457.728 97.5631 456.72C97.5631 455.709 98.3283 454.896 99.2785 454.896H106.965ZM103.142 468.342C103.804 469.046 103.804 470.21 103.142 470.914C102.46 471.62 101.387 471.62 100.725 470.914L95.2895 465.133C94.6297 464.43 94.6297 463.268 95.2895 462.564C95.9521 461.861 97.046 461.861 97.7077 462.564L103.142 468.342ZM91.4874 474.977C91.4874 475.988 90.7251 476.801 89.7946 476.801C88.8444 476.801 88.0792 475.988 88.0792 474.977V466.804C88.0792 465.817 88.8444 464.98 89.7946 464.98C90.7251 464.98 91.4874 465.817 91.4874 466.804V474.977ZM78.863 470.914C78.1816 471.62 77.1062 471.62 76.4464 470.914C75.7631 470.21 75.7631 469.046 76.4464 468.342L81.8802 462.564C82.5419 461.861 83.6154 461.861 84.278 462.564C84.9595 463.268 84.9595 464.43 84.278 465.133L78.863 470.914ZM72.6227 458.544C71.6725 458.544 70.9102 457.728 70.9102 456.72C70.9102 455.709 71.6725 454.896 72.6227 454.896H80.3106C81.2411 454.896 82.0034 455.709 82.0034 456.72C82.0034 457.728 81.2411 458.544 80.3106 458.544H72.6227ZM76.4464 445.095C75.7631 444.392 75.7631 443.227 76.4464 442.524C77.1062 441.82 78.1816 441.82 78.863 442.524L84.278 448.304C84.9595 449.008 84.9595 450.149 84.278 450.873C83.6154 451.577 82.5419 451.577 81.8802 450.873L76.4464 445.095ZM88.0792 438.46C88.0792 437.45 88.8444 436.636 89.7946 436.636C90.7251 436.636 91.4874 437.45 91.4874 438.46V446.636C91.4874 447.623 90.7251 448.435 89.7946 448.435C88.8444 448.435 88.0792 447.623 88.0792 446.636V438.46Z" fill="#CDBAE2"/>
<path fill-rule="evenodd" clip-rule="evenodd" d="M29.318 1006.43C22.2611 1006.43 16.4628 1000.29 16.4628 992.756V991.63C16.4628 984.095 22.2611 977.959 29.318 977.959C36.4005 977.959 42.1764 984.095 42.1764 991.63V992.756C42.1764 1000.29 36.4005 1006.43 29.318 1006.43ZM19.275 914.158H1516.02C1526.63 914.158 1535.32 923.367 1535.32 934.656C1535.32 945.941 1526.63 955.177 1516.02 955.177H1450.96C1445.06 955.177 1440.25 960.295 1440.25 966.567C1440.25 972.818 1445.06 977.959 1450.96 977.959H1474.76C1482.13 977.959 1488.16 984.366 1488.16 992.203C1488.16 1000.03 1482.13 1006.43 1474.76 1006.43H62.6855C55.3044 1006.43 49.285 1000.03 49.285 992.203C49.285 984.366 55.3044 977.959 62.6855 977.959H81.4155C87.3145 977.959 92.1289 972.818 92.1289 966.567C92.1289 960.295 87.3145 955.177 81.4155 955.177H19.275C8.66333 955.177 0 945.941 0 934.656C0 923.367 8.68956 914.158 19.275 914.158" fill="#2C2757"/>
</svg>
