<svg width="732" height="208" viewBox="0 0 732 208" fill="none" xmlns="http://www.w3.org/2000/svg">
<rect width="732" height="208" rx="35" fill="#6F00C6"/>
<line x1="141" y1="56" x2="141" y2="152" stroke="white" stroke-width="10"/>
<line x1="188" y1="103" x2="91.9999" y2="103" stroke="white" stroke-width="10"/>
<path d="M302.36 66.314V112.052C302.36 116.936 301.37 121.358 299.39 125.318C297.41 129.212 294.374 132.314 290.282 134.624C286.256 136.868 281.108 137.99 274.838 137.99C266.06 137.99 259.361 135.614 254.741 130.862C250.187 126.044 247.91 119.708 247.91 111.854V66.314H256.82V112.151C256.82 117.893 258.338 122.348 261.374 125.516C264.476 128.684 269.129 130.268 275.333 130.268C281.735 130.268 286.355 128.585 289.193 125.219C292.097 121.787 293.549 117.398 293.549 112.052V66.314H302.36ZM345.073 82.946C351.607 82.946 356.854 85.223 360.814 89.777C364.84 94.331 366.853 101.195 366.853 110.369C366.853 119.411 364.84 126.275 360.814 130.961C356.854 135.647 351.574 137.99 344.974 137.99C340.882 137.99 337.483 137.231 334.777 135.713C332.137 134.129 330.058 132.314 328.54 130.268H327.946C328.078 131.39 328.21 132.809 328.342 134.525C328.474 136.241 328.54 137.726 328.54 138.98V160.76H319.828V83.936H326.956L328.144 91.163H328.54C330.124 88.853 332.203 86.906 334.777 85.322C337.351 83.738 340.783 82.946 345.073 82.946ZM343.489 90.272C338.077 90.272 334.249 91.79 332.005 94.826C329.827 97.862 328.672 102.482 328.54 108.686V110.369C328.54 116.903 329.596 121.952 331.708 125.516C333.886 129.014 337.879 130.763 343.687 130.763C346.921 130.763 349.561 129.872 351.607 128.09C353.719 126.308 355.27 123.899 356.26 120.863C357.316 117.761 357.844 114.23 357.844 110.27C357.844 104.198 356.656 99.347 354.28 95.717C351.97 92.087 348.373 90.272 343.489 90.272ZM389.448 137H380.736V61.76H389.448V137ZM452.394 110.369C452.394 119.147 450.15 125.945 445.662 130.763C441.24 135.581 435.234 137.99 427.644 137.99C422.958 137.99 418.767 136.934 415.071 134.822C411.441 132.644 408.57 129.509 406.458 125.417C404.346 121.259 403.29 116.243 403.29 110.369C403.29 101.591 405.501 94.826 409.923 90.074C414.345 85.322 420.351 82.946 427.941 82.946C432.759 82.946 436.983 84.035 440.613 86.213C444.309 88.325 447.18 91.427 449.226 95.519C451.338 99.545 452.394 104.495 452.394 110.369ZM412.299 110.369C412.299 116.639 413.52 121.622 415.962 125.318C418.47 128.948 422.43 130.763 427.842 130.763C433.188 130.763 437.115 128.948 439.623 125.318C442.131 121.622 443.385 116.639 443.385 110.369C443.385 104.099 442.131 99.182 439.623 95.618C437.115 92.054 433.155 90.272 427.743 90.272C422.331 90.272 418.404 92.054 415.962 95.618C413.52 99.182 412.299 104.099 412.299 110.369ZM486.298 83.045C492.766 83.045 497.551 84.464 500.653 87.302C503.755 90.14 505.306 94.661 505.306 100.865V137H498.97L497.287 129.476H496.891C494.581 132.38 492.139 134.525 489.565 135.911C487.057 137.297 483.559 137.99 479.071 137.99C474.253 137.99 470.26 136.736 467.092 134.228C463.924 131.654 462.34 127.661 462.34 122.249C462.34 116.969 464.419 112.91 468.577 110.072C472.735 107.168 479.137 105.584 487.783 105.32L496.792 105.023V101.855C496.792 97.433 495.835 94.364 493.921 92.648C492.007 90.932 489.301 90.074 485.803 90.074C483.031 90.074 480.391 90.503 477.883 91.361C475.375 92.153 473.032 93.077 470.854 94.133L468.181 87.599C470.491 86.345 473.23 85.289 476.398 84.431C479.566 83.507 482.866 83.045 486.298 83.045ZM496.693 111.062L488.872 111.359C482.272 111.623 477.685 112.679 475.111 114.527C472.603 116.375 471.349 118.982 471.349 122.348C471.349 125.318 472.24 127.496 474.022 128.882C475.87 130.268 478.213 130.961 481.051 130.961C485.539 130.961 489.268 129.74 492.238 127.298C495.208 124.79 496.693 120.962 496.693 115.814V111.062ZM540.505 137.99C533.905 137.99 528.625 135.713 524.665 131.159C520.705 126.539 518.725 119.675 518.725 110.567C518.725 101.459 520.705 94.595 524.665 89.975C528.691 85.289 534.004 82.946 540.604 82.946C544.696 82.946 548.029 83.705 550.603 85.223C553.243 86.741 555.388 88.589 557.038 90.767H557.632C557.566 89.909 557.434 88.655 557.236 87.005C557.104 85.289 557.038 83.936 557.038 82.946V61.76H565.75V137H558.721L557.434 129.872H557.038C555.454 132.116 553.342 134.03 550.702 135.614C548.062 137.198 544.663 137.99 540.505 137.99ZM541.891 130.763C547.501 130.763 551.428 129.245 553.672 126.209C555.982 123.107 557.137 118.454 557.137 112.25V110.666C557.137 104.066 556.048 99.017 553.87 95.519C551.692 91.955 547.666 90.173 541.792 90.173C537.106 90.173 533.575 92.054 531.199 95.816C528.889 99.512 527.734 104.495 527.734 110.765C527.734 117.101 528.889 122.018 531.199 125.516C533.575 129.014 537.139 130.763 541.891 130.763Z" fill="white"/>
</svg>
